<?xml version="1.0" encoding="utf-8"?>
<!-- Generator: Adobe Illustrator 23.0.0, SVG Export Plug-In . SVG Version: 6.00 Build 0)  -->
<svg version="1.1" xmlns="http://www.w3.org/2000/svg" xmlns:xlink="http://www.w3.org/1999/xlink" x="0px" y="0px"
	 viewBox="0 0 243.6 280.4" style="enable-background:new 0 0 243.6 280.4;" xml:space="preserve">
<style type="text/css">
	.st0{display:none;}
	.st1{fill:none;stroke:#000000;stroke-miterlimit:10;}
	.st2{fill:#FFFFFF;stroke:#000000;stroke-miterlimit:10;}
</style>
<g id="Layer_1" class="st0">
	
		<image style="display:inline;overflow:visible;" width="291" height="322" xlink:href="9D61BE7C.jpg"  transform="matrix(0.895 0 0 0.895 -2.8404 -7.6795)">
	</image>
</g>
<g id="Layer_2">
	<path class="st1" d="M90.8,103.4l-25-8.7c0,0-31.1-18.4-39.3-9.7s16.3,37.8,16.3,37.8s12.6,10.7,15,19.9c2.4,9.2-3.9,19.9,0,33.7
		c3.9,13.8,0.9,12.3,2.4,18.4c1.5,6.1,1.7,8.1,6.3,16.8c4.6,8.7,7.4,12.2,9.5,17.3c2,5.1,13.7,11.1,20.5,16.9
		c31,26.5,55,2.5,61.7-3.1c9.4-7.9,75.6-47.3,80.7-71.8c4.4-21.1-0.6-33.3-5.7-43s-15.8-25.5-15.8-25.5s-2.6-34.7-4.1-48
		c-1.5-13.3-18.9-52.6-33.1-48.5c-15.9,4.6-41.3,73.6-41.3,73.6s-10.3,7.6-20.5,11.2C108.1,94.2,90.8,103.4,90.8,103.4z"/>
	<path class="st1" d="M164.4,81.5c0,0,4.7-50.9,12.6-59.8c8.4-9.4,25.5,14.3,26.6,39.8c0.5,12.3-3.6,34.7-3.6,34.7"/>
	<path class="st1" d="M120.4,184.1c0,0,4.2-28.1,12.3-39.3c8.1-11.2,28.6-2,28.6-2s5.6,13.8-8.7,24.5c-14.3,10.7-23.2-2-23.2-2"/>
	<path class="st1" d="M67.7,164.7c0,0,1.6-4.6,6.7-4.1s10.7,4.1,10.7,4.1l-1,19.4c0.9-4.7-2.9,5-10.2,0
		C65.7,178.5,67.7,164.7,67.7,164.7z"/>
	<path class="st1" d="M85.1,191.7l-2.4,14.4c-0.4,2.5,0.3,5.1,2,7.1l0.4,0.5c0,0,8.7,6.6,13.8,10.2c5.1,3.6-2.6-7.1,5.1-11.2
		c7.7-4.1,8.7-4.6,7.7-7.7c-1-3.1-12.8-5-19.4-4.1c-6.3,0.9-7.1,4.1-7.1,4.1"/>
	<path class="st1" d="M92.8,208.2c0,0,3.6,12.7,6.1,15.7"/>
	<path class="st1" d="M102.6,208.2c0,0-3-1.5-3.7,0c-0.7,1.5-0.4,4.4,0,5.1s5.4-2.9,5.4-2.9L102.6,208.2z"/>
	<path class="st1" d="M85.1,210.5c0,0,1.6-0.2,3.9,2.1c2.3,2.3,0,1.9,0,1.9"/>
	<path class="st1" d="M98.9,240.5l5.4-4.6c0,0,14.8-0.8,26.7,2.3"/>
	<line class="st1" x1="101.4" y1="228.3" x2="104.3" y2="235.9"/>
	<path class="st1" d="M178.4,185.6c0,0,17.5,4.1,31.8,1c5-1.1,6.8-2.5,14.6-14c1.4-2,7-6.1,7-6.1"/>
	<path class="st1" d="M189.6,136.4c0,0-5.4,7.6-14.9,9.1l11,2.3c5.7-0.8,12.1,0.7,20.2,3.7c10.3,3.8,13.4,5.2,18,6
		c4.6,0.8,6.7-2,6.7-2"/>
	<path class="st1" d="M126.4,88.4c-3.2-0.8-17.5,12.9-12.4,24.9c1.9,4.4-6.7,5-7.5,13"/>
	<path class="st1" d="M127.1,92.9c0,0-8.7,19.3-1.5,38.9"/>
	<path class="st1" d="M90.1,107.6c0,0-1,8.2-2.5,13.3c-1.4,5.1-11.4,10.6-12.2,15.5c-0.8,4.9,0,11.1,0,11.1"/>
	<path class="st1" d="M106.5,98.8c0,0-13.7,8.8-12.9,36"/>
	<path class="st2" d="M87.6,126.4c0,0-2.7,2.6-2.5,12.8"/>
	<path class="st1" d="M140.7,216.1c0,0,30-1.3,44.9,3.3c15,4.6,51.5,21.2,51.5,21.2"/>
	<path class="st1" d="M137.4,226.3c0,0,35.9,22.9,40.2,27.3c4.3,4.3,18.4,20.4,18.4,20.4"/>
	<path class="st1" d="M149.9,228.3c0,0,30,15.1,35.7,20.4c5.8,5.4,21.1,29.6,21.1,29.6"/>
	<path class="st1" d="M132.7,218.8c0,0,47.2,12,52.9,17.1c5.8,5.1,21.1,26.3,21.1,26.3"/>
	<path class="st1" d="M156.6,218.8c0,0,23,3.7,31.7,9.4c8.7,5.7,26,16.9,26,16.9"/>
	<path class="st1" d="M72.1,224.6c0,0-35.5,5.4-40.9,4.6s-26-4.6-26-4.6"/>
	<path class="st1" d="M72.1,229.4c0,0-14.6,4-23.5,4"/>
	<path class="st1" d="M75.1,231.4c0,0-24.2,12-29,18.6s-11.2,16.3-10,26"/>
	<path class="st1" d="M79.8,235.9c0,0-8.2,2.3-16.6,9.2s-17.4,27.1-17.4,27.1"/>
	<path class="st1" d="M83.9,241.9c0,0-8.2,9.1-14.8,14.2s-13.5,11-13.5,11"/>
	<path class="st1" d="M87.6,241.9c0,0-8.3,6.3-11.1,16.2c-2.8,10-2.6,17.9-2.6,17.9"/>
	<line class="st1" x1="145.7" y1="152.9" x2="146.9" y2="162.9"/>
	<line class="st1" x1="77.2" y1="167.5" x2="77.2" y2="178"/>
	<line class="st1" x1="209" y1="104.5" x2="211.6" y2="63.9"/>
	<path class="st1" d="M160.2,150.5c0,0-12.8-12.1-21.4-6.8c-8.7,5.4-7.8,17.9-7.8,17.9s1.7,4.7,7.3,7.2s11.6,0,11.6,0"/>
	<path class="st1" d="M133.4,208.2c0,0,32.2-14.9,52.2-12.4s45,20,45,20"/>
	<path class="st1" d="M162.4,165.9c0,0,3.2-4-10.9,8.8c-4.9,4.4-13.2,8.4-13.2,8.4s5.2,5.6,11.5,7.7c6.3,2,7.6,0.8,7.6,0.8"/>
	<path class="st1" d="M63.8,187.1c0,0,1.8,2.6,8.3,5.4c1.4,0.6,6.4,2.6,6.7,3c0,0-3.3,9.1-3.3,16.9"/>
	<path class="st1" d="M83.9,162.9c-0.2-0.3-7.1-7.7-14.2-6.7c-7.2,0.9-3.5,7.1-3.8,6.7"/>
	<path class="st1" d="M67.5,172.7c0,0,1.3,10.9,5,13.4c3.7,2.4,10.1,1,10.1,1"/>
	<path class="st1" d="M33.1,88.4c0,0,6.9-0.7,31.1,16c13.6,9.4,7.9,22,7.9,22"/>
</g>
</svg>
