<?xml version="1.0" encoding="utf-8"?>
<!-- Generator: Adobe Illustrator 23.0.0, SVG Export Plug-In . SVG Version: 6.00 Build 0)  -->
<svg version="1.1" xmlns="http://www.w3.org/2000/svg" xmlns:xlink="http://www.w3.org/1999/xlink" x="0px" y="0px"
	 viewBox="0 0 283.5 283.5" style="enable-background:new 0 0 283.5 283.5;" xml:space="preserve">
<style type="text/css">
	.st0{fill:none;stroke:#000000;stroke-width:1.283;stroke-miterlimit:10;}
	.st1{fill:#FFFFFF;stroke:#000000;stroke-width:1.283;stroke-miterlimit:10;}
	.st2{fill:none;stroke:#000000;stroke-width:1.283;}
</style>
<g id="Layer_1">
	<polygon class="st0" points="0.9,74.2 1.8,200.3 112.9,206.2 224.6,200.1 224.6,74.6 112.9,52.3 	"/>
	<path class="st0" d="M1.8,201.6l101.7,71.6c6.5,3.7,14.4,2.7,19.9-1.3l101.1-70.5"/>
	<path d="M112.9,52.3"/>
	<path class="st0" d="M129.6,54.3V6c0-1.2-0.8-2.2-1.9-2.6l-2.5-0.7c-8.1-2.3-16.7-2.3-24.8,0l-2.4,0.7C96.8,3.8,96,4.8,96,5.9v48.3
		"/>
	<polygon class="st1" points="9.6,81.7 101.3,66.9 101.3,197.6 9.6,193.4 	"/>
	<polygon class="st1" points="216.5,81.7 124.8,66.9 124.8,197.6 216.5,193.4 	"/>
	<line class="st0" x1="112.9" y1="57.4" x2="113.2" y2="202.7"/>
	<g>
		<path class="st2" d="M64.9,167v-42c0-3.7-0.7-6.3-2-7.8c-1.3-1.5-3.5-2.3-6.6-2.3l-30.6,3.8v-12.4l31.2-3.8
			c15.2,0,22.8,6.9,22.8,20.8V167H64.9z M25.7,167v-35.8l14.8-1.3V167H25.7z"/>
	</g>
	<g>
		<path class="st2" d="M157.8,165.6v-12.3c2.5-0.5,4.7-1.3,6.8-2.5c2.1-1.2,3.9-2.6,5.4-4.2c1.7-1.8,3.1-3.8,4.1-5.9
			c1-2.2,1.5-4.4,1.5-6.7v-8.6c0-1.5-0.3-2.7-0.9-3.5c-0.6-0.8-1.7-1.2-3.3-1.2l-10-1.3v-12.9l14,1.3c4.7,0,8.2,2.6,10.5,5.2
			c2.3,2.6,3.5,6.2,3.5,10.7V146l2.2,19.9h-12.3l-2.6-13.2h-0.4c-2.3,3-5.1,5.7-8.3,7.9C164.8,162.9,161.4,164.6,157.8,165.6z"/>
	</g>
</g>
<g id="Layer_2">
</g>
</svg>
