<?xml version="1.0" encoding="utf-8"?>
<!-- Generator: Adobe Illustrator 23.0.0, SVG Export Plug-In . SVG Version: 6.00 Build 0)  -->
<svg version="1.1" id="Layer_1" xmlns="http://www.w3.org/2000/svg" xmlns:xlink="http://www.w3.org/1999/xlink" x="0px" y="0px"
	 viewBox="0 0 283.5 283.5" style="enable-background:new 0 0 283.5 283.5;" xml:space="preserve">
<style type="text/css">
	.st0{fill:none;stroke:#000000;stroke-miterlimit:10;}
</style>
<polygon class="st0" points="113.8,52.7 113.6,52.6 1.3,83.1 1.3,199.6 113.5,217.8 113.6,217.8 224.8,199.9 225.3,199.8 
	226.2,82.7 "/>
<path class="st0" d="M3.6,202.9l99.1,72.5c3.4,2.5,7.4,3.7,11.4,3.7c3.2,0,6.4-0.8,9.2-2.4l99.7-73.6"/>
<path class="st0" d="M131.1,54.2V7.6c0-1-0.6-2-1.5-2.4c-0.4-0.2-0.7-0.3-0.9-0.4l-2.4-0.7c-8.2-2.3-16.9-2.3-25.1,0l-2.5,0.7
	c-1.4,0.5-2.3,1.8-2.3,3.2v46.3"/>
<path class="st0" d="M70.9,79l-38.7,6.2C18.1,87.5,12,99.4,12,105.2v68c0,9.2,7.2,18.8,16.4,19.2l50.2,2.3c9.8,0.4,18-7.4,18-17.2
	V95.1C96.7,84.4,87.2,76.3,70.9,79z"/>
<path class="st0" d="M195,84.6l-38.7-6.2c-8.6-1.4-16,0.1-20.8,4.3c-3.6,3.1-5.6,7.5-5.6,12.4v82.4c0,4.9,2,9.5,5.5,12.9
	c3.4,3.2,7.7,4.9,12.3,4.9c0.3,0,0.6,0,0.8,0l50.2-2.3c9.4-0.4,17-11.7,17-18.8v-70C215.7,98.5,209.7,87,195,84.6z"/>
<g>
	<line class="st0" x1="114.2" y1="61.4" x2="113.9" y2="209.7"/>
</g>
<g>
	<path class="st0" d="M169.6,104.9c-15.6,0-23.4,7.2-23.4,21.4v44.3h16.1V128c0-3.5,0.6-6,1.8-7.4c1.2-1.4,3.3-2.1,6-2.1l31.3,3.9
		v-13.7L169.6,104.9z"/>
	<polygon class="st0" points="185.4,170.6 201.4,170.6 201.4,133.6 185.4,132.2 	"/>
</g>
<path class="st0" d="M67.8,155.7c-2.5-0.5-4.6-1.3-6.6-2.4c-2-1.2-3.8-2.5-5.3-4.1c-1.7-1.8-3-3.7-4-5.7c-1-2.1-1.4-4.2-1.4-6.4
	v-8.6c0-1.4,0.3-2.4,0.8-3.1c0.5-0.6,1.4-0.9,2.9-0.9l10.6-1.4v-14.2l-14.6,1.4c-5.1,0-8.8,2.9-11,5.4c-2.4,2.7-3.7,6.5-3.7,11.1
	l0,22.2l-2.3,20.6h13.5l2.5-12.8c2.3,2.8,4.9,5.3,7.9,7.3c3.3,2.4,6.8,4.1,10.4,5.1l0.8,0.2v-13.7L67.8,155.7z"/>
</svg>
