<?xml version="1.0" encoding="utf-8"?>
<!-- Generator: Adobe Illustrator 23.0.0, SVG Export Plug-In . SVG Version: 6.00 Build 0)  -->
<svg version="1.1" xmlns="http://www.w3.org/2000/svg" xmlns:xlink="http://www.w3.org/1999/xlink" x="0px" y="0px"
	 viewBox="0 0 283.5 283.5" style="enable-background:new 0 0 283.5 283.5;" xml:space="preserve">
<style type="text/css">
	.st0{display:none;}
	.st1{display:inline;}
	.st2{fill:none;stroke:#000000;stroke-width:0.9972;stroke-miterlimit:10;}
	.st3{fill:none;stroke:#000000;stroke-width:0.8316;stroke-miterlimit:10;}
	.st4{fill:none;stroke:#000000;stroke-width:0.643;stroke-miterlimit:10;}
	.st5{fill:none;stroke:#000000;stroke-width:0.4704;stroke-miterlimit:10;}
</style>
<g id="Layer_1" class="st0">
	<g class="st1">
		<g>
			<polygon points="143.6,204.3 142.6,204.3 142.8,282 143.8,282 143.6,204.3 			"/>
		</g>
	</g>
	<g class="st1">
		<g>
			<polygon points="143.5,169.5 142.5,169.5 142.6,202.3 143.6,202.3 143.5,169.5 			"/>
		</g>
	</g>
	<g class="st1">
		<g>
			<polygon points="143.4,137.3 142.4,137.3 142.5,167.5 143.5,167.5 143.4,137.3 			"/>
		</g>
	</g>
	<g class="st1">
		<g>
			<polygon points="143.4,100.5 142.5,100.5 142.4,111 142.5,135.3 143.4,135.3 143.4,111 143.4,100.5 			"/>
		</g>
	</g>
	<g class="st1">
		<g>
			<polygon points="142.8,0.9 142.4,98.5 143.4,98.5 143.8,0.9 142.8,0.9 			"/>
		</g>
	</g>
	<g class="st1">
		<g>
			<polygon points="192.1,282.5 96.5,282.5 96.5,283.5 192.1,283.5 192.1,282.5 			"/>
		</g>
	</g>
</g>
<g id="Layer_2">
	<path class="st2" d="M1.4,0c0,0,5,204.3,142.6,204.3S283.9,0.9,283.9,0.9"/>
	<path class="st3" d="M24.2,0c0,0,4.2,169.6,119.5,169.6S261,0.8,261,0.8"/>
	<path class="st4" d="M53.6,0.9c0,0,3.1,134.8,89.9,134.8S231.6,1.5,231.6,1.5"/>
	<path class="st5" d="M77.7,0.9c0,0,2.3,98.9,65.6,98.9s64.4-98.4,64.4-98.4"/>
</g>
<g id="Layer_3">
	<line class="st2" x1="142.6" y1="0.9" x2="142.6" y2="99.2"/>
	<line class="st2" x1="142.6" y1="134.7" x2="142.6" y2="100.3"/>
	<line class="st2" x1="142.6" y1="168.7" x2="142.6" y2="136.5"/>
	<line class="st2" x1="142.6" y1="203.6" x2="142.6" y2="170.3"/>
	<line class="st2" x1="142.6" y1="276.7" x2="142.6" y2="205"/>
	<line class="st2" x1="100.1" y1="277.7" x2="185.1" y2="277.7"/>
</g>
</svg>
