<?xml version="1.0" encoding="utf-8"?>
<!-- Generator: Adobe Illustrator 23.0.0, SVG Export Plug-In . SVG Version: 6.00 Build 0)  -->
<svg version="1.1" id="Layer_1" xmlns="http://www.w3.org/2000/svg" xmlns:xlink="http://www.w3.org/1999/xlink" x="0px" y="0px"
	 viewBox="0 0 566.9 566.9" style="enable-background:new 0 0 566.9 566.9;" xml:space="preserve">
<style type="text/css">
	.st0{fill:none;stroke:#000000;stroke-width:2;stroke-miterlimit:10;}
</style>
<path class="st0" d="M57,171.1c0,0,39.6,217.3,198,220c159.1,2.6,198.1-220,198.1-220"/>
<path class="st0" d="M113,171.1c0,0,29.3,186.4,141.8,186.4c112.4,0,140.7-184.8,140.7-184.8"/>
<path class="st0" d="M168,171.1c0,0,2,150.1,86.7,150.1c91,0,87.3-150.1,87.3-150.1"/>
<path class="st0" d="M218.1,171.1c0,0-4.6,124.6,36.6,124.6c39,0,38.3-124.6,38.3-124.6"/>
<polyline class="st0" points="255.1,98.8 254.7,295.8 255.1,486.4 "/>
<line class="st0" x1="228" y1="486.4" x2="283.1" y2="486.4"/>
</svg>
