<?xml version="1.0" encoding="utf-8"?>
<!-- Generator: Adobe Illustrator 23.0.0, SVG Export Plug-In . SVG Version: 6.00 Build 0)  -->
<svg version="1.1" id="Layer_1" xmlns="http://www.w3.org/2000/svg" xmlns:xlink="http://www.w3.org/1999/xlink" x="0px" y="0px"
	 viewBox="0 0 283.5 283.5" style="enable-background:new 0 0 283.5 283.5;" xml:space="preserve">
<style type="text/css">
	.st0{fill:none;stroke:#000000;stroke-width:0.9972;stroke-miterlimit:10;}
	.st1{fill:none;stroke:#000000;stroke-width:0.8316;stroke-miterlimit:10;}
	.st2{fill:none;stroke:#000000;stroke-width:0.643;stroke-miterlimit:10;}
	.st3{fill:none;stroke:#000000;stroke-width:0.4704;stroke-miterlimit:10;}
</style>
<g>
	<path class="st0" d="M1.4,0c0,0,5,204.3,142.6,204.3S283.9,0.9,283.9,0.9"/>
	<path class="st1" d="M24.2,0c0,0,4.2,169.6,119.5,169.6S261,0.8,261,0.8"/>
	<path class="st2" d="M53.6,0.9c0,0,3.1,134.8,89.9,134.8S231.6,1.5,231.6,1.5"/>
	<path class="st3" d="M77.7,0.9c0,0,2.3,98.9,65.6,98.9s64.4-98.4,64.4-98.4"/>
</g>
<g id="Layer_3">
	<line class="st0" x1="142.6" y1="0.9" x2="142.6" y2="98.2"/>
	<line class="st0" x1="142.6" y1="134.7" x2="142.6" y2="101.3"/>
	<line class="st0" x1="142.6" y1="167.7" x2="142.6" y2="137.5"/>
	<line class="st0" x1="142.6" y1="202.6" x2="142.6" y2="170.3"/>
	<line class="st0" x1="142.6" y1="276.7" x2="142.6" y2="206"/>
	<line class="st0" x1="100.1" y1="277.7" x2="185.1" y2="277.7"/>
</g>
</svg>
