<?xml version="1.0" encoding="utf-8"?>
<!-- Generator: Adobe Illustrator 23.0.0, SVG Export Plug-In . SVG Version: 6.00 Build 0)  -->
<svg version="1.1" id="Layer_1" xmlns="http://www.w3.org/2000/svg" xmlns:xlink="http://www.w3.org/1999/xlink" x="0px" y="0px"
	 viewBox="0 0 238 349.3" style="enable-background:new 0 0 238 349.3;" xml:space="preserve">
<style type="text/css">
	.st0{fill:none;stroke:#000000;stroke-miterlimit:10;}
</style>
<path class="st0" d="M146.6,89.5c-7.2-10.1-4.3-21.8-11.6-21.5c-19.2,0.9-27.1,30.3-32.3,43.7c-5,13.2-6.9,21.2-6.4,29
	c0.5,7.8,9.1,33.4,10.6,49.9c1.5,16.4,4.2,42.5,2.9,52.3c-1.3,9.8-0.9,12.3-10.6,11.6s-20.2-49.1-20.2-49.1l-6.2-25.1l-3.8-5.7
	l3.4,23.5l5,23.5c0,0,4.1,10.6,4,19.7c-0.3,26.8-16.6,47.3-16.6,47.3"/>
<path class="st0" d="M149.8,92.5c6.2,11,7.5,28.2,7.5,28.2c4.2,13.9,0.5,112.7-4.8,134c-0.6,2.2-5.7,14.9-16.5,21
	c-4.7,2.7-7.8,8.5-9.9,15.3l-6.7,25.6c0,0,15.4,3.2,18.3,5.8c2.9,2.6,3.3,2.5,4.1,5.2c0.8,2.7-0.8,5.9-2.4,5.9s-14.5-4.5-17.2-3.2
	c-2.7,1.3-8.1,3.2-13.2,3.2c-7.7,0-11-4.4-11-7.5c0,0-1.7-18-4.3-20.6c-0.8-0.8-3-1.5-6-2.3h0c0,0-5.8,19.8-16,26.3
	c-10.1,6.6-20.7,4.1-20.7,4.1s1.3-3.2,6.6-10.4c5.3-7.3,4.5-34.2,4.5-34.2S47,250.7,48.9,193.7c0.8-24.3,4.9-67.9,7.6-80.6
	s14.9-31,21.1-39.8s3.2-6.8,12.5-28.1s25.3-22.2,31.2-23.3s24.3,2.7,27.4,3.4c3.1,0.6,11.5-1.2,17.9-1.9c6.4-0.7,25.8-0.1,25.8-0.1
	l0.7,2.3c0,0-12.2,3-26.1,8.7c-14,5.7-24.9,14.5-23.1,32.8c1.3,13.3,2.9,14.2,4.6,22.4C148.9,90.5,149.2,91.5,149.8,92.5z"/>
</svg>
