<?xml version="1.0" encoding="utf-8"?>
<!-- Generator: Adobe Illustrator 23.0.0, SVG Export Plug-In . SVG Version: 6.00 Build 0)  -->
<svg version="1.1" xmlns="http://www.w3.org/2000/svg" xmlns:xlink="http://www.w3.org/1999/xlink" x="0px" y="0px"
	 viewBox="0 0 595.3 581.1" style="enable-background:new 0 0 595.3 581.1;" xml:space="preserve">
<style type="text/css">
	.st0{display:none;}
	.st1{fill:none;stroke:#000000;stroke-miterlimit:10;}
	.st2{fill:none;stroke:#000000;stroke-width:0.9263;stroke-miterlimit:10;}
	.st3{fill:none;stroke:#000000;stroke-width:0.7788;stroke-miterlimit:10;}
</style>
<g id="Layer_1" class="st0">
	
		<image style="display:inline;overflow:visible;" width="1280" height="720" xlink:href="../../../../../../Downloads/sailor-face.jpg"  transform="matrix(1 0 0 1 -359.2066 -16.9594)">
	</image>
</g>
<g id="face">
	<path class="st1" d="M319.2,116.9c-8.1-1.2-13.5,2.6-20.8,1.5s-10.7-6.2-14.6-3c-8.6,7.1-25-9.1-27.6-9.5
		c-4.8-0.8-21.6,4.5-21.6,4.5S219.2,98.7,199,75.3S146.6-4.5,113.5,9.2s5.6,138.7,5.6,138.7s-3.2,12.9,0,30.6s6.5,20.2,6.5,20.2
		l4,8.1c0,0-6.5,2.4-14.5,29s-15,81.5-0.3,101.2c25,33.6,82.5,67.6,96.8,73.2c14.3,5.6,44.8,31.8,75.1,37.5
		c19.7,3.7,54.6-8.8,72.3-16.7c7.2-3.2,18.7-6.5,26.5-7.9c15.3-2.7,40.6-10.1,54.6-29.2c20.2-27.4,25.8-70.2,25.8-70.2
		s13.3-45.2,11.7-62.9c-1.6-17.7-3.6-28.2-3.6-28.2l5.8-15.3l7.9-30.6c0,0,61.2-95.9,42.7-129.8c-15.3-28.2-117.7,62.1-117.7,62.1
		l-8.9,1.6l-6.5,7.3l-20.2-8.1l-17.7,7.3l-12.5-6.5l-14.1,0.3L319.2,116.9z"/>
	<path class="st1" d="M364.6,262.8c2,6,20.4,12.4,26.6,12c6.1-0.4,15.3-1.1,23.7-5.7c8.4-4.6,11.5-22.6,11.5-22.6l5.4-5.8h-3.7
		c0,0-4.8-12.9-27.4-12.9c-22.6,0-34.7,12.9-34.7,12.9s-5.5,8.2-4.2,17.4c-1.3,4.1-3,18.9,2.8,38.6c5.6,19.2,10.8,23.8,29.3,58
		c14,25.9-15.9,48.1-28.6,56.6c-22.5,15.1-70.1,27.9-83.5,25.6c-13.4-2.3-60.1-29.1-67.4-36s-32.2-32.6-16.9-52.1s35-46.2,35-46.2
		s-3,3.7,17.8-18.9c17.5-19,7.9-31.7,7.9-31.7l-4.8-1l-4.3,1c0,0-9.3,6.1-19.8,6.1c-16.1,0-29.3-10-34.5-17.4
		c-4.6-6.6-1.8-19.4-1.8-19.4l-12.5-0.6c0,0,17.3-15.3,40.7-12.1c12.4,1.7,21.2,8.3,26.7,14.2c4.3,4.6,8.4,10.3,10,16.4l1.3,8.8"/>
	<path class="st1" d="M167.6,224.3c0,0-12.9,4.1-22.9,11.7s-28.9,76.2-28.9,76.2s2.1,0.5,10.1-15.2c2.7-5.3,16.1-13.4,16.5-14.9
		c0.4-1.5-12,2.7-5.1-11.1c4.1-8.2,6.5-13,10-17.6c3.4-4.6,8-11.1,8.8-14.6s-8.8-5,2.7-4.6c11.5,0.4,19.5-11.5,19.5-11.5
		L167.6,224.3z"/>
	<path class="st1" d="M456.4,330.2c1.1-8.4,3.8-53.5,0.2-63.9c-2.4-7-15.2-10-15.2-10l-3.4-5.4c0,0,16.1,3.5,19.9,9.7
		c3.8,6.1,3.7,11.8,4.1,15.6c0.4,3.8,6.4,21.6,5.2,22.4c-1.1,0.8-3.6,5.4-3.6,5.4s2.3,9.2,1.9,13c-0.4,3.8-4.1,15.7-4.1,15.7l-1,7.5
		L456.4,330.2z"/>
	<path class="st1" d="M206.6,248.4c-9.6-6.5-10.3-23-8.4-27.2c1.9-4.2,14.2-7.7,29.1-3.8c14.9,3.8,23.7,16.1,23.7,16.1
		s5,7.3,2.3,11.9"/>
	<path class="st1" d="M408.1,269.1c16.1-7.3,11.9-26,11.9-26s-1.9-8.8-18.8-8.8c-22.6,0-34.9,16.1-34.9,16.1s-3.4,13,10.7,18.8"/>
	<path class="st1" d="M261,125.1c0,0,10.7,17.2,10.3,28c-0.4,10.7,14.9-13.4,12.6-18.8c-2.3-5.4-5.7-13.4-11.5-13.4
		C266.7,120.9,261,125.1,261,125.1z"/>
	<path class="st1" d="M240.7,162.6c0,0,5.4,5.7,6.5,10.7c1.1,5-2.7,19.1,0.8,26s1.9,3.4,1.9,3.4s1.9-11.9,4.2-15.3
		c2.3-3.4,10-12.6,11.1-16.1s1.9-18,1.9-18l-8,3.1l-4.6-5.4l-5.4,10L240.7,162.6z"/>
	<path class="st1" d="M281.3,153.4c0,0-5,8.4-4.6,13c0.4,4.6,5,25.3,5,25.3s6.1-19.1,6.1-23.4S281.3,153.4,281.3,153.4z"/>
	<path class="st1" d="M355.2,142.7c0,0,2.3,2.7,3.4,11.1s-9.6,15.3-10.7,20.3c-1.1,5,2.7,20.7,2.7,20.7s9.2-10,10.7-14.2
		c1.5-4.2,1.1-16.5,1.5-19.5c0.4-3.1,5-8,4.6-13c-0.4-5-0.4-16.1-0.4-16.1l-3.4-0.4l-1.1,11.5l-4.2-4.2L355.2,142.7z"/>
	<path class="st1" d="M372.1,166.1v18.4c0,0,6.1,3.1,6.1,6.5s0.4,16.9-1.9,21.1c-2.3,4.2,5.7,0.8,6.9-1.9c1.1-2.7,6.5-19.9,6.5-19.9
		l3.1-11.9l-3.8-12.3l-11.1-0.8l-6.1-10.3L372.1,166.1z"/>
	<path class="st1" d="M201.6,297.8c0,0-13,6.1-24.1,3.1c-3.6-1-7.6-7.8-11.3-12.7c-7.7-10.1-14.3-21.5-14.3-24.1
		c0-3.8,18,19.1,24.1,22.6c6.1,3.4,24.9,7.7,24.9,7.7L201.6,297.8z"/>
	<path class="st1" d="M401.6,285.2c0,0,15.3,5,20.7,11.5c5.4,6.5,10,14.6,13.8,14.6c3.8,0,16.9-7.7,18.8-14.6s-1.9-10.3-1.9-10.3
		s-1.1,11.5-10,13.8c-8.8,2.3-16.5-7.7-18.8-9.2C421.9,289.4,411.5,283.3,401.6,285.2z"/>
	<path class="st1" d="M383.9,295.1c0,0,3.4-5.7,13.4,0.8c10,6.5,25.3,24.5,26.8,29.5c1.5,5,5.7,8,5.7,8s-2.3,15.3-1.9,16.9
		c0.4,1.5,9.2,15.3,8,24.5c-1.1,9.2,12.3,0,12.3-2.7s1.5-16.1-3.4-22.6c-5-6.5-6.5-8.8-6.5-8.8l2.7-7.3l-3.1-3.1l1.9-5.4
		c0,0-12.6-4.6-17.6-10.7s-18.4-20.6-21.8-21.7C387.8,288.6,383.9,295.1,383.9,295.1z"/>
	<path class="st1" d="M192.4,320.8c0,0-34.5-17.6-38.3-14.9s-10.7,26.4-16.1,27.2c-5.4,0.8-13.4-4.2-16.1-6.5
		c-2.7-2.3-9.2-4.6-9.2-4.6s11.9,21.4,20.3,24.1c8.4,2.7,25.3-5,26-6.9c0.8-1.9,7.7-14.2,7.7-14.2l17.2,1.5L192.4,320.8z"/>
	<path class="st1" d="M408.8,325c0,0,0.3,0.6,0.8,1.5c1.4,2.7,4,8.3,2.2,10c-2.4,2.4-2.3,0.3-15.1,12.9c0,0,6.7,1.9,9.8,0.4
		c3.1-1.5,16.5-2.9,16.5-2.9S421.9,331.5,408.8,325z"/>
	<path class="st1" d="M274.4,205.9c0,0,11.1,9.6,9.2,19.9c-1.9,10.3-8.4,24.1-8.4,24.1"/>
	<path class="st1" d="M363.3,214c0,0-9.2,3.8-11.9,10.3c-2.7,6.5-3.8,19.1-2.7,24.5c1.1,5.4,0,12.3,0,12.3"/>
</g>
<g id="whiskers">
	<path class="st1" d="M461.7,354.7c11.1-1.2,19.8-2.5,21.5-3.2c4.6-1.9,17.2-13.4,26.4-30.3"/>
	<path class="st1" d="M452.1,355.7c1.1-0.1,2.1-0.2,3.2-0.3"/>
	<path class="st1" d="M450.4,355.8c0.6-0.1,1.2-0.1,1.8-0.2"/>
	<path class="st1" d="M394.8,351.3c5.7,2.3,9.9,4.3,12.9,5.5c2.9,1.1,10.8,1.1,20.5,0.7"/>
	<path class="st1" d="M368.6,341.1c0,0,9.2,4.2,19.5,8.3"/>
	<path class="st1" d="M450.6,384.2c16.4,4.1,33,7.3,45.9,7.7c37.9,1.1,62.8-12.6,82.7-29.1"/>
	<path class="st1" d="M399.9,369.2c10.4,3.5,26.4,8.6,43.5,13.2"/>
	<path class="st1" d="M388.1,365.1c0,0,2.7,1,7.3,2.5"/>
	<path class="st1" d="M440.9,398.4c17.5,10.2,34.3,20.3,37.7,23.9c7.7,8,52.1,38.3,52.1,38.3"/>
	<path class="st1" d="M399,374.7c6.3,3.5,21.1,11.8,36.3,20.5"/>
	<path class="st1" d="M391.8,370.9c0,0,1.2,0.6,3.2,1.8"/>
	<path class="st1" d="M430.8,408.2c2.9,1.6,5.3,2.8,6.7,3.4c8.8,3.4,42.1,20.3,42.1,20.3"/>
	<path class="st1" d="M394.6,386.7c8,4.9,20,12.2,29.5,17.7"/>
	<path class="st1" d="M385.9,381.3c0,0,1.8,1.1,4.7,2.9"/>
	<path class="st1" d="M423.7,412.1c5.6,3.7,9.9,7,11.2,9c5,7.7,29.9,36,29.9,36"/>
	<path class="st1" d="M390.7,392.4c7.5,4.2,18.3,10.4,27.4,16.1"/>
	<path class="st1" d="M381.5,387.3c0,0,1.7,0.9,4.5,2.5"/>
	<path class="st2" d="M413.5,417c4,3.1,7.9,6.2,11.1,9c13.8,12.1,33.6,33.1,33.6,33.1"/>
	<path class="st2" d="M385.7,397.2c0,0,11.7,7.8,23.5,16.5"/>
	<path class="st1" d="M121.9,349.9c-14.6,3.6-24.4,9.2-24.4,9.2l-85.4,27.2"/>
	<path class="st1" d="M197.9,344.6c0,0-42.6,0.4-63.6,3.1c-2,0.3-3.9,0.6-5.8,0.9"/>
	<path class="st1" d="M105.2,318.8c-21,7.8-38.3,15.2-38.3,15.2"/>
	<path class="st1" d="M212.2,326.4c-14.4-9-42.8-25.6-52.6-23.9c-13.8,2.4-32.3,8.3-49.2,14.4"/>
	<path class="st1" d="M220.9,331.9c0,0-1.2-1.5-4.9-3.8"/>
	<path class="st1" d="M127.2,353.6c-17.9-2.6-42.7-7.1-42.7-7.1"/>
	<path class="st1" d="M191.3,354c-14.9,0.4-41.3,1-47.5,1.3c-1.8,0.1-5.5-0.3-10.2-0.8"/>
	<path class="st1" d="M201.7,353.7c0,0-1.8,0-4.9,0.1"/>
	<path class="st1" d="M133.7,361.1c-11.7,1.1-22.8,2-26.6,2.2c-9.2,0.4-91.1-4.6-97.7-6.9"/>
	<path class="st1" d="M167.6,358c0,0-12.1,1.2-25.7,2.4"/>
	<path class="st1" d="M154.7,378.5c-28.7,9.4-56,24.2-61,29.3c-5.4,5.4-24.5,35.6-24.5,35.6"/>
	<path class="st1" d="M189.5,369.7c-7.8,1.4-17,3.5-27,6.4"/>
	<path class="st1" d="M215,366.4c0,0-7.5,0.4-19.4,2.3"/>
	<path class="st1" d="M191.5,403.8c-16.5,12-35.6,26.9-48.8,40.3"/>
	<path class="st1" d="M204.7,394.4c-2.3,1.6-4.6,3.2-7.1,5"/>
	<path class="st1" d="M225.8,380.2c0,0-6.7,4.3-16.6,11.1"/>
	<path class="st1" d="M173.8,392.8c-10.3,3.9-19.4,7.3-21.6,8c-5.7,1.9-51.3,13.8-51.3,13.8"/>
	<path class="st1" d="M196.1,384.4c-4.5,1.7-9.7,3.7-15,5.7"/>
	<path class="st1" d="M209.3,379.4c0,0-2.8,1.1-7.2,2.8"/>
	<path class="st1" d="M372.7,429c0.4,1.2,0.8,2.4,1.2,3.6c6.5,19.9,5.4,31,5.4,31"/>
	<path class="st1" d="M366.4,413.5c1.5,3.2,2.9,6.7,4.3,10.2"/>
	<path class="st1" d="M355.6,392c0,0,3.8,6.6,8.3,16"/>
	<path class="st1" d="M212.1,413.5c-2.5,3.7-4.7,7.3-6,10.2"/>
	<path class="st1" d="M235.3,381.7c0,0-8.1,9.4-15.4,19.3"/>
	<path class="st1" d="M303.9,351.1c0,0,0.8,15.3-3.4,19.9c-4.2,4.6-42.1,11.1-45.2,19.1c-3.1,8,4.6,3.7,4.6,3.7s25.5-7.9,39.4-6.4
		c22.2,2.3,32.4,11.3,35,14.5c2.6,3.2,13.2-2.7-4.1-16.5c-17.4-13.9-18.7-7.3-21.4-18.4s1-16.9,1-16.9s4.5-3.2,10.3-9.7
		c1.8-2.1-2.7-20.6,4.4-23c10.3-3.4,8,3.8,11,3.8c3.1,0,5.3-0.8,5.3-3.4c0,0-0.6-4.6-4.6-8.2c-3.6-3.2-19.4-5-24.7-5.4
		c-5.4-0.4-17.6-0.5-22.2,0.6c-4.6,1.1-11.9,1.3-12.3,6.6c-0.4,5.4,4.7,6.8,6.2,6c1.5-0.8,3.1-5.5,7.3-4s8,7.7,6.9,11.5
		c-1.1,3.8-4.2,12.3-2.7,14.6C296.2,341.9,303.9,351.1,303.9,351.1z"/>
	<path class="st1" d="M291.6,331.1c-1.1-6.5-10.3-9.2-10.3-9.2s-9.2-1.1-11.9-8.8s1.1-30.6,1.1-30.6s5.7-11.5,8-9.2
		c0,0,9.2,11.1,7.3,15.7c-1.9,4.6-6.3,12.2-8.2,12.9l-0.6,5.4c0,0,11.5-8.8,32.2-6.1c20.7,2.7,28.3,5,30.3,7.7
		c1.9,2.7,3.8,6.5,3.8,6.5l1.5-5c-1.9-1.9-11.1-19.1-10.7-23.7c0.4-4.6,11.1-10.7,11.1-10.7l1.9,4.6c0,0,5.4,30.3,1.1,38.3
		s-10.7,6.9-16.9,11.9s-7.7,6.9-7.7,6.9"/>
	<line class="st1" x1="396.2" y1="235.4" x2="394.3" y2="258.4"/>
	<path class="st1" d="M229.2,220.9c0,0-3.4,11.9-3.8,19.9"/>
	<path class="st3" d="M299.9,373.5c-3.8,3.1-38.6,10.6-41.3,16c-2.8,5.4,4.1,1.5,4.1,1.5s25-7.3,37.5-6.3
		c20,1.5,30.2,10.6,32.5,12.7c2.3,2.2,8.9-2.8-6.7-12.1c-15.7-9.4-17.8-6.9-20.2-14.4"/>
	<path class="st3" d="M263.3,388.6c0,0,20.7-8,37.1-6.9c16.5,1.1,32.6,13,32.6,13"/>
	<path class="st3" d="M318.4,383.6c-14.6-5.7-22.6-5.4-22.6-5.4l-7.7,1.9"/>
	<line class="st3" x1="305.8" y1="361" x2="303.1" y2="375.2"/>
	<path class="st3" d="M329.6,318.1c0,0,1.9,6.9,5.4,7.3"/>
	<line class="st3" x1="327.3" y1="319.7" x2="330.7" y2="326.6"/>
	<line class="st3" x1="324.2" y1="321.2" x2="328.4" y2="329.2"/>
	<line class="st3" x1="322.7" y1="323.1" x2="325.3" y2="330.4"/>
	<path class="st3" d="M288.6,315.8c0,0,0,2.7-1.5,3.4"/>
	<line class="st3" x1="291.6" y1="315.8" x2="289" y2="320.8"/>
	<line class="st3" x1="293.2" y1="318.9" x2="290.5" y2="323.1"/>
	<line class="st3" x1="295.1" y1="322.3" x2="292" y2="325"/>
	<path class="st1" d="M234.6,275.6c0,0-13,2.3-18,6.1c-5,3.8-9.2,10.7-9.2,10.7s-13-10.3-16.9-10.3s-19.1-2.7-19.1-2.7
		s9.6-6.9,16.9-6.5c7.3,0.4,11.9-1.1,11.9-1.1s-3.4-5-7.7-4.2s-19.1,1.9-19.1,1.9s9.2-7.3,13.4-8c4.2-0.8-1.1-11.9-1.1-11.9
		S226.9,266.8,234.6,275.6z"/>
	<path class="st1" d="M325.7,221.6c0,0,1.9,10.7-2.3,15.7c-4.2,5-8.8,6.9-8.8,6.9s-10-6.1-9.6-11.1c0.4-5,5.4-12.6,5.4-12.6l-5,5.7
		l-3.4-10c0,0-3.8,16.5-3.1,20.3s3.2,12.9,3.2,12.9s0.2-0.2,9.8,0.5c9.6,0.8,12.6,2.1,12.6,2.1s5.1-4.1,6.3-6
		c1.1-1.9,0.6-24.7,0.6-24.7l-2.3,3.1L325.7,221.6z"/>
	<path class="st1" d="M226.5,159.2l-7.3,1.9l-7.3-7.7l0.8,8.8l-9.6,5.7l-10.3-5l2.3,8.8l-9.2,5.4l-11.1-3.4l5,8.8c0,0,13-3.4,31,8.4
		c18,11.9,17.2,8,17.2,8s-9.2-16.9-9.2-21.4c0-4.6,2.3-7.3,2.3-7.3l3.8,2.7l0.8-7.3l5.4,1.5L226.5,159.2z"/>
	<path class="st1" d="M401.9,173.7c0,0,4.6,6.5,5,14.9c0.4,8.4,3.1,18.8-4.6,20.3c-7.7,1.5-8.4,5-8.4,5s27.6-1.1,31.4,1.5
		c3.8,2.7-5-7.3-5-7.3l16.9-9.6l-10.3-1.9V191l-6.9,0.4l3.8-8l-7.7,1.5l0.4-8.4l-6.5-1.9l-3.1-8.8
		C406.9,165.7,401.9,168,401.9,173.7z"/>
	<path class="st1" d="M485.8,180.6c0,0,25.3-41,37.5-77c12.3-36,5-41.5,1.1-45.8c-10.7-11.9-67.8,31.6-112.6,74.5"/>
	<path class="st1" d="M124.2,149.4c0,0-35.9-105.1-12.6-132.3c24.7-28.8,96.5,77.7,96.5,77.7"/>
	<path class="st1" d="M167.9,53.9c0,0-16.5-21.4-28.7-24.1c-12.3-2.7-23.7-1.1-23.7-1.1"/>
	<path class="st1" d="M175.2,66.9c0,0-14.9-22.6-33.3-25.7c-18.4-3.1-25.3-0.4-25.3-0.4"/>
	<path class="st1" d="M170.6,70c0,0-8-3.8-23.7-1.5c-15.7,2.3-30.3,13.4-30.3,13.4"/>
	<path class="st1" d="M163,57.7c0,0-10-5.4-29.1-3.4c-19.1,1.9-18.4,6.9-18.4,6.9"/>
	<path class="st1" d="M186.3,99.8c0,0-32.2-6.5-49-3.1"/>
	<path class="st1" d="M185.2,125.1c0,0-10.7-1.5-24.1,0.4c-13.4,1.9-16.9,5-20.7,5.4c-3.8,0.4-17.2,0-17.2,0"/>
	<path class="st1" d="M195.1,117.8c0,0-13-5-22.2-3.1c-9.2,1.9-41.7,6.5-41.7,6.5"/>
	<path class="st1" d="M424.9,128.9c0,0,50.6-42.5,60.5-43.3c10-0.8,35.2,1.5,35.2,1.5"/>
	<path class="st1" d="M440.2,122.4c0,0,23.4-0.8,32.2,1.1c8.8,1.9,26.4,3.8,26.4,3.8"/>
	<path class="st1" d="M433,134.7c0,0,38.3-2.7,48.6,0.8s18,6.5,18,6.5"/>
	<path class="st1" d="M434.9,153.4c0,0,21.1-1.9,31.4,0.4c10.3,2.3,21.1,4.6,21.1,4.6"/>
	<line class="st1" x1="445.6" y1="168.4" x2="481.6" y2="171.8"/>
	<path class="st1" d="M447.1,115.5c0,0,28-15.7,40.6-14.9c12.6,0.8,19.9,5.7,19.9,5.7"/>
	<path class="st1" d="M451,117.4c0,0,29.9-10,43.7-4.2"/>
	<path class="st1" d="M467.8,117.8c0,0,14.6-1.1,28.3,2.3"/>
	<path class="st1" d="M205.9,101.7c0,0-7.3-25.7-27.2-32.2s-41.7-8.8-47.9-6.9"/>
	<path class="st1" d="M198.2,97.9c0,0-30.3-20.3-46-20.3s-26,5.4-26,5.4"/>
	<path class="st1" d="M285.5,295.3c0,0,15.1-4.7,26.6-2.8c11.5,1.9,21,4.4,21,4.4l3.7,2.3"/>
	<path class="st1" d="M283.5,298.3c0,0,17.1-4.7,28.6-2.8c11.5,1.9,23,5.4,23,5.4l2.7,2.3"/>
	<path class="st1" d="M281.5,301.3c0,0,18.1-4.7,29.6-2.8c11.5,1.9,23,4.4,23,4.4l5.7,3.3"/>
	<g>
		<g>
			<path d="M245.6,515.8c-5-3.7-10.1-6.4-16.4-7c-4.6-0.4-11.3-0.5-14.3,3.8c-3.3,4.6-0.3,10.3,2.8,14.1c3.3,4.1,7.8,5.5,12.8,6.6
				c5.2,1.1,8.5,2.9,10.1,8.3c1.1,3.8,1.2,7.8-1.1,11.2c-3.4,5.1-11.9,8.8-17.9,7.8c-6.2-1.1-11.3-7.6-16-11.2
				c-2.5-2-6.1,1.6-3.5,3.5c4.7,3.7,9,8.6,14.4,11.2c5.2,2.5,10.7,1.7,15.9-0.4c8.5-3.4,14.9-10.1,13.7-19.7
				c-0.4-3.4-1.6-7.2-3.7-10c-2.9-3.9-7.3-4.8-11.7-5.8c-3-0.6-5.8-1.4-8.1-3.5c-3.7-3.4-6.4-10,0.6-10.9c7.6-0.9,13.8,1.8,19.8,6.3
				C245.6,522.1,248.1,517.7,245.6,515.8L245.6,515.8z"/>
		</g>
	</g>
	<g>
		<g>
			<path d="M273.1,531.5c-8.1-2.9-21,1.3-22,11.1c-0.4,3.7,2.3,7,6.2,6.2c5.2-1.1,8.5-8.7,11.1-12.6c-1.6-0.4-3.1-0.8-4.7-1.3
				c0.6,5.3,0.6,14.2,4.4,18.2c3.5,3.8,9,1.4,12.5-1c2.6-1.8,0.1-6.1-2.5-4.3c-1,0.7-3.2,2.3-4.4,2.3c-2.1-0.2-3-3.2-3.3-4.7
				c-0.8-3.4-1.3-6.9-1.7-10.4c-0.3-2.4-3.2-3.4-4.7-1.3c-1.6,2.4-3.1,4.9-4.8,7.1c-0.8,1-1.9,3.3-2.8,2.1c-0.8-1.1,1.2-3.3,1.8-3.9
				c3.5-3.7,8.8-4.5,13.4-2.8C274.8,537.4,276.1,532.6,273.1,531.5L273.1,531.5z"/>
		</g>
	</g>
	<g>
		<g>
			<path d="M286.8,531.9c-1.3,7.5-2.1,16.1,4.5,21.5c2.5,2,6-1.5,3.5-3.5c-5.1-4.2-4.1-10.8-3.2-16.6
				C292.1,530.1,287.3,528.8,286.8,531.9L286.8,531.9z"/>
		</g>
	</g>
	<g>
		<g>
			<path d="M291.8,522.1c3.2,0,3.2-5,0-5C288.5,517.1,288.5,522.1,291.8,522.1L291.8,522.1z"/>
		</g>
	</g>
	<g>
		<g>
			<path d="M309.9,508.2c-2.5,10.1-5.1,20.1-7.4,30.2c-1.5,6.6-1.3,14.2,6.2,16.7c3.1,1,4.4-3.8,1.3-4.8c-7.1-2.4-1.2-16.6-0.1-21.5
				c1.6-6.4,3.2-12.8,4.7-19.3C315.5,506.4,310.7,505,309.9,508.2L309.9,508.2z"/>
		</g>
	</g>
	<g>
		<g>
			<path d="M324,531.9c-1.6,6.7-5.7,16.8,0.4,22.5c5.6,5.4,11.1,0.8,14.8-4.2c3.7-4.9,9.5-13.2,4.4-19c-5-5.6-14.2-3.9-20-0.7
				c-2.8,1.6-0.3,5.9,2.5,4.3c3.3-1.9,8.8-3.7,12.3-1.2c4.5,3.1-0.3,9.4-2.6,12.7c-0.7,1-2.4,3.7-3.6,4.4c-4.2,2.6-5.9-1.5-6-4.4
				c-0.1-4.3,1.7-9,2.6-13.1C329.5,530.1,324.7,528.8,324,531.9L324,531.9z"/>
		</g>
	</g>
	<g>
		<g>
			<path d="M349.8,532.6c0,6.3,0,12.6,0,18.9c0,2.4,3.4,3.5,4.7,1.3c2.7-4.8,1.9-10.6,4.4-15.4c2.6-5,8.6-7,13.8-5.5
				c3.1,0.9,4.4-3.9,1.3-4.8c-5.7-1.7-11.9-0.3-16.3,3.7c-5.8,5.4-4,13.1-7.5,19.5c1.6,0.4,3.1,0.8,4.7,1.3c0-6.3,0-12.6,0-18.9
				C354.8,529.4,349.8,529.4,349.8,532.6L349.8,532.6z"/>
		</g>
	</g>
</g>
</svg>
