<?xml version="1.0" encoding="utf-8"?>
<!-- Generator: Adobe Illustrator 23.0.0, SVG Export Plug-In . SVG Version: 6.00 Build 0)  -->
<svg version="1.1" id="Layer_1" xmlns="http://www.w3.org/2000/svg" xmlns:xlink="http://www.w3.org/1999/xlink" x="0px" y="0px"
	 viewBox="0 0 651.2 333.5" style="enable-background:new 0 0 651.2 333.5;" xml:space="preserve">
<style type="text/css">
	.st0{fill:none;stroke:#000000;}
	.st1{fill:none;stroke:#000000;stroke-width:5;stroke-miterlimit:10;}
</style>
<g>
	<path class="st0" d="M62.7,55.4h22.7L33.2,172.5h72.9l-8.7,19.6H1.8L62.7,55.4z"/>
</g>
<g>
	<path class="st0" d="M323.1,56.1h24l-12.4,104.1h0.4l80.4-104.1h24L329.2,192.8h-17.7L323.1,56.1z"/>
	<path class="st0" d="M497.6,56.1h95.5l-8.7,19.6h-72.9l-17.4,39h62.2l-8.2,18.4H486l-17.9,40.1H541l-8.7,19.6h-95.5L497.6,56.1z"/>
</g>
<g>
	<path class="st0" d="M1.6,208.1h24.8c2.7,0,5.3,0.3,7.8,0.8c2.5,0.7,5,2,7.6,4c2.2,1.5,3.9,3.7,5.2,6.6c1.4,2.8,2.1,6,2.1,9.8
		c0,5.1-1.8,9.7-5.3,13.8c-3.7,4.4-9,6.6-16,6.8H12v26.7H1.6V208.1z M12,240h15.3c3.8-0.1,6.7-1.2,8.7-3.6c1.8-2.2,2.8-4.8,2.8-7.5
		c0-2.3-0.4-4.2-1.1-5.8c-0.8-1.4-1.9-2.5-3.3-3.3c-2.1-1.3-4.6-2-7.4-1.9H12V240z"/>
	<path class="st0" d="M77.7,208.1h26.7c5.7,0,10.3,1.5,13.9,4.5c4.3,3.4,6.6,8.3,6.8,14.6c-0.1,9.3-4.5,15.6-13.2,18.9l15.8,30.3
		h-12.3l-14.1-29.2H88.1v29.2H77.7V208.1z M88.1,238.1h15.7c3.9-0.1,6.8-1.2,8.7-3.4c1.9-2,2.9-4.5,2.9-7.5
		c-0.1-3.6-1.2-6.1-3.4-7.7c-1.8-1.4-4.3-2.1-7.6-2.1H88.2L88.1,238.1L88.1,238.1z"/>
</g>
<g>
	<path class="st0" d="M231.5,208.1h9.8l30.9,48.6h0.2v-48.6h10.4v68.3H273l-31-48.5h-0.2v48.6h-10.4v-68.4H231.5z"/>
	<path class="st0" d="M327.9,217.3h-18.7v-9.2H357v9.2h-18.7v59.1h-10.4V217.3z"/>
	<path class="st0" d="M383.6,208.1h43.6v9.8h-33.3v19.5h28.4v9.2h-28.4v20.1h33.3v9.8h-43.6V208.1z"/>
	<path class="st0" d="M456.2,208.1h26.7c5.7,0,10.3,1.5,13.9,4.5c4.3,3.4,6.6,8.3,6.8,14.6c-0.1,9.3-4.5,15.6-13.2,18.9l15.8,30.3
		h-12.3l-14.1-29.2h-13.2v29.2h-10.4V208.1z M466.5,238.1h15.7c3.9-0.1,6.8-1.2,8.7-3.4c1.9-2,2.9-4.5,2.9-7.5
		c-0.1-3.6-1.2-6.1-3.4-7.7c-1.8-1.4-4.3-2.1-7.6-2.1h-16.2v20.7H466.5z"/>
</g>
<polygon class="st1" points="264.4,115.2 183.6,229.5 218.9,229.2 155.9,322.3 192.2,241.8 140.1,242.4 192.8,137.3 145.8,136.9 
	211.7,3.5 283.9,4.2 206.3,115.2 "/>
</svg>
