<?xml version="1.0" encoding="utf-8"?>
<!-- Generator: Adobe Illustrator 21.1.0, SVG Export Plug-In . SVG Version: 6.00 Build 0)  -->
<!DOCTYPE svg PUBLIC "-//W3C//DTD SVG 1.1//EN" "http://www.w3.org/Graphics/SVG/1.1/DTD/svg11.dtd" [
	<!ENTITY ns_extend "http://ns.adobe.com/Extensibility/1.0/">
	<!ENTITY ns_ai "http://ns.adobe.com/AdobeIllustrator/10.0/">
	<!ENTITY ns_graphs "http://ns.adobe.com/Graphs/1.0/">
	<!ENTITY ns_vars "http://ns.adobe.com/Variables/1.0/">
	<!ENTITY ns_imrep "http://ns.adobe.com/ImageReplacement/1.0/">
	<!ENTITY ns_sfw "http://ns.adobe.com/SaveForWeb/1.0/">
	<!ENTITY ns_custom "http://ns.adobe.com/GenericCustomNamespace/1.0/">
	<!ENTITY ns_adobe_xpath "http://ns.adobe.com/XPath/1.0/">
]>
<svg version="1.1" xmlns:x="&ns_extend;" xmlns:i="&ns_ai;" xmlns:graph="&ns_graphs;"
	 xmlns="http://www.w3.org/2000/svg" xmlns:xlink="http://www.w3.org/1999/xlink" x="0px" y="0px" viewBox="0 0 651.2 333.5"
	 style="enable-background:new 0 0 651.2 333.5;" xml:space="preserve">
<style type="text/css">
	.st0{fill:#FFFFFF;stroke:#000000;stroke-miterlimit:10;}
	.st1{stroke:#000000;}
	.st2{display:none;}
	.st3{display:inline;}
	.st4{fill:none;stroke:#000000;stroke-width:5;stroke-miterlimit:10;}
	.st5{fill:#FFFFFF;stroke:#000000;stroke-width:5;stroke-miterlimit:10;}
</style>
<switch>
	<g i:extraneous="self">
		<g id="Layer_5">
			<g id="Layer_1">
				<path class="st0" d="M-134-72.3"/>
				<g>
					<path class="st1" d="M122.7,55.4h22.7L93.2,172.5h72.9l-8.7,19.6H61.8L122.7,55.4z"/>
				</g>
				<g>
					<path class="st1" d="M383.1,56.1h24l-12.4,104.1h0.4l80.4-104.1h24L389.2,192.8h-17.7L383.1,56.1z"/>
					<path class="st1" d="M557.6,56.1h95.5l-8.7,19.6h-72.9l-17.4,39h62.2l-8.2,18.4H546l-17.9,40.1H601l-8.7,19.6h-95.5L557.6,56.1
						z"/>
				</g>
				<g>
					<path class="st1" d="M61.6,208.1h24.8c2.7,0,5.3,0.3,7.8,0.8c2.5,0.7,5,2,7.6,4c2.2,1.5,3.9,3.7,5.2,6.6c1.4,2.8,2.1,6,2.1,9.8
						c0,5.1-1.8,9.7-5.3,13.8c-3.7,4.4-9,6.6-16,6.8H72v26.7H61.6V208.1z M72,240h15.3c3.8-0.1,6.7-1.2,8.7-3.6
						c1.8-2.2,2.8-4.8,2.8-7.5c0-2.3-0.4-4.2-1.1-5.8c-0.8-1.4-1.9-2.5-3.3-3.3c-2.1-1.3-4.6-2-7.4-1.9H72V240z"/>
					<path class="st1" d="M137.7,208.1h26.7c5.7,0,10.3,1.5,13.9,4.5c4.3,3.4,6.6,8.3,6.8,14.6c-0.1,9.3-4.5,15.6-13.2,18.9
						l15.8,30.3h-12.3l-14.1-29.2h-13.2v29.2h-10.4V208.1z M148.1,238.1h15.7c3.9-0.1,6.8-1.2,8.7-3.4c1.9-2,2.9-4.5,2.9-7.5
						c-0.1-3.6-1.2-6.1-3.4-7.7c-1.8-1.4-4.3-2.1-7.6-2.1h-16.2V238.1z"/>
				</g>
				<g>
					<path class="st1" d="M291.5,208.1h9.8l30.9,48.6h0.2v-48.6h10.4v68.3h-9.8L302,227.9h-0.2v48.6h-10.4V208.1z"/>
					<path class="st1" d="M387.9,217.3h-18.7v-9.2H417v9.2h-18.7v59.1h-10.4V217.3z"/>
					<path class="st1" d="M443.6,208.1h43.6v9.8h-33.3v19.5h28.4v9.2h-28.4v20.1h33.3v9.8h-43.6V208.1z"/>
					<path class="st1" d="M516.2,208.1h26.7c5.7,0,10.3,1.5,13.9,4.5c4.3,3.4,6.6,8.3,6.8,14.6c-0.1,9.3-4.5,15.6-13.2,18.9
						l15.8,30.3h-12.3l-14.1-29.2h-13.2v29.2h-10.4V208.1z M526.5,238.1h15.7c3.9-0.1,6.8-1.2,8.7-3.4c1.9-2,2.9-4.5,2.9-7.5
						c-0.1-3.6-1.2-6.1-3.4-7.7c-1.8-1.4-4.3-2.1-7.6-2.1h-16.2V238.1z"/>
				</g>
			</g>
			<g id="Layer_3" class="st2">
				<g class="st3">
					<path class="st4" d="M-28.2,201.1"/>
					<line class="st4" x1="-336" y1="-106.8" x2="-28.2" y2="201.1"/>
					<path class="st4" d="M2.9,201.1"/>
					<line class="st4" x1="-300.6" y1="-102.3" x2="2.9" y2="201.1"/>
					<path class="st4" d="M33.6,200.8"/>
					<line class="st4" x1="-265.1" y1="-97.9" x2="33.6" y2="200.8"/>
					<path class="st4" d="M64.2,200.5"/>
					<line class="st4" x1="-229.7" y1="-93.5" x2="64.2" y2="200.5"/>
					<path class="st4" d="M96.7,201.9"/>
					<line class="st4" x1="-194.3" y1="-89" x2="96.7" y2="201.9"/>
					<path class="st4" d="M126.6,200.9"/>
					<line class="st4" x1="-158.8" y1="-84.6" x2="126.6" y2="200.9"/>
					<path class="st4" d="M156.7,199.9"/>
					<line class="st4" x1="-123.4" y1="-80.2" x2="156.7" y2="199.9"/>
					<path class="st4" d="M189.1,201.3"/>
					<line class="st4" x1="-88" y1="-75.7" x2="189.1" y2="201.3"/>
					<path class="st4" d="M219.8,201"/>
					<line class="st4" x1="-52.5" y1="-71.3" x2="219.8" y2="201"/>
					<line class="st4" x1="-23.5" y1="-71.3" x2="248.8" y2="201"/>
					<line class="st4" x1="-22.5" y1="-71.3" x2="249.8" y2="201"/>
					<line class="st4" x1="7.5" y1="-71.3" x2="279.8" y2="201"/>
					<line class="st4" x1="38.5" y1="-71.3" x2="310.8" y2="201"/>
					<line class="st4" x1="69.5" y1="-71.3" x2="341.8" y2="201"/>
					<line class="st4" x1="100.5" y1="-71.3" x2="372.8" y2="201"/>
					<line class="st4" x1="131.5" y1="-71.3" x2="403.8" y2="201"/>
					<line class="st4" x1="162.5" y1="-71.3" x2="434.8" y2="201"/>
					<line class="st4" x1="193.5" y1="-71.3" x2="465.8" y2="201"/>
					<line class="st4" x1="224.5" y1="-71.3" x2="496.8" y2="201"/>
					<line class="st4" x1="255.5" y1="-71.3" x2="527.8" y2="201"/>
					<line class="st4" x1="286.5" y1="-71.3" x2="558.8" y2="201"/>
					<line class="st4" x1="287.5" y1="-71.3" x2="559.8" y2="201"/>
					<line class="st4" x1="317.5" y1="-71.3" x2="589.8" y2="201"/>
					<line class="st4" x1="347.5" y1="-71.3" x2="619.8" y2="201"/>
					<line class="st4" x1="378.5" y1="-71.3" x2="650.8" y2="201"/>
					<line class="st4" x1="409.5" y1="-71.3" x2="681.8" y2="201"/>
					<line class="st4" x1="440.5" y1="-71.3" x2="712.8" y2="201"/>
					<line class="st4" x1="471.5" y1="-71.3" x2="743.8" y2="201"/>
					<line class="st4" x1="502.5" y1="-71.3" x2="774.8" y2="201"/>
					<line class="st4" x1="533.5" y1="-71.3" x2="805.8" y2="201"/>
					<line class="st4" x1="564.5" y1="-71.3" x2="836.8" y2="201"/>
					<line class="st4" x1="594.5" y1="-71.3" x2="866.8" y2="201"/>
					<line class="st4" x1="625.5" y1="-71.3" x2="897.8" y2="201"/>
					<line class="st4" x1="656.5" y1="-71.3" x2="928.8" y2="201"/>
					<path class="st4" d="M-17.1-66.9"/>
					<path class="st4" d="M281.8,201.1"/>
					<path class="st4" d="M314.2,202.5"/>
				</g>
			</g>
			<g id="Layer_6">
				<line class="st4" x1="634.1" y1="201.4" x2="651.4" y2="201.4"/>
				<line class="st4" x1="590.4" y1="201.4" x2="634.1" y2="201.4"/>
				<line class="st4" x1="561.3" y1="201.4" x2="590.4" y2="201.4"/>
				<line class="st4" x1="528.9" y1="201.4" x2="561.3" y2="201.4"/>
				<line class="st4" x1="497.8" y1="201.4" x2="528.9" y2="201.4"/>
				<line class="st4" x1="97.1" y1="201.4" x2="497.8" y2="201.4"/>
				<line class="st4" x1="64.7" y1="201.4" x2="97.1" y2="201.4"/>
				<line class="st4" x1="-0.9" y1="201.4" x2="64.7" y2="201.4"/>
			</g>
			<g id="Layer_4">
			</g>
		</g>
		<g id="Layer_2">
			<polygon class="st5" points="323.4,115.2 242.6,229.5 277.9,229.2 214.9,322.3 251.2,241.8 199.1,242.4 251.8,137.3 204.8,136.9 
				270.7,3.5 342.9,4.2 265.3,115.2 			"/>
		</g>
	</g>
</switch>
</svg>
