<?xml version="1.0" encoding="UTF-8" standalone="no"?>
<!DOCTYPE svg PUBLIC "-//W3C//DTD SVG 1.1//EN"
 "http://www.w3.org/Graphics/SVG/1.1/DTD/svg11.dtd">
<!-- Generated by graphviz version 2.40.1 (20161225.0304)
 -->
<!-- Title: movement Pages: 1 -->
<svg width="985pt" height="1690pt"
 viewBox="0.00 0.00 985.06 1690.22" xmlns="http://www.w3.org/2000/svg" xmlns:xlink="http://www.w3.org/1999/xlink">
<g id="graph0" class="graph" transform="scale(1 1) rotate(0) translate(4 1686.2155)">
<title>movement</title>
<polygon fill="#ffffff" stroke="transparent" points="-4,4 -4,-1686.2155 981.0628,-1686.2155 981.0628,4 -4,4"/>
<!-- start -->
<g id="node1" class="node">
<title>start</title>
<polygon fill="#d1eeee" stroke="#000000" points="124.1578,-1658.6532 172.2046,-1646.2155 220.2514,-1658.6532 220.2066,-1678.7778 124.2026,-1678.7778 124.1578,-1658.6532"/>
<text text-anchor="start" x="147.2046" y="-1661.7155" font-family="Arial" font-size="10.00" fill="#000000">extrudeto( )</text>
</g>
<!-- retraction\nspecified? -->
<g id="node2" class="node">
<title>retraction\nspecified?</title>
<polygon fill="#00eeee" stroke="#000000" points="81.2046,-1598.2155 20.2046,-1568.2155 81.2046,-1538.2155 142.2046,-1568.2155 81.2046,-1598.2155"/>
<text text-anchor="middle" x="81.2046" y="-1571.2155" font-family="Arial" font-size="10.00" fill="#000000">retraction</text>
<text text-anchor="middle" x="81.2046" y="-1560.2155" font-family="Arial" font-size="10.00" fill="#000000">specified?</text>
</g>
<!-- start&#45;&gt;retraction\nspecified? -->
<g id="edge1" class="edge">
<title>start:s&#45;&gt;retraction\nspecified?:n</title>
<path fill="none" stroke="#000000" d="M172.2046,-1646.2155C172.2046,-1604.4191 96.1731,-1637.1318 83.1052,-1608.1416"/>
<polygon fill="#d1eeee" stroke="#000000" points="86.5229,-1607.3788 81.2046,-1598.2155 79.6478,-1608.6953 86.5229,-1607.3788"/>
</g>
<!-- extrusion\nposition\nspecified? -->
<g id="node3" class="node">
<title>extrusion\nposition\nspecified?</title>
<polygon fill="#00eeee" stroke="#000000" points="264.2046,-1609.2155 203.2046,-1568.2155 264.2046,-1527.2155 325.2046,-1568.2155 264.2046,-1609.2155"/>
<text text-anchor="middle" x="264.2046" y="-1576.7155" font-family="Arial" font-size="10.00" fill="#000000">extrusion</text>
<text text-anchor="middle" x="264.2046" y="-1565.7155" font-family="Arial" font-size="10.00" fill="#000000">position</text>
<text text-anchor="middle" x="264.2046" y="-1554.7155" font-family="Arial" font-size="10.00" fill="#000000">specified?</text>
</g>
<!-- start&#45;&gt;extrusion\nposition\nspecified? -->
<g id="edge2" class="edge">
<title>start:s&#45;&gt;extrusion\nposition\nspecified?:n</title>
<path fill="none" stroke="#000000" d="M172.2046,-1646.2155C172.2046,-1606.2755 247.7632,-1644.5347 261.9304,-1619.257"/>
<polygon fill="#d1eeee" stroke="#000000" points="265.4092,-1619.7416 264.2046,-1609.2155 258.5821,-1618.1954 265.4092,-1619.7416"/>
</g>
<!-- no retraction\nspecified, no\nextrusion position -->
<g id="node24" class="node">
<title>no retraction\nspecified, no\nextrusion position</title>
<polygon fill="#d1eeee" stroke="#000000" points="250.7046,-1188.7891 157.7046,-1188.7891 157.7046,-1095.7891 250.7046,-1095.7891 250.7046,-1188.7891"/>
<text text-anchor="middle" x="204.2046" y="-1150.7891" font-family="Arial" font-size="10.00" fill="#000000">no retraction</text>
<text text-anchor="middle" x="204.2046" y="-1139.7891" font-family="Arial" font-size="10.00" fill="#000000">specified, no</text>
<text text-anchor="middle" x="204.2046" y="-1128.7891" font-family="Arial" font-size="10.00" fill="#000000">extrusion position</text>
</g>
<!-- retraction\nspecified?&#45;&gt;no retraction\nspecified, no\nextrusion position -->
<g id="edge4" class="edge">
<title>retraction\nspecified?:e&#45;&gt;no retraction\nspecified, no\nextrusion position</title>
<path fill="none" stroke="#000000" d="M142.2046,-1568.2155C199.5379,-1568.2155 142.2046,-1496.5488 142.2046,-1439.2155 142.2046,-1439.2155 142.2046,-1439.2155 142.2046,-1243.7891 142.2046,-1227.5442 148.0599,-1211.698 156.1717,-1197.5398"/>
<polygon fill="#d1eeee" stroke="#000000" points="159.1985,-1199.2998 161.4819,-1188.9539 153.2451,-1195.6177 159.1985,-1199.2998"/>
<text text-anchor="middle" x="149.2046" y="-1327.5023" font-family="Arial" font-size="10.00" fill="#000000"> no</text>
</g>
<!-- retraction\nargument is: -->
<g id="node27" class="node">
<title>retraction\nargument is:</title>
<ellipse fill="#d1eeee" stroke="#000000" cx="50.2046" cy="-1018.7891" rx="50.41" ry="21.4286"/>
<text text-anchor="middle" x="50.2046" y="-1021.7891" font-family="Arial" font-size="10.00" fill="#000000">retraction</text>
<text text-anchor="middle" x="50.2046" y="-1010.7891" font-family="Arial" font-size="10.00" fill="#000000">argument is:</text>
</g>
<!-- retraction\nspecified?&#45;&gt;retraction\nargument is: -->
<g id="edge3" class="edge">
<title>retraction\nspecified?:s&#45;&gt;retraction\nargument is:</title>
<path fill="none" stroke="#000000" d="M81.2046,-1538.2155C81.2046,-1493.6446 65.2046,-1483.7864 65.2046,-1439.2155 65.2046,-1439.2155 65.2046,-1439.2155 65.2046,-1142.2891 65.2046,-1110.7282 60.3174,-1074.9593 56.1222,-1050.0693"/>
<polygon fill="#d1eeee" stroke="#000000" points="59.5515,-1049.3607 54.3829,-1040.1121 52.6559,-1050.5652 59.5515,-1049.3607"/>
<text text-anchor="middle" x="74.7046" y="-1282.7891" font-family="Arial" font-size="10.00" fill="#000000"> yes</text>
</g>
<!-- extrusion position\nis current\nposition? -->
<g id="node4" class="node">
<title>extrusion position\nis current\nposition?</title>
<polygon fill="#00eeee" stroke="#000000" points="324.2046,-1480.2155 231.2046,-1439.2155 324.2046,-1398.2155 417.2046,-1439.2155 324.2046,-1480.2155"/>
<text text-anchor="middle" x="324.2046" y="-1447.7155" font-family="Arial" font-size="10.00" fill="#000000">extrusion position</text>
<text text-anchor="middle" x="324.2046" y="-1436.7155" font-family="Arial" font-size="10.00" fill="#000000">is current</text>
<text text-anchor="middle" x="324.2046" y="-1425.7155" font-family="Arial" font-size="10.00" fill="#000000">position?</text>
</g>
<!-- extrusion\nposition\nspecified?&#45;&gt;extrusion position\nis current\nposition? -->
<g id="edge13" class="edge">
<title>extrusion\nposition\nspecified?:s&#45;&gt;extrusion position\nis current\nposition?:n</title>
<path fill="none" stroke="#000000" d="M264.2046,-1527.2155C264.2046,-1497.311 310.9661,-1509.9769 321.9258,-1490.0498"/>
<polygon fill="#d1eeee" stroke="#000000" points="325.3568,-1490.7475 324.2046,-1480.2155 318.5375,-1489.1673 325.3568,-1490.7475"/>
<text text-anchor="middle" x="321.7046" y="-1501.2155" font-family="Arial" font-size="10.00" fill="#000000"> yes</text>
</g>
<!-- printing\nmode (auto) -->
<g id="node15" class="node">
<title>printing\nmode (auto)</title>
<polygon fill="#caff70" stroke="#000000" points="238.2046,-1261.7891 170.2046,-1261.7891 170.2046,-1225.7891 238.2046,-1225.7891 238.2046,-1261.7891"/>
<text text-anchor="middle" x="204.2046" y="-1246.7891" font-family="Arial" font-size="10.00" fill="#000000">printing</text>
<text text-anchor="middle" x="204.2046" y="-1235.7891" font-family="Arial" font-size="10.00" fill="#000000">mode (auto)</text>
</g>
<!-- extrusion\nposition\nspecified?&#45;&gt;printing\nmode (auto) -->
<g id="edge5" class="edge">
<title>extrusion\nposition\nspecified?:w&#45;&gt;printing\nmode (auto)</title>
<path fill="none" stroke="#000000" d="M203.2046,-1568.2155C144.3,-1568.2155 182.3177,-1351.6435 198.201,-1272.3953"/>
<polygon fill="#d1eeee" stroke="#000000" points="201.7191,-1272.6583 200.2829,-1262.1612 194.8596,-1271.2628 201.7191,-1272.6583"/>
<text text-anchor="middle" x="187.2046" y="-1372.2155" font-family="Arial" font-size="10.00" fill="#000000"> no</text>
</g>
<!-- traveling mode -->
<g id="node17" class="node">
<title>traveling mode</title>
<polygon fill="#caff70" stroke="#000000" points="362.2046,-1261.7891 282.2046,-1261.7891 282.2046,-1225.7891 362.2046,-1225.7891 362.2046,-1261.7891"/>
<text text-anchor="middle" x="322.2046" y="-1241.2891" font-family="Arial" font-size="10.00" fill="#000000">traveling mode</text>
</g>
<!-- extrusion position\nis current\nposition?&#45;&gt;traveling mode -->
<g id="edge14" class="edge">
<title>extrusion position\nis current\nposition?:s&#45;&gt;traveling mode</title>
<path fill="none" stroke="#000000" d="M324.2046,-1398.2155C324.2046,-1354.084 323.3778,-1302.8643 322.7874,-1271.914"/>
<polygon fill="#d1eeee" stroke="#000000" points="326.2857,-1271.7861 322.5902,-1261.8567 319.287,-1271.9234 326.2857,-1271.7861"/>
<text text-anchor="middle" x="332.7046" y="-1327.5023" font-family="Arial" font-size="10.00" fill="#000000"> yes</text>
</g>
<!-- clear current\nretraction -->
<g id="node28" class="node">
<title>clear current\nretraction</title>
<ellipse fill="#d1eeee" stroke="#000000" cx="419.2046" cy="-1330.0023" rx="50.41" ry="21.4286"/>
<text text-anchor="middle" x="419.2046" y="-1333.0023" font-family="Arial" font-size="10.00" fill="#000000">clear current</text>
<text text-anchor="middle" x="419.2046" y="-1322.0023" font-family="Arial" font-size="10.00" fill="#000000">retraction</text>
</g>
<!-- extrusion position\nis current\nposition?&#45;&gt;clear current\nretraction -->
<g id="edge16" class="edge">
<title>extrusion position\nis current\nposition?:e&#45;&gt;clear current\nretraction</title>
<path fill="none" stroke="#000000" d="M417.2046,-1439.2155C448.6904,-1439.2155 440.1766,-1393.2772 430.3036,-1360.9881"/>
<polygon fill="#d1eeee" stroke="#000000" points="433.5016,-1359.5013 427.0993,-1351.0597 426.84,-1361.6514 433.5016,-1359.5013"/>
<text text-anchor="middle" x="441.2046" y="-1372.2155" font-family="Arial" font-size="10.00" fill="#000000"> no</text>
</g>
<!-- using automatic\nretraction? -->
<g id="node5" class="node">
<title>using automatic\nretraction?</title>
<polygon fill="#00eeee" stroke="#000000" points="204.2046,-1048.7891 118.2046,-1018.7891 204.2046,-988.7891 290.2046,-1018.7891 204.2046,-1048.7891"/>
<text text-anchor="middle" x="204.2046" y="-1021.7891" font-family="Arial" font-size="10.00" fill="#000000">using automatic</text>
<text text-anchor="middle" x="204.2046" y="-1010.7891" font-family="Arial" font-size="10.00" fill="#000000">retraction?</text>
</g>
<!-- using\nretraction -->
<g id="node18" class="node">
<title>using\nretraction</title>
<polygon fill="#caff70" stroke="#000000" points="232.7046,-941.7891 175.7046,-941.7891 175.7046,-905.7891 232.7046,-905.7891 232.7046,-941.7891"/>
<text text-anchor="middle" x="204.2046" y="-926.7891" font-family="Arial" font-size="10.00" fill="#000000">using</text>
<text text-anchor="middle" x="204.2046" y="-915.7891" font-family="Arial" font-size="10.00" fill="#000000">retraction</text>
</g>
<!-- using automatic\nretraction?&#45;&gt;using\nretraction -->
<g id="edge9" class="edge">
<title>using automatic\nretraction?:s&#45;&gt;using\nretraction</title>
<path fill="none" stroke="#000000" d="M204.2046,-988.7891C204.2046,-976.8167 204.2046,-963.6039 204.2046,-952.2351"/>
<polygon fill="#d1eeee" stroke="#000000" points="207.7047,-952.0007 204.2046,-942.0008 200.7047,-952.0008 207.7047,-952.0007"/>
<text text-anchor="middle" x="213.7046" y="-962.7891" font-family="Arial" font-size="10.00" fill="#000000"> yes</text>
</g>
<!-- not using\nretraction -->
<g id="node19" class="node">
<title>not using\nretraction</title>
<polygon fill="#caff70" stroke="#000000" points="339.7046,-941.7891 282.7046,-941.7891 282.7046,-905.7891 339.7046,-905.7891 339.7046,-941.7891"/>
<text text-anchor="middle" x="311.2046" y="-926.7891" font-family="Arial" font-size="10.00" fill="#000000">not using</text>
<text text-anchor="middle" x="311.2046" y="-915.7891" font-family="Arial" font-size="10.00" fill="#000000">retraction</text>
</g>
<!-- using automatic\nretraction?&#45;&gt;not using\nretraction -->
<g id="edge12" class="edge">
<title>using automatic\nretraction?:e&#45;&gt;not using\nretraction</title>
<path fill="none" stroke="#000000" d="M290.2046,-1018.7891C316.6668,-1018.7891 291.8976,-985.4887 298.2046,-959.7891 298.8648,-957.0988 299.6547,-954.33 300.5146,-951.5797"/>
<polygon fill="#d1eeee" stroke="#000000" points="303.9099,-952.4672 303.8286,-941.8727 297.2854,-950.2055 303.9099,-952.4672"/>
<text text-anchor="middle" x="305.2046" y="-962.7891" font-family="Arial" font-size="10.00" fill="#000000"> no</text>
</g>
<!-- tool speed\nspecified? -->
<g id="node6" class="node">
<title>tool speed\nspecified?</title>
<polygon fill="#00eeee" stroke="#000000" points="248.2046,-868.7891 186.2046,-838.7891 248.2046,-808.7891 310.2046,-838.7891 248.2046,-868.7891"/>
<text text-anchor="middle" x="248.2046" y="-841.7891" font-family="Arial" font-size="10.00" fill="#000000">tool speed</text>
<text text-anchor="middle" x="248.2046" y="-830.7891" font-family="Arial" font-size="10.00" fill="#000000">specified?</text>
</g>
<!-- printing or\ntraveling mode? -->
<g id="node11" class="node">
<title>printing or\ntraveling mode?</title>
<polygon fill="#00eeee" stroke="#000000" points="432.2046,-868.7891 346.2046,-838.7891 432.2046,-808.7891 518.2046,-838.7891 432.2046,-868.7891"/>
<text text-anchor="middle" x="432.2046" y="-841.7891" font-family="Arial" font-size="10.00" fill="#000000">printing or</text>
<text text-anchor="middle" x="432.2046" y="-830.7891" font-family="Arial" font-size="10.00" fill="#000000">traveling mode?</text>
</g>
<!-- tool speed\nspecified?&#45;&gt;printing or\ntraveling mode? -->
<g id="edge22" class="edge">
<title>tool speed\nspecified?:e&#45;&gt;printing or\ntraveling mode?:n</title>
<path fill="none" stroke="#000000" d="M310.2046,-838.7891C317.1185,-838.7891 315.9959,-845.2425 321.2046,-849.7891 331.7184,-858.9665 332.979,-864.3337 346.2046,-868.7891 378.6064,-879.7045 421.8553,-901.6765 430.6177,-878.8306"/>
<polygon fill="#d1eeee" stroke="#000000" points="434.1007,-879.2129 432.2046,-868.7891 427.1865,-878.1202 434.1007,-879.2129"/>
<text text-anchor="middle" x="328.2046" y="-865.7891" font-family="Arial" font-size="10.00" fill="#000000"> no</text>
</g>
<!-- set speed -->
<g id="node14" class="node">
<title>set speed</title>
<polygon fill="#caff70" stroke="#000000" points="339.7046,-761.7891 280.7046,-761.7891 280.7046,-725.7891 339.7046,-725.7891 339.7046,-761.7891"/>
<text text-anchor="middle" x="310.2046" y="-741.2891" font-family="Arial" font-size="10.00" fill="#000000">set speed</text>
</g>
<!-- tool speed\nspecified?&#45;&gt;set speed -->
<g id="edge21" class="edge">
<title>tool speed\nspecified?:s&#45;&gt;set speed</title>
<path fill="none" stroke="#000000" d="M248.2046,-808.7891C248.2046,-791.7417 259.5091,-777.4014 272.464,-766.5645"/>
<polygon fill="#d1eeee" stroke="#000000" points="274.8549,-769.1416 280.6572,-760.2769 270.5932,-763.5884 274.8549,-769.1416"/>
<text text-anchor="middle" x="267.7046" y="-782.7891" font-family="Arial" font-size="10.00" fill="#000000"> yes</text>
</g>
<!-- too much or little\nfilament used? -->
<g id="node7" class="node">
<title>too much or little\nfilament used?</title>
<polygon fill="#00eeee" stroke="#000000" points="409.2046,-471.25 320.2046,-441.25 409.2046,-411.25 498.2046,-441.25 409.2046,-471.25"/>
<text text-anchor="middle" x="409.2046" y="-444.25" font-family="Arial" font-size="10.00" fill="#000000">too much or little</text>
<text text-anchor="middle" x="409.2046" y="-433.25" font-family="Arial" font-size="10.00" fill="#000000">filament used?</text>
</g>
<!-- throw error -->
<g id="node25" class="node">
<title>throw error</title>
<polygon fill="#ff3030" stroke="#000000" points="475.7126,-207.7942 475.7126,-222.7058 452.5693,-233.25 419.8398,-233.25 396.6966,-222.7058 396.6966,-207.7942 419.8398,-197.25 452.5693,-197.25 475.7126,-207.7942"/>
<polygon fill="none" stroke="#000000" points="479.7129,-205.2211 479.7129,-225.2789 453.4378,-237.25 418.9714,-237.25 392.6962,-225.2789 392.6962,-205.2211 418.9714,-193.25 453.4378,-193.25 479.7129,-205.2211"/>
<text text-anchor="middle" x="436.2046" y="-212.75" font-family="Arial" font-size="10.00" fill="#000000">throw error</text>
</g>
<!-- too much or little\nfilament used?&#45;&gt;throw error -->
<g id="edge33" class="edge">
<title>too much or little\nfilament used?:s&#45;&gt;throw error</title>
<path fill="none" stroke="#000000" d="M409.2046,-411.25C409.2046,-353.1651 420.9855,-286.2958 428.9835,-247.5914"/>
<polygon fill="#d1eeee" stroke="#000000" points="432.4828,-247.9599 431.1261,-237.4523 425.6341,-246.5126 432.4828,-247.9599"/>
<text text-anchor="middle" x="429.7046" y="-330.75" font-family="Arial" font-size="10.00" fill="#000000"> yes</text>
</g>
<!-- calculate\nper&#45;axis\ntool speed -->
<g id="node31" class="node">
<title>calculate\nper&#45;axis\ntool speed</title>
<ellipse fill="#d1eeee" stroke="#000000" cx="577.2046" cy="-441.25" rx="43.6818" ry="28.9828"/>
<text text-anchor="middle" x="577.2046" y="-449.75" font-family="Arial" font-size="10.00" fill="#000000">calculate</text>
<text text-anchor="middle" x="577.2046" y="-438.75" font-family="Arial" font-size="10.00" fill="#000000">per&#45;axis</text>
<text text-anchor="middle" x="577.2046" y="-427.75" font-family="Arial" font-size="10.00" fill="#000000">tool speed</text>
</g>
<!-- too much or little\nfilament used?&#45;&gt;calculate\nper&#45;axis\ntool speed -->
<g id="edge34" class="edge">
<title>too much or little\nfilament used?:e&#45;&gt;calculate\nper&#45;axis\ntool speed</title>
<path fill="none" stroke="#000000" d="M498.2046,-441.25C505.1185,-441.25 502.8169,-449.6042 509.2046,-452.25 514.9532,-454.6311 517.0137,-452.8741 523.2046,-452.25 523.9542,-452.1744 524.7088,-452.0931 525.4674,-452.0064"/>
<polygon fill="#d1eeee" stroke="#000000" points="526.0478,-455.4595 535.4696,-450.6139 525.0825,-448.5263 526.0478,-455.4595"/>
<text text-anchor="middle" x="516.2046" y="-456.25" font-family="Arial" font-size="10.00" fill="#000000"> no</text>
</g>
<!-- is tool speed\nwithin printer\nlimits? -->
<g id="node8" class="node">
<title>is tool speed\nwithin printer\nlimits?</title>
<polygon fill="#00eeee" stroke="#000000" points="572.2046,-374.25 500.2046,-333.25 572.2046,-292.25 644.2046,-333.25 572.2046,-374.25"/>
<text text-anchor="middle" x="572.2046" y="-341.75" font-family="Arial" font-size="10.00" fill="#000000">is tool speed</text>
<text text-anchor="middle" x="572.2046" y="-330.75" font-family="Arial" font-size="10.00" fill="#000000">within printer</text>
<text text-anchor="middle" x="572.2046" y="-319.75" font-family="Arial" font-size="10.00" fill="#000000">limits?</text>
</g>
<!-- unretract\n(as needed) -->
<g id="node20" class="node">
<title>unretract\n(as needed)</title>
<polygon fill="#fffacd" stroke="#000000" points="642.703,-245.25 530.5558,-245.25 501.7062,-185.25 613.8534,-185.25 642.703,-245.25"/>
<text text-anchor="middle" x="572.2046" y="-218.25" font-family="Arial" font-size="10.00" fill="#000000">unretract</text>
<text text-anchor="middle" x="572.2046" y="-207.25" font-family="Arial" font-size="10.00" fill="#000000">(as needed)</text>
</g>
<!-- is tool speed\nwithin printer\nlimits?&#45;&gt;unretract\n(as needed) -->
<g id="edge37" class="edge">
<title>is tool speed\nwithin printer\nlimits?&#45;&gt;unretract\n(as needed)</title>
<path fill="none" stroke="#000000" d="M572.2046,-291.9793C572.2046,-280.276 572.2046,-267.5467 572.2046,-255.8816"/>
<polygon fill="#d1eeee" stroke="#000000" points="575.7047,-255.5277 572.2046,-245.5278 568.7047,-255.5278 575.7047,-255.5277"/>
<text text-anchor="middle" x="581.7046" y="-266.25" font-family="Arial" font-size="10.00" fill="#000000"> yes</text>
</g>
<!-- is tool speed\nwithin printer\nlimits?&#45;&gt;throw error -->
<g id="edge36" class="edge">
<title>is tool speed\nwithin printer\nlimits?:w&#45;&gt;throw error</title>
<path fill="none" stroke="#000000" d="M500.2046,-333.25C461.1318,-333.25 445.7873,-282.6394 439.8499,-247.7087"/>
<polygon fill="#d1eeee" stroke="#000000" points="443.2532,-246.8071 438.2934,-237.4449 436.3324,-247.8567 443.2532,-246.8071"/>
<text text-anchor="middle" x="452.2046" y="-266.25" font-family="Arial" font-size="10.00" fill="#000000"> no</text>
</g>
<!-- using\nretraction? -->
<g id="node9" class="node">
<title>using\nretraction?</title>
<polygon fill="#00eeee" stroke="#000000" points="763.2046,-148.25 701.2046,-118.25 763.2046,-88.25 825.2046,-118.25 763.2046,-148.25"/>
<text text-anchor="middle" x="763.2046" y="-121.25" font-family="Arial" font-size="10.00" fill="#000000">using</text>
<text text-anchor="middle" x="763.2046" y="-110.25" font-family="Arial" font-size="10.00" fill="#000000">retraction?</text>
</g>
<!-- retract -->
<g id="node22" class="node">
<title>retract</title>
<polygon fill="#fffacd" stroke="#000000" points="763.1567,-38.625 702.7834,-38.625 687.2525,-2.625 747.6258,-2.625 763.1567,-38.625"/>
<text text-anchor="middle" x="725.2046" y="-18.125" font-family="Arial" font-size="10.00" fill="#000000">retract</text>
</g>
<!-- using\nretraction?&#45;&gt;retract -->
<g id="edge40" class="edge">
<title>using\nretraction?:s&#45;&gt;retract</title>
<path fill="none" stroke="#000000" d="M763.2046,-88.25C763.2046,-73.2953 756.0544,-58.5901 747.9572,-46.7319"/>
<polygon fill="#d1eeee" stroke="#000000" points="750.7373,-44.6046 741.9825,-38.6376 745.1053,-48.7617 750.7373,-44.6046"/>
<text text-anchor="middle" x="768.7046" y="-62.25" font-family="Arial" font-size="10.00" fill="#000000"> yes</text>
</g>
<!-- update internal\nposition -->
<g id="node23" class="node">
<title>update internal\nposition</title>
<path fill="#d1eeee" stroke="#000000" d="M878.2046,-37.6029C878.2046,-39.6847 860.2759,-41.3758 838.2046,-41.3758 816.1332,-41.3758 798.2046,-39.6847 798.2046,-37.6029 798.2046,-37.6029 798.2046,-3.6471 798.2046,-3.6471 798.2046,-1.5653 816.1332,.1258 838.2046,.1258 860.2759,.1258 878.2046,-1.5653 878.2046,-3.6471 878.2046,-3.6471 878.2046,-37.6029 878.2046,-37.6029"/>
<path fill="none" stroke="#000000" d="M878.2046,-37.6029C878.2046,-35.5211 860.2759,-33.83 838.2046,-33.83 816.1332,-33.83 798.2046,-35.5211 798.2046,-37.6029"/>
<text text-anchor="middle" x="838.2046" y="-23.625" font-family="Arial" font-size="10.00" fill="#000000">update internal</text>
<text text-anchor="middle" x="838.2046" y="-12.625" font-family="Arial" font-size="10.00" fill="#000000">position</text>
</g>
<!-- using\nretraction?&#45;&gt;update internal\nposition -->
<g id="edge42" class="edge">
<title>using\nretraction?:e&#45;&gt;update internal\nposition:n</title>
<path fill="none" stroke="#000000" d="M825.2046,-118.25C856.5218,-118.25 841.9061,-83.8136 838.7529,-51.5885"/>
<polygon fill="#d1eeee" stroke="#000000" points="842.2293,-51.0506 838.2046,-41.25 835.2392,-51.4214 842.2293,-51.0506"/>
<text text-anchor="middle" x="848.2046" y="-62.25" font-family="Arial" font-size="10.00" fill="#000000"> no</text>
</g>
<!-- using auto\nprinting mode? -->
<g id="node10" class="node">
<title>using auto\nprinting mode?</title>
<polygon fill="#00eeee" stroke="#000000" points="420.2046,-688.7891 340.2046,-658.7891 420.2046,-628.7891 500.2046,-658.7891 420.2046,-688.7891"/>
<text text-anchor="middle" x="420.2046" y="-661.7891" font-family="Arial" font-size="10.00" fill="#000000">using auto</text>
<text text-anchor="middle" x="420.2046" y="-650.7891" font-family="Arial" font-size="10.00" fill="#000000">printing mode?</text>
</g>
<!-- calculate new\ntool position\n(without filament\nlength) -->
<g id="node29" class="node">
<title>calculate new\ntool position\n(without filament\nlength)</title>
<ellipse fill="#d1eeee" stroke="#000000" cx="261.2046" cy="-545.0196" rx="62.4516" ry="36.5405"/>
<text text-anchor="middle" x="261.2046" y="-559.0196" font-family="Arial" font-size="10.00" fill="#000000">calculate new</text>
<text text-anchor="middle" x="261.2046" y="-548.0196" font-family="Arial" font-size="10.00" fill="#000000">tool position</text>
<text text-anchor="middle" x="261.2046" y="-537.0196" font-family="Arial" font-size="10.00" fill="#000000">(without filament</text>
<text text-anchor="middle" x="261.2046" y="-526.0196" font-family="Arial" font-size="10.00" fill="#000000">length)</text>
</g>
<!-- using auto\nprinting mode?&#45;&gt;calculate new\ntool position\n(without filament\nlength) -->
<g id="edge28" class="edge">
<title>using auto\nprinting mode?:s&#45;&gt;calculate new\ntool position\n(without filament\nlength):n</title>
<path fill="none" stroke="#000000" d="M420.2046,-628.7891C420.2046,-558.9857 277.5319,-645.3757 262.4844,-592.0458"/>
<polygon fill="#d1eeee" stroke="#000000" points="265.916,-591.2787 261.2046,-581.7891 258.9698,-592.1456 265.916,-591.2787"/>
<text text-anchor="middle" x="422.7046" y="-602.7891" font-family="Arial" font-size="10.00" fill="#000000"> yes</text>
</g>
<!-- calculate new\ntool position\n(with filament\nlength) -->
<g id="node30" class="node">
<title>calculate new\ntool position\n(with filament\nlength)</title>
<ellipse fill="#d1eeee" stroke="#000000" cx="570.2046" cy="-545.0196" rx="53.9813" ry="36.5405"/>
<text text-anchor="middle" x="570.2046" y="-559.0196" font-family="Arial" font-size="10.00" fill="#000000">calculate new</text>
<text text-anchor="middle" x="570.2046" y="-548.0196" font-family="Arial" font-size="10.00" fill="#000000">tool position</text>
<text text-anchor="middle" x="570.2046" y="-537.0196" font-family="Arial" font-size="10.00" fill="#000000">(with filament</text>
<text text-anchor="middle" x="570.2046" y="-526.0196" font-family="Arial" font-size="10.00" fill="#000000">length)</text>
</g>
<!-- using auto\nprinting mode?&#45;&gt;calculate new\ntool position\n(with filament\nlength) -->
<g id="edge29" class="edge">
<title>using auto\nprinting mode?:e&#45;&gt;calculate new\ntool position\n(with filament\nlength)</title>
<path fill="none" stroke="#000000" d="M500.2046,-658.7891C533.4772,-658.7891 551.4417,-623.0549 560.806,-591.6402"/>
<polygon fill="#d1eeee" stroke="#000000" points="564.2782,-592.2132 563.5526,-581.6432 557.5283,-590.3586 564.2782,-592.2132"/>
<text text-anchor="middle" x="564.2046" y="-602.7891" font-family="Arial" font-size="10.00" fill="#000000"> no</text>
</g>
<!-- set speed to\nprinting speed -->
<g id="node12" class="node">
<title>set speed to\nprinting speed</title>
<polygon fill="#caff70" stroke="#000000" points="556.7046,-761.7891 479.7046,-761.7891 479.7046,-725.7891 556.7046,-725.7891 556.7046,-761.7891"/>
<text text-anchor="middle" x="518.2046" y="-746.7891" font-family="Arial" font-size="10.00" fill="#000000">set speed to</text>
<text text-anchor="middle" x="518.2046" y="-735.7891" font-family="Arial" font-size="10.00" fill="#000000">printing speed</text>
</g>
<!-- printing or\ntraveling mode?&#45;&gt;set speed to\nprinting speed -->
<g id="edge24" class="edge">
<title>printing or\ntraveling mode?:e&#45;&gt;set speed to\nprinting speed</title>
<path fill="none" stroke="#000000" d="M518.2046,-838.7891C545.2326,-838.7891 537.6573,-799.8605 528.7051,-771.8425"/>
<polygon fill="#d1eeee" stroke="#000000" points="531.9301,-770.454 525.4061,-762.1061 525.3004,-772.7004 531.9301,-770.454"/>
<text text-anchor="middle" x="550.7046" y="-782.7891" font-family="Arial" font-size="10.00" fill="#000000"> printing</text>
</g>
<!-- set speed to\ntraveling speed -->
<g id="node13" class="node">
<title>set speed to\ntraveling speed</title>
<polygon fill="#caff70" stroke="#000000" points="461.7046,-761.7891 378.7046,-761.7891 378.7046,-725.7891 461.7046,-725.7891 461.7046,-761.7891"/>
<text text-anchor="middle" x="420.2046" y="-746.7891" font-family="Arial" font-size="10.00" fill="#000000">set speed to</text>
<text text-anchor="middle" x="420.2046" y="-735.7891" font-family="Arial" font-size="10.00" fill="#000000">traveling speed</text>
</g>
<!-- printing or\ntraveling mode?&#45;&gt;set speed to\ntraveling speed -->
<g id="edge23" class="edge">
<title>printing or\ntraveling mode?:s&#45;&gt;set speed to\ntraveling speed</title>
<path fill="none" stroke="#000000" d="M432.2046,-808.7891C432.2046,-796.4889 430.1009,-783.0937 427.6551,-771.6769"/>
<polygon fill="#d1eeee" stroke="#000000" points="431.0404,-770.7818 425.3633,-761.8363 424.2228,-772.3696 431.0404,-770.7818"/>
<text text-anchor="middle" x="450.2046" y="-782.7891" font-family="Arial" font-size="10.00" fill="#000000"> traveling</text>
</g>
<!-- set speed to\nprinting speed&#45;&gt;using auto\nprinting mode? -->
<g id="edge26" class="edge">
<title>set speed to\nprinting speed&#45;&gt;using auto\nprinting mode?</title>
<path fill="none" stroke="#000000" d="M497.4213,-725.7628C484.3371,-714.4142 467.181,-699.534 452.3639,-686.6824"/>
<polygon fill="#d1eeee" stroke="#000000" points="454.2612,-683.695 444.4136,-679.7867 449.6747,-688.983 454.2612,-683.695"/>
</g>
<!-- set speed to\ntraveling speed&#45;&gt;using auto\nprinting mode? -->
<g id="edge27" class="edge">
<title>set speed to\ntraveling speed&#45;&gt;using auto\nprinting mode?</title>
<path fill="none" stroke="#000000" d="M420.2046,-725.7628C420.2046,-717.8895 420.2046,-708.3163 420.2046,-698.8999"/>
<polygon fill="#d1eeee" stroke="#000000" points="423.7047,-698.8316 420.2046,-688.8317 416.7047,-698.8317 423.7047,-698.8316"/>
</g>
<!-- set speed&#45;&gt;using auto\nprinting mode? -->
<g id="edge25" class="edge">
<title>set speed&#45;&gt;using auto\nprinting mode?</title>
<path fill="none" stroke="#000000" d="M333.5328,-725.7628C348.7079,-714.0366 368.7627,-698.5397 385.7588,-685.4063"/>
<polygon fill="#d1eeee" stroke="#000000" points="388.0491,-688.0598 393.8219,-679.1757 383.7689,-682.5208 388.0491,-688.0598"/>
</g>
<!-- printing\nmode (auto)&#45;&gt;no retraction\nspecified, no\nextrusion position -->
<g id="edge6" class="edge">
<title>printing\nmode (auto)&#45;&gt;no retraction\nspecified, no\nextrusion position</title>
<path fill="none" stroke="#000000" d="M204.2046,-1225.6429C204.2046,-1218.0252 204.2046,-1208.7079 204.2046,-1199.0966"/>
<polygon fill="#d1eeee" stroke="#000000" points="207.7047,-1199.033 204.2046,-1189.0331 200.7047,-1199.0331 207.7047,-1199.033"/>
</g>
<!-- printing\nmode (manual) -->
<g id="node16" class="node">
<title>printing\nmode (manual)</title>
<polygon fill="#caff70" stroke="#000000" points="461.7046,-1261.7891 380.7046,-1261.7891 380.7046,-1225.7891 461.7046,-1225.7891 461.7046,-1261.7891"/>
<text text-anchor="middle" x="421.2046" y="-1246.7891" font-family="Arial" font-size="10.00" fill="#000000">printing</text>
<text text-anchor="middle" x="421.2046" y="-1235.7891" font-family="Arial" font-size="10.00" fill="#000000">mode (manual)</text>
</g>
<!-- printing\nmode (manual)&#45;&gt;not using\nretraction -->
<g id="edge18" class="edge">
<title>printing\nmode (manual)&#45;&gt;not using\nretraction</title>
<path fill="none" stroke="#000000" d="M417.8756,-1225.5877C409.9361,-1183.3862 388.427,-1075.8226 360.2046,-988.7891 355.902,-975.5205 356.0313,-971.3351 348.2046,-959.7891 345.7719,-956.2003 342.9374,-952.6824 339.9398,-949.3367"/>
<polygon fill="#d1eeee" stroke="#000000" points="342.2218,-946.6609 332.7618,-941.8902 337.182,-951.5189 342.2218,-946.6609"/>
</g>
<!-- traveling mode&#45;&gt;not using\nretraction -->
<g id="edge15" class="edge">
<title>traveling mode&#45;&gt;not using\nretraction</title>
<path fill="none" stroke="#000000" d="M327.4995,-1225.5775C338.9579,-1183.3547 363.4499,-1075.7491 343.2046,-988.7891 340.152,-975.6772 334.0583,-962.1673 328.0001,-950.8841"/>
<polygon fill="#d1eeee" stroke="#000000" points="330.9454,-948.9814 322.987,-941.9875 324.8469,-952.4178 330.9454,-948.9814"/>
</g>
<!-- using\nretraction&#45;&gt;tool speed\nspecified? -->
<g id="edge20" class="edge">
<title>using\nretraction&#45;&gt;tool speed\nspecified?</title>
<path fill="none" stroke="#000000" d="M213.5358,-905.7628C218.6315,-895.9188 225.1028,-883.4176 231.071,-871.8881"/>
<polygon fill="#d1eeee" stroke="#000000" points="234.2248,-873.409 235.7136,-862.9193 228.0083,-870.1911 234.2248,-873.409"/>
</g>
<!-- not using\nretraction&#45;&gt;tool speed\nspecified? -->
<g id="edge19" class="edge">
<title>not using\nretraction&#45;&gt;tool speed\nspecified?</title>
<path fill="none" stroke="#000000" d="M297.8439,-905.7628C289.9789,-895.1513 279.8253,-881.452 270.7523,-869.2107"/>
<polygon fill="#d1eeee" stroke="#000000" points="273.4515,-866.9745 264.6851,-861.0247 267.8278,-871.1427 273.4515,-866.9745"/>
</g>
<!-- send GCode to\nprinter -->
<g id="node21" class="node">
<title>send GCode to\nprinter</title>
<polygon fill="#fffacd" stroke="#000000" points="848.2321,-245.25 712.9723,-245.25 678.1771,-185.25 813.4368,-185.25 848.2321,-245.25"/>
<text text-anchor="middle" x="763.2046" y="-218.25" font-family="Arial" font-size="10.00" fill="#000000">send GCode to</text>
<text text-anchor="middle" x="763.2046" y="-207.25" font-family="Arial" font-size="10.00" fill="#000000">printer</text>
</g>
<!-- unretract\n(as needed)&#45;&gt;send GCode to\nprinter -->
<g id="edge38" class="edge">
<title>unretract\n(as needed)&#45;&gt;send GCode to\nprinter</title>
<path fill="none" stroke="#000000" d="M628.5347,-215.25C647.4117,-215.25 666.2887,-215.25 685.1656,-215.25"/>
<polygon fill="#d1eeee" stroke="#000000" points="685.3436,-218.7501 695.3436,-215.25 685.3435,-211.7501 685.3436,-218.7501"/>
</g>
<!-- send GCode to\nprinter&#45;&gt;using\nretraction? -->
<g id="edge39" class="edge">
<title>send GCode to\nprinter&#45;&gt;using\nretraction?</title>
<path fill="none" stroke="#000000" d="M763.2046,-185.0903C763.2046,-176.696 763.2046,-167.4421 763.2046,-158.5649"/>
<polygon fill="#d1eeee" stroke="#000000" points="766.7047,-158.391 763.2046,-148.391 759.7047,-158.3911 766.7047,-158.391"/>
</g>
<!-- retract&#45;&gt;update internal\nposition -->
<g id="edge41" class="edge">
<title>retract&#45;&gt;update internal\nposition</title>
<path fill="none" stroke="#000000" d="M755.6616,-20.625C766.3313,-20.625 777.001,-20.625 787.6707,-20.625"/>
<polygon fill="#d1eeee" stroke="#000000" points="787.9004,-24.1251 797.9004,-20.625 787.9004,-17.1251 787.9004,-24.1251"/>
</g>
<!-- finished -->
<g id="node26" class="node">
<title>finished</title>
<polygon fill="#f08080" stroke="#000000" points="976.9216,-13.1692 976.9216,-28.0808 958.3422,-38.625 932.067,-38.625 913.4875,-28.0808 913.4875,-13.1692 932.067,-2.625 958.3422,-2.625 976.9216,-13.1692"/>
<text text-anchor="middle" x="945.2046" y="-18.125" font-family="Arial" font-size="10.00" fill="#000000">finished</text>
</g>
<!-- update internal\nposition&#45;&gt;finished -->
<g id="edge43" class="edge">
<title>update internal\nposition&#45;&gt;finished</title>
<path fill="none" stroke="#000000" d="M878.3296,-20.625C886.625,-20.625 894.9204,-20.625 903.2159,-20.625"/>
<polygon fill="#d1eeee" stroke="#000000" points="903.3345,-24.1251 913.3345,-20.625 903.3344,-17.1251 903.3345,-24.1251"/>
</g>
<!-- no retraction\nspecified, no\nextrusion position&#45;&gt;using automatic\nretraction? -->
<g id="edge7" class="edge">
<title>no retraction\nspecified, no\nextrusion position&#45;&gt;using automatic\nretraction?</title>
<path fill="none" stroke="#000000" d="M204.2046,-1095.5991C204.2046,-1083.6753 204.2046,-1070.9536 204.2046,-1059.3642"/>
<polygon fill="#d1eeee" stroke="#000000" points="207.7047,-1059.0945 204.2046,-1049.0945 200.7047,-1059.0945 207.7047,-1059.0945"/>
<text text-anchor="middle" x="214.2046" y="-1069.7891" font-family="Arial" font-size="10.00" fill="#000000"> true</text>
</g>
<!-- no retraction\nspecified, no\nextrusion position&#45;&gt;not using\nretraction -->
<g id="edge8" class="edge">
<title>no retraction\nspecified, no\nextrusion position&#45;&gt;not using\nretraction</title>
<path fill="none" stroke="#000000" d="M251.1914,-1106.9077C268.9714,-1091.0722 287.6801,-1070.966 299.2046,-1048.7891 314.9318,-1018.5247 315.9183,-978.5677 314.3071,-952.0673"/>
<polygon fill="#d1eeee" stroke="#000000" points="317.7847,-951.6414 313.525,-941.9406 310.8055,-952.1805 317.7847,-951.6414"/>
<text text-anchor="middle" x="326.7046" y="-1016.2891" font-family="Arial" font-size="10.00" fill="#000000"> false</text>
</g>
<!-- retraction\nargument is:&#45;&gt;using\nretraction -->
<g id="edge10" class="edge">
<title>retraction\nargument is:&#45;&gt;using\nretraction</title>
<path fill="none" stroke="#000000" d="M78.8099,-1001.143C103.5832,-985.8607 139.596,-963.6451 166.6785,-946.9383"/>
<polygon fill="#d1eeee" stroke="#000000" points="168.8183,-949.7307 175.4916,-941.5017 165.1431,-943.7731 168.8183,-949.7307"/>
<text text-anchor="middle" x="155.2046" y="-962.7891" font-family="Arial" font-size="10.00" fill="#000000"> true</text>
</g>
<!-- retraction\nargument is:&#45;&gt;not using\nretraction -->
<g id="edge11" class="edge">
<title>retraction\nargument is:&#45;&gt;not using\nretraction</title>
<path fill="none" stroke="#000000" d="M79.7371,-1001.4689C88.9213,-996.7198 99.253,-992.0007 109.2046,-988.7891 158.8555,-972.7654 175.7975,-987.5497 225.2046,-970.7891 242.4177,-964.9498 260.2406,-955.7995 275.1669,-947.1184"/>
<polygon fill="#d1eeee" stroke="#000000" points="277.266,-949.9415 284.0551,-941.8076 273.6755,-943.9324 277.266,-949.9415"/>
<text text-anchor="middle" x="261.7046" y="-962.7891" font-family="Arial" font-size="10.00" fill="#000000"> false</text>
</g>
<!-- clear current\nretraction&#45;&gt;printing\nmode (manual) -->
<g id="edge17" class="edge">
<title>clear current\nretraction&#45;&gt;printing\nmode (manual)</title>
<path fill="none" stroke="#000000" d="M419.699,-1308.6912C419.954,-1297.6962 420.2686,-1284.1341 420.5442,-1272.2551"/>
<polygon fill="#d1eeee" stroke="#000000" points="424.0505,-1272.0196 420.7835,-1261.9411 417.0524,-1271.8572 424.0505,-1272.0196"/>
</g>
<!-- calculate\nnew filament\nposition, update\ninternally -->
<g id="node32" class="node">
<title>calculate\nnew filament\nposition, update\ninternally</title>
<ellipse fill="#d1eeee" stroke="#000000" cx="420.2046" cy="-545.0196" rx="60.623" ry="36.5405"/>
<text text-anchor="middle" x="420.2046" y="-559.0196" font-family="Arial" font-size="10.00" fill="#000000">calculate</text>
<text text-anchor="middle" x="420.2046" y="-548.0196" font-family="Arial" font-size="10.00" fill="#000000">new filament</text>
<text text-anchor="middle" x="420.2046" y="-537.0196" font-family="Arial" font-size="10.00" fill="#000000">position, update</text>
<text text-anchor="middle" x="420.2046" y="-526.0196" font-family="Arial" font-size="10.00" fill="#000000">internally</text>
</g>
<!-- calculate new\ntool position\n(without filament\nlength)&#45;&gt;calculate\nnew filament\nposition, update\ninternally -->
<g id="edge31" class="edge">
<title>calculate new\ntool position\n(without filament\nlength)&#45;&gt;calculate\nnew filament\nposition, update\ninternally</title>
<path fill="none" stroke="#000000" d="M323.6245,-545.0196C332.0285,-545.0196 340.4325,-545.0196 348.8365,-545.0196"/>
<polygon fill="#d1eeee" stroke="#000000" points="349.0875,-548.5197 359.0875,-545.0196 349.0875,-541.5197 349.0875,-548.5197"/>
</g>
<!-- calculate new\ntool position\n(with filament\nlength)&#45;&gt;calculate\nper&#45;axis\ntool speed -->
<g id="edge30" class="edge">
<title>calculate new\ntool position\n(with filament\nlength)&#45;&gt;calculate\nper&#45;axis\ntool speed</title>
<path fill="none" stroke="#000000" d="M572.6922,-508.1421C573.291,-499.2656 573.9331,-489.7478 574.5396,-480.7567"/>
<polygon fill="#d1eeee" stroke="#000000" points="578.0495,-480.7268 575.2305,-470.5139 571.0653,-480.2556 578.0495,-480.7268"/>
</g>
<!-- calculate\nper&#45;axis\ntool speed&#45;&gt;is tool speed\nwithin printer\nlimits? -->
<g id="edge35" class="edge">
<title>calculate\nper&#45;axis\ntool speed&#45;&gt;is tool speed\nwithin printer\nlimits?</title>
<path fill="none" stroke="#000000" d="M575.8515,-412.0236C575.4437,-403.2144 574.9838,-393.2821 574.5316,-383.5137"/>
<polygon fill="#d1eeee" stroke="#000000" points="578.0244,-383.2746 574.0656,-373.4472 571.0319,-383.5984 578.0244,-383.2746"/>
</g>
<!-- calculate\nnew filament\nposition, update\ninternally&#45;&gt;too much or little\nfilament used? -->
<g id="edge32" class="edge">
<title>calculate\nnew filament\nposition, update\ninternally&#45;&gt;too much or little\nfilament used?</title>
<path fill="none" stroke="#000000" d="M416.2954,-508.1421C415.3442,-499.1691 414.3236,-489.5408 413.3614,-480.4637"/>
<polygon fill="#d1eeee" stroke="#000000" points="416.8414,-480.0892 412.3067,-470.5139 409.8804,-480.8271 416.8414,-480.0892"/>
</g>
</g>
</svg>
