<?xml version="1.0" encoding="UTF-8" standalone="no"?>
<!DOCTYPE svg PUBLIC "-//W3C//DTD SVG 1.1//EN"
 "http://www.w3.org/Graphics/SVG/1.1/DTD/svg11.dtd">
<!-- Generated by graphviz version 2.40.1 (20161225.0304)
 -->
<!-- Title: movement Pages: 1 -->
<svg width="801pt" height="1728pt"
 viewBox="0.00 0.00 800.86 1728.22" xmlns="http://www.w3.org/2000/svg" xmlns:xlink="http://www.w3.org/1999/xlink">
<g id="graph0" class="graph" transform="scale(1 1) rotate(0) translate(4 1724.2155)">
<title>movement</title>
<polygon fill="#ffffff" stroke="transparent" points="-4,4 -4,-1724.2155 796.8582,-1724.2155 796.8582,4 -4,4"/>
<!-- start -->
<g id="node1" class="node">
<title>start</title>
<polygon fill="#d1eeee" stroke="#000000" points="111.9532,-1696.6532 160,-1684.2155 208.0468,-1696.6532 208.002,-1716.7778 111.998,-1716.7778 111.9532,-1696.6532"/>
<text text-anchor="start" x="135" y="-1699.7155" font-family="Arial" font-size="10.00" fill="#000000">extrudeto( )</text>
</g>
<!-- retraction\nspecified? -->
<g id="node2" class="node">
<title>retraction\nspecified?</title>
<polygon fill="#00eeee" stroke="#000000" points="61,-1636.2155 0,-1606.2155 61,-1576.2155 122,-1606.2155 61,-1636.2155"/>
<text text-anchor="middle" x="61" y="-1609.2155" font-family="Arial" font-size="10.00" fill="#000000">retraction</text>
<text text-anchor="middle" x="61" y="-1598.2155" font-family="Arial" font-size="10.00" fill="#000000">specified?</text>
</g>
<!-- start&#45;&gt;retraction\nspecified? -->
<g id="edge1" class="edge">
<title>start:s&#45;&gt;retraction\nspecified?:n</title>
<path fill="none" stroke="#000000" d="M160,-1684.2155C160,-1639.3278 76.576,-1677.6087 62.8893,-1646.3658"/>
<polygon fill="#d1eeee" stroke="#000000" points="66.2708,-1645.4062 61,-1636.2155 59.389,-1646.6871 66.2708,-1645.4062"/>
</g>
<!-- extrusion\nposition\nspecified? -->
<g id="node3" class="node">
<title>extrusion\nposition\nspecified?</title>
<polygon fill="#00eeee" stroke="#000000" points="267,-1647.2155 206,-1606.2155 267,-1565.2155 328,-1606.2155 267,-1647.2155"/>
<text text-anchor="middle" x="267" y="-1614.7155" font-family="Arial" font-size="10.00" fill="#000000">extrusion</text>
<text text-anchor="middle" x="267" y="-1603.7155" font-family="Arial" font-size="10.00" fill="#000000">position</text>
<text text-anchor="middle" x="267" y="-1592.7155" font-family="Arial" font-size="10.00" fill="#000000">specified?</text>
</g>
<!-- start&#45;&gt;extrusion\nposition\nspecified? -->
<g id="edge2" class="edge">
<title>start:s&#45;&gt;extrusion\nposition\nspecified?:n</title>
<path fill="none" stroke="#000000" d="M160,-1684.2155C160,-1638.0247 250.1653,-1687.8604 264.9581,-1657.4239"/>
<polygon fill="#d1eeee" stroke="#000000" points="268.4706,-1657.7078 267,-1647.2155 261.6065,-1656.3348 268.4706,-1657.7078"/>
</g>
<!-- no retraction\nspecified, no\nextrusion position -->
<g id="node6" class="node">
<title>no retraction\nspecified, no\nextrusion position</title>
<polygon fill="#00eeee" stroke="#000000" points="207,-1177.7891 109,-1136.7891 207,-1095.7891 305,-1136.7891 207,-1177.7891"/>
<text text-anchor="middle" x="207" y="-1145.2891" font-family="Arial" font-size="10.00" fill="#000000">no retraction</text>
<text text-anchor="middle" x="207" y="-1134.2891" font-family="Arial" font-size="10.00" fill="#000000">specified, no</text>
<text text-anchor="middle" x="207" y="-1123.2891" font-family="Arial" font-size="10.00" fill="#000000">extrusion position?</text>
</g>
<!-- retraction\nspecified?&#45;&gt;no retraction\nspecified, no\nextrusion position -->
<g id="edge4" class="edge">
<title>retraction\nspecified?:e&#45;&gt;no retraction\nspecified, no\nextrusion position</title>
<path fill="none" stroke="#000000" d="M122,-1606.2155C179.3333,-1606.2155 122,-1534.5488 122,-1477.2155 122,-1477.2155 122,-1477.2155 122,-1232.7891 122,-1206.7674 139.7226,-1184.4936 158.9828,-1167.9705"/>
<polygon fill="#d1eeee" stroke="#000000" points="161.4293,-1170.4927 166.989,-1161.4737 157.0185,-1165.0572 161.4293,-1170.4927"/>
<text text-anchor="middle" x="129" y="-1316.5023" font-family="Arial" font-size="10.00" fill="#000000"> no</text>
</g>
<!-- retraction\nargument is: -->
<g id="node27" class="node">
<title>retraction\nargument is:</title>
<ellipse fill="#d1eeee" stroke="#000000" cx="53" cy="-1018.7891" rx="50.41" ry="21.4286"/>
<text text-anchor="middle" x="53" y="-1021.7891" font-family="Arial" font-size="10.00" fill="#000000">retraction</text>
<text text-anchor="middle" x="53" y="-1010.7891" font-family="Arial" font-size="10.00" fill="#000000">argument is:</text>
</g>
<!-- retraction\nspecified?&#45;&gt;retraction\nargument is: -->
<g id="edge3" class="edge">
<title>retraction\nspecified?:s&#45;&gt;retraction\nargument is:</title>
<path fill="none" stroke="#000000" d="M61,-1576.2155C61,-1532.1796 57,-1521.2514 57,-1477.2155 57,-1477.2155 57,-1477.2155 57,-1136.7891 57,-1107.4595 55.7504,-1074.0528 54.6481,-1050.2893"/>
<polygon fill="#d1eeee" stroke="#000000" points="58.1344,-1049.9186 54.157,-1040.0987 51.1425,-1050.2557 58.1344,-1049.9186"/>
<text text-anchor="middle" x="66.5" y="-1271.7891" font-family="Arial" font-size="10.00" fill="#000000"> yes</text>
</g>
<!-- extrusion position\nis current\nposition? -->
<g id="node4" class="node">
<title>extrusion position\nis current\nposition?</title>
<polygon fill="#00eeee" stroke="#000000" points="327,-1518.2155 234,-1477.2155 327,-1436.2155 420,-1477.2155 327,-1518.2155"/>
<text text-anchor="middle" x="327" y="-1485.7155" font-family="Arial" font-size="10.00" fill="#000000">extrusion position</text>
<text text-anchor="middle" x="327" y="-1474.7155" font-family="Arial" font-size="10.00" fill="#000000">is current</text>
<text text-anchor="middle" x="327" y="-1463.7155" font-family="Arial" font-size="10.00" fill="#000000">position?</text>
</g>
<!-- extrusion\nposition\nspecified?&#45;&gt;extrusion position\nis current\nposition? -->
<g id="edge14" class="edge">
<title>extrusion\nposition\nspecified?:s&#45;&gt;extrusion position\nis current\nposition?:n</title>
<path fill="none" stroke="#000000" d="M267,-1565.2155C267,-1535.311 313.7615,-1547.9769 324.7212,-1528.0498"/>
<polygon fill="#d1eeee" stroke="#000000" points="328.1522,-1528.7475 327,-1518.2155 321.3329,-1527.1673 328.1522,-1528.7475"/>
<text text-anchor="middle" x="324.5" y="-1539.2155" font-family="Arial" font-size="10.00" fill="#000000"> yes</text>
</g>
<!-- unretract\n(as needed) -->
<g id="node21" class="node">
<title>unretract\n(as needed)</title>
<polygon fill="#fffacd" stroke="#000000" points="277.4984,-1418.2155 165.3512,-1418.2155 136.5016,-1358.2155 248.6488,-1358.2155 277.4984,-1418.2155"/>
<text text-anchor="middle" x="207" y="-1391.2155" font-family="Arial" font-size="10.00" fill="#000000">unretract</text>
<text text-anchor="middle" x="207" y="-1380.2155" font-family="Arial" font-size="10.00" fill="#000000">(as needed)</text>
</g>
<!-- extrusion\nposition\nspecified?&#45;&gt;unretract\n(as needed) -->
<g id="edge5" class="edge">
<title>extrusion\nposition\nspecified?:w&#45;&gt;unretract\n(as needed)</title>
<path fill="none" stroke="#000000" d="M206,-1606.2155C135.5857,-1606.2155 168.0461,-1491.0768 191.0437,-1428.1525"/>
<polygon fill="#d1eeee" stroke="#000000" points="194.4184,-1429.1201 194.6362,-1418.5275 187.8603,-1426.6722 194.4184,-1429.1201"/>
<text text-anchor="middle" x="170" y="-1539.2155" font-family="Arial" font-size="10.00" fill="#000000"> no</text>
</g>
<!-- traveling mode -->
<g id="node18" class="node">
<title>traveling mode</title>
<polygon fill="#caff70" stroke="#000000" points="365,-1250.7891 285,-1250.7891 285,-1214.7891 365,-1214.7891 365,-1250.7891"/>
<text text-anchor="middle" x="325" y="-1230.2891" font-family="Arial" font-size="10.00" fill="#000000">traveling mode</text>
</g>
<!-- extrusion position\nis current\nposition?&#45;&gt;traveling mode -->
<g id="edge15" class="edge">
<title>extrusion position\nis current\nposition?:s&#45;&gt;traveling mode</title>
<path fill="none" stroke="#000000" d="M327,-1436.2155C327,-1373.7468 326.0453,-1300.4928 325.4551,-1261.1759"/>
<polygon fill="#d1eeee" stroke="#000000" points="328.9525,-1260.9687 325.2994,-1251.0236 321.9533,-1261.0761 328.9525,-1260.9687"/>
<text text-anchor="middle" x="335.5" y="-1316.5023" font-family="Arial" font-size="10.00" fill="#000000"> yes</text>
</g>
<!-- clear current\nretraction -->
<g id="node28" class="node">
<title>clear current\nretraction</title>
<ellipse fill="#d1eeee" stroke="#000000" cx="421" cy="-1319.0023" rx="50.41" ry="21.4286"/>
<text text-anchor="middle" x="421" y="-1322.0023" font-family="Arial" font-size="10.00" fill="#000000">clear current</text>
<text text-anchor="middle" x="421" y="-1311.0023" font-family="Arial" font-size="10.00" fill="#000000">retraction</text>
</g>
<!-- extrusion position\nis current\nposition?&#45;&gt;clear current\nretraction -->
<g id="edge17" class="edge">
<title>extrusion position\nis current\nposition?:e&#45;&gt;clear current\nretraction</title>
<path fill="none" stroke="#000000" d="M420,-1477.2155C470.5411,-1477.2155 448.9463,-1395.4832 432.8011,-1349.5081"/>
<polygon fill="#d1eeee" stroke="#000000" points="436.0589,-1348.2248 429.3658,-1340.0118 429.4764,-1350.6061 436.0589,-1348.2248"/>
<text text-anchor="middle" x="457" y="-1385.7155" font-family="Arial" font-size="10.00" fill="#000000"> no</text>
</g>
<!-- using automatic\nretraction? -->
<g id="node5" class="node">
<title>using automatic\nretraction?</title>
<polygon fill="#00eeee" stroke="#000000" points="207,-1048.7891 121,-1018.7891 207,-988.7891 293,-1018.7891 207,-1048.7891"/>
<text text-anchor="middle" x="207" y="-1021.7891" font-family="Arial" font-size="10.00" fill="#000000">using automatic</text>
<text text-anchor="middle" x="207" y="-1010.7891" font-family="Arial" font-size="10.00" fill="#000000">retraction?</text>
</g>
<!-- using\nretraction -->
<g id="node19" class="node">
<title>using\nretraction</title>
<polygon fill="#caff70" stroke="#000000" points="235.5,-941.7891 178.5,-941.7891 178.5,-905.7891 235.5,-905.7891 235.5,-941.7891"/>
<text text-anchor="middle" x="207" y="-926.7891" font-family="Arial" font-size="10.00" fill="#000000">using</text>
<text text-anchor="middle" x="207" y="-915.7891" font-family="Arial" font-size="10.00" fill="#000000">retraction</text>
</g>
<!-- using automatic\nretraction?&#45;&gt;using\nretraction -->
<g id="edge10" class="edge">
<title>using automatic\nretraction?:s&#45;&gt;using\nretraction</title>
<path fill="none" stroke="#000000" d="M207,-988.7891C207,-976.8167 207,-963.6039 207,-952.2351"/>
<polygon fill="#d1eeee" stroke="#000000" points="210.5001,-952.0007 207,-942.0008 203.5001,-952.0008 210.5001,-952.0007"/>
<text text-anchor="middle" x="218" y="-962.7891" font-family="Arial" font-size="10.00" fill="#000000"> &#160;yes</text>
</g>
<!-- not using\nretraction -->
<g id="node20" class="node">
<title>not using\nretraction</title>
<polygon fill="#caff70" stroke="#000000" points="341.5,-941.7891 284.5,-941.7891 284.5,-905.7891 341.5,-905.7891 341.5,-941.7891"/>
<text text-anchor="middle" x="313" y="-926.7891" font-family="Arial" font-size="10.00" fill="#000000">not using</text>
<text text-anchor="middle" x="313" y="-915.7891" font-family="Arial" font-size="10.00" fill="#000000">retraction</text>
</g>
<!-- using automatic\nretraction?&#45;&gt;not using\nretraction -->
<g id="edge13" class="edge">
<title>using automatic\nretraction?:e&#45;&gt;not using\nretraction</title>
<path fill="none" stroke="#000000" d="M293,-1018.7891C319.4622,-1018.7891 295.012,-985.5649 301,-959.7891 301.6215,-957.1139 302.3587,-954.3554 303.1576,-951.6116"/>
<polygon fill="#d1eeee" stroke="#000000" points="306.5463,-952.5038 306.2241,-941.9138 299.872,-950.3933 306.5463,-952.5038"/>
<text text-anchor="middle" x="308" y="-962.7891" font-family="Arial" font-size="10.00" fill="#000000"> no</text>
</g>
<!-- no retraction\nspecified, no\nextrusion position&#45;&gt;using automatic\nretraction? -->
<g id="edge8" class="edge">
<title>no retraction\nspecified, no\nextrusion position&#45;&gt;using automatic\nretraction?</title>
<path fill="none" stroke="#000000" d="M207,-1095.5184C207,-1083.8151 207,-1071.0858 207,-1059.4207"/>
<polygon fill="#d1eeee" stroke="#000000" points="210.5001,-1059.0668 207,-1049.0669 203.5001,-1059.0669 210.5001,-1059.0668"/>
<text text-anchor="middle" x="217" y="-1069.7891" font-family="Arial" font-size="10.00" fill="#000000"> true</text>
</g>
<!-- no retraction\nspecified, no\nextrusion position&#45;&gt;not using\nretraction -->
<g id="edge9" class="edge">
<title>no retraction\nspecified, no\nextrusion position:e&#45;&gt;not using\nretraction</title>
<path fill="none" stroke="#000000" d="M305,-1136.7891C341.5788,-1136.7891 326.4328,-1009.7632 317.6363,-951.9022"/>
<polygon fill="#d1eeee" stroke="#000000" points="321.0831,-951.2893 316.0816,-941.9494 314.167,-952.3698 321.0831,-951.2893"/>
<text text-anchor="middle" x="339.5" y="-1016.2891" font-family="Arial" font-size="10.00" fill="#000000"> false</text>
</g>
<!-- tool speed\nspecified? -->
<g id="node7" class="node">
<title>tool speed\nspecified?</title>
<polygon fill="#00eeee" stroke="#000000" points="253,-868.7891 191,-838.7891 253,-808.7891 315,-838.7891 253,-868.7891"/>
<text text-anchor="middle" x="253" y="-841.7891" font-family="Arial" font-size="10.00" fill="#000000">tool speed</text>
<text text-anchor="middle" x="253" y="-830.7891" font-family="Arial" font-size="10.00" fill="#000000">specified?</text>
</g>
<!-- printing or\ntraveling mode? -->
<g id="node12" class="node">
<title>printing or\ntraveling mode?</title>
<polygon fill="#00eeee" stroke="#000000" points="437,-868.7891 351,-838.7891 437,-808.7891 523,-838.7891 437,-868.7891"/>
<text text-anchor="middle" x="437" y="-841.7891" font-family="Arial" font-size="10.00" fill="#000000">printing or</text>
<text text-anchor="middle" x="437" y="-830.7891" font-family="Arial" font-size="10.00" fill="#000000">traveling mode?</text>
</g>
<!-- tool speed\nspecified?&#45;&gt;printing or\ntraveling mode? -->
<g id="edge23" class="edge">
<title>tool speed\nspecified?:e&#45;&gt;printing or\ntraveling mode?:n</title>
<path fill="none" stroke="#000000" d="M315,-838.7891C321.9139,-838.7891 320.7913,-845.2425 326,-849.7891 336.5138,-858.9665 337.7745,-864.3337 351,-868.7891 383.4018,-879.7045 426.6508,-901.6765 435.4132,-878.8306"/>
<polygon fill="#d1eeee" stroke="#000000" points="438.8961,-879.2129 437,-868.7891 431.9819,-878.1202 438.8961,-879.2129"/>
<text text-anchor="middle" x="333" y="-865.7891" font-family="Arial" font-size="10.00" fill="#000000"> no</text>
</g>
<!-- set speed -->
<g id="node15" class="node">
<title>set speed</title>
<polygon fill="#caff70" stroke="#000000" points="344.5,-761.7891 285.5,-761.7891 285.5,-725.7891 344.5,-725.7891 344.5,-761.7891"/>
<text text-anchor="middle" x="315" y="-741.2891" font-family="Arial" font-size="10.00" fill="#000000">set speed</text>
</g>
<!-- tool speed\nspecified?&#45;&gt;set speed -->
<g id="edge22" class="edge">
<title>tool speed\nspecified?:s&#45;&gt;set speed</title>
<path fill="none" stroke="#000000" d="M253,-808.7891C253,-791.7417 264.3045,-777.4014 277.2594,-766.5645"/>
<polygon fill="#d1eeee" stroke="#000000" points="279.6503,-769.1416 285.4527,-760.2769 275.3886,-763.5884 279.6503,-769.1416"/>
<text text-anchor="middle" x="272.5" y="-782.7891" font-family="Arial" font-size="10.00" fill="#000000"> yes</text>
</g>
<!-- too much or little\nfilament used? -->
<g id="node8" class="node">
<title>too much or little\nfilament used?</title>
<polygon fill="#00eeee" stroke="#000000" points="414,-471.25 325,-441.25 414,-411.25 503,-441.25 414,-471.25"/>
<text text-anchor="middle" x="414" y="-444.25" font-family="Arial" font-size="10.00" fill="#000000">too much or little</text>
<text text-anchor="middle" x="414" y="-433.25" font-family="Arial" font-size="10.00" fill="#000000">filament used?</text>
</g>
<!-- throw error -->
<g id="node25" class="node">
<title>throw error</title>
<polygon fill="#ff3030" stroke="#000000" points="468.508,-207.7942 468.508,-222.7058 445.3647,-233.25 412.6353,-233.25 389.492,-222.7058 389.492,-207.7942 412.6353,-197.25 445.3647,-197.25 468.508,-207.7942"/>
<polygon fill="none" stroke="#000000" points="472.5084,-205.2211 472.5084,-225.2789 446.2332,-237.25 411.7668,-237.25 385.4916,-225.2789 385.4916,-205.2211 411.7668,-193.25 446.2332,-193.25 472.5084,-205.2211"/>
<text text-anchor="middle" x="429" y="-212.75" font-family="Arial" font-size="10.00" fill="#000000">throw error</text>
</g>
<!-- too much or little\nfilament used?&#45;&gt;throw error -->
<g id="edge34" class="edge">
<title>too much or little\nfilament used?:s&#45;&gt;throw error</title>
<path fill="none" stroke="#000000" d="M414,-411.25C414,-353.3843 420.5804,-286.1883 425.0243,-247.4068"/>
<polygon fill="#d1eeee" stroke="#000000" points="428.5263,-247.5927 426.2138,-237.2533 421.5739,-246.7781 428.5263,-247.5927"/>
<text text-anchor="middle" x="429.5" y="-330.75" font-family="Arial" font-size="10.00" fill="#000000"> yes</text>
</g>
<!-- calculate\nper&#45;axis\ntool speed -->
<g id="node31" class="node">
<title>calculate\nper&#45;axis\ntool speed</title>
<ellipse fill="#d1eeee" stroke="#000000" cx="582" cy="-441.25" rx="43.6818" ry="28.9828"/>
<text text-anchor="middle" x="582" y="-449.75" font-family="Arial" font-size="10.00" fill="#000000">calculate</text>
<text text-anchor="middle" x="582" y="-438.75" font-family="Arial" font-size="10.00" fill="#000000">per&#45;axis</text>
<text text-anchor="middle" x="582" y="-427.75" font-family="Arial" font-size="10.00" fill="#000000">tool speed</text>
</g>
<!-- too much or little\nfilament used?&#45;&gt;calculate\nper&#45;axis\ntool speed -->
<g id="edge35" class="edge">
<title>too much or little\nfilament used?:e&#45;&gt;calculate\nper&#45;axis\ntool speed</title>
<path fill="none" stroke="#000000" d="M503,-441.25C509.9139,-441.25 507.6124,-449.6042 514,-452.25 519.7486,-454.6311 521.8092,-452.8741 528,-452.25 528.7496,-452.1744 529.5043,-452.0931 530.2628,-452.0064"/>
<polygon fill="#d1eeee" stroke="#000000" points="530.8432,-455.4595 540.2651,-450.6139 529.8779,-448.5263 530.8432,-455.4595"/>
<text text-anchor="middle" x="521" y="-456.25" font-family="Arial" font-size="10.00" fill="#000000"> no</text>
</g>
<!-- is tool speed\nwithin printer\nlimits? -->
<g id="node9" class="node">
<title>is tool speed\nwithin printer\nlimits?</title>
<polygon fill="#00eeee" stroke="#000000" points="579,-374.25 507,-333.25 579,-292.25 651,-333.25 579,-374.25"/>
<text text-anchor="middle" x="579" y="-341.75" font-family="Arial" font-size="10.00" fill="#000000">is tool speed</text>
<text text-anchor="middle" x="579" y="-330.75" font-family="Arial" font-size="10.00" fill="#000000">within printer</text>
<text text-anchor="middle" x="579" y="-319.75" font-family="Arial" font-size="10.00" fill="#000000">limits?</text>
</g>
<!-- send GCode to\nprinter -->
<g id="node22" class="node">
<title>send GCode to\nprinter</title>
<polygon fill="#fffacd" stroke="#000000" points="664.0275,-245.25 528.7678,-245.25 493.9725,-185.25 629.2322,-185.25 664.0275,-245.25"/>
<text text-anchor="middle" x="579" y="-218.25" font-family="Arial" font-size="10.00" fill="#000000">send GCode to</text>
<text text-anchor="middle" x="579" y="-207.25" font-family="Arial" font-size="10.00" fill="#000000">printer</text>
</g>
<!-- is tool speed\nwithin printer\nlimits?&#45;&gt;send GCode to\nprinter -->
<g id="edge38" class="edge">
<title>is tool speed\nwithin printer\nlimits?&#45;&gt;send GCode to\nprinter</title>
<path fill="none" stroke="#000000" d="M579,-291.9793C579,-280.276 579,-267.5467 579,-255.8816"/>
<polygon fill="#d1eeee" stroke="#000000" points="582.5001,-255.5277 579,-245.5278 575.5001,-255.5278 582.5001,-255.5277"/>
<text text-anchor="middle" x="588.5" y="-266.25" font-family="Arial" font-size="10.00" fill="#000000"> yes</text>
</g>
<!-- is tool speed\nwithin printer\nlimits?&#45;&gt;throw error -->
<g id="edge37" class="edge">
<title>is tool speed\nwithin printer\nlimits?:w&#45;&gt;throw error</title>
<path fill="none" stroke="#000000" d="M507,-333.25C465.6508,-333.25 444.9513,-282.2022 435.6257,-247.2579"/>
<polygon fill="#d1eeee" stroke="#000000" points="438.9957,-246.3059 433.1876,-237.4449 432.2022,-247.9938 438.9957,-246.3059"/>
<text text-anchor="middle" x="451" y="-266.25" font-family="Arial" font-size="10.00" fill="#000000"> no</text>
</g>
<!-- using\nretraction? -->
<g id="node10" class="node">
<title>using\nretraction?</title>
<polygon fill="#00eeee" stroke="#000000" points="579,-148.25 517,-118.25 579,-88.25 641,-118.25 579,-148.25"/>
<text text-anchor="middle" x="579" y="-121.25" font-family="Arial" font-size="10.00" fill="#000000">using</text>
<text text-anchor="middle" x="579" y="-110.25" font-family="Arial" font-size="10.00" fill="#000000">retraction?</text>
</g>
<!-- retract -->
<g id="node23" class="node">
<title>retract</title>
<polygon fill="#fffacd" stroke="#000000" points="578.9521,-38.625 518.5788,-38.625 503.0479,-2.625 563.4212,-2.625 578.9521,-38.625"/>
<text text-anchor="middle" x="541" y="-18.125" font-family="Arial" font-size="10.00" fill="#000000">retract</text>
</g>
<!-- using\nretraction?&#45;&gt;retract -->
<g id="edge40" class="edge">
<title>using\nretraction?:s&#45;&gt;retract</title>
<path fill="none" stroke="#000000" d="M579,-88.25C579,-73.2953 571.8498,-58.5901 563.7526,-46.7319"/>
<polygon fill="#d1eeee" stroke="#000000" points="566.5327,-44.6046 557.778,-38.6376 560.9008,-48.7617 566.5327,-44.6046"/>
<text text-anchor="middle" x="584.5" y="-62.25" font-family="Arial" font-size="10.00" fill="#000000"> yes</text>
</g>
<!-- update internal\nposition -->
<g id="node24" class="node">
<title>update internal\nposition</title>
<path fill="#d1eeee" stroke="#000000" d="M694,-37.6029C694,-39.6847 676.0714,-41.3758 654,-41.3758 631.9286,-41.3758 614,-39.6847 614,-37.6029 614,-37.6029 614,-3.6471 614,-3.6471 614,-1.5653 631.9286,.1258 654,.1258 676.0714,.1258 694,-1.5653 694,-3.6471 694,-3.6471 694,-37.6029 694,-37.6029"/>
<path fill="none" stroke="#000000" d="M694,-37.6029C694,-35.5211 676.0714,-33.83 654,-33.83 631.9286,-33.83 614,-35.5211 614,-37.6029"/>
<text text-anchor="middle" x="654" y="-23.625" font-family="Arial" font-size="10.00" fill="#000000">update internal</text>
<text text-anchor="middle" x="654" y="-12.625" font-family="Arial" font-size="10.00" fill="#000000">position</text>
</g>
<!-- using\nretraction?&#45;&gt;update internal\nposition -->
<g id="edge42" class="edge">
<title>using\nretraction?:e&#45;&gt;update internal\nposition:n</title>
<path fill="none" stroke="#000000" d="M641,-118.25C672.3172,-118.25 657.7016,-83.8136 654.5483,-51.5885"/>
<polygon fill="#d1eeee" stroke="#000000" points="658.0248,-51.0506 654,-41.25 651.0346,-51.4214 658.0248,-51.0506"/>
<text text-anchor="middle" x="664" y="-62.25" font-family="Arial" font-size="10.00" fill="#000000"> no</text>
</g>
<!-- using auto\nprinting mode? -->
<g id="node11" class="node">
<title>using auto\nprinting mode?</title>
<polygon fill="#00eeee" stroke="#000000" points="425,-688.7891 345,-658.7891 425,-628.7891 505,-658.7891 425,-688.7891"/>
<text text-anchor="middle" x="425" y="-661.7891" font-family="Arial" font-size="10.00" fill="#000000">using auto</text>
<text text-anchor="middle" x="425" y="-650.7891" font-family="Arial" font-size="10.00" fill="#000000">printing mode?</text>
</g>
<!-- calculate new\ntool position\n(without filament\nlength) -->
<g id="node29" class="node">
<title>calculate new\ntool position\n(without filament\nlength)</title>
<ellipse fill="#d1eeee" stroke="#000000" cx="266" cy="-545.0196" rx="62.4516" ry="36.5405"/>
<text text-anchor="middle" x="266" y="-559.0196" font-family="Arial" font-size="10.00" fill="#000000">calculate new</text>
<text text-anchor="middle" x="266" y="-548.0196" font-family="Arial" font-size="10.00" fill="#000000">tool position</text>
<text text-anchor="middle" x="266" y="-537.0196" font-family="Arial" font-size="10.00" fill="#000000">(without filament</text>
<text text-anchor="middle" x="266" y="-526.0196" font-family="Arial" font-size="10.00" fill="#000000">length)</text>
</g>
<!-- using auto\nprinting mode?&#45;&gt;calculate new\ntool position\n(without filament\nlength) -->
<g id="edge29" class="edge">
<title>using auto\nprinting mode?:s&#45;&gt;calculate new\ntool position\n(without filament\nlength):n</title>
<path fill="none" stroke="#000000" d="M425,-628.7891C425,-558.9857 282.3274,-645.3757 267.2799,-592.0458"/>
<polygon fill="#d1eeee" stroke="#000000" points="270.7114,-591.2787 266,-581.7891 263.7652,-592.1456 270.7114,-591.2787"/>
<text text-anchor="middle" x="427.5" y="-602.7891" font-family="Arial" font-size="10.00" fill="#000000"> yes</text>
</g>
<!-- calculate new\ntool position\n(with filament\nlength) -->
<g id="node30" class="node">
<title>calculate new\ntool position\n(with filament\nlength)</title>
<ellipse fill="#d1eeee" stroke="#000000" cx="575" cy="-545.0196" rx="53.9813" ry="36.5405"/>
<text text-anchor="middle" x="575" y="-559.0196" font-family="Arial" font-size="10.00" fill="#000000">calculate new</text>
<text text-anchor="middle" x="575" y="-548.0196" font-family="Arial" font-size="10.00" fill="#000000">tool position</text>
<text text-anchor="middle" x="575" y="-537.0196" font-family="Arial" font-size="10.00" fill="#000000">(with filament</text>
<text text-anchor="middle" x="575" y="-526.0196" font-family="Arial" font-size="10.00" fill="#000000">length)</text>
</g>
<!-- using auto\nprinting mode?&#45;&gt;calculate new\ntool position\n(with filament\nlength) -->
<g id="edge30" class="edge">
<title>using auto\nprinting mode?:e&#45;&gt;calculate new\ntool position\n(with filament\nlength)</title>
<path fill="none" stroke="#000000" d="M505,-658.7891C538.2726,-658.7891 556.2371,-623.0549 565.6014,-591.6402"/>
<polygon fill="#d1eeee" stroke="#000000" points="569.0736,-592.2132 568.348,-581.6432 562.3237,-590.3586 569.0736,-592.2132"/>
<text text-anchor="middle" x="569" y="-602.7891" font-family="Arial" font-size="10.00" fill="#000000"> no</text>
</g>
<!-- set speed to\nprinting speed -->
<g id="node13" class="node">
<title>set speed to\nprinting speed</title>
<polygon fill="#caff70" stroke="#000000" points="561.5,-761.7891 484.5,-761.7891 484.5,-725.7891 561.5,-725.7891 561.5,-761.7891"/>
<text text-anchor="middle" x="523" y="-746.7891" font-family="Arial" font-size="10.00" fill="#000000">set speed to</text>
<text text-anchor="middle" x="523" y="-735.7891" font-family="Arial" font-size="10.00" fill="#000000">printing speed</text>
</g>
<!-- printing or\ntraveling mode?&#45;&gt;set speed to\nprinting speed -->
<g id="edge25" class="edge">
<title>printing or\ntraveling mode?:e&#45;&gt;set speed to\nprinting speed</title>
<path fill="none" stroke="#000000" d="M523,-838.7891C550.028,-838.7891 542.4528,-799.8605 533.5005,-771.8425"/>
<polygon fill="#d1eeee" stroke="#000000" points="536.7256,-770.454 530.2015,-762.1061 530.0958,-772.7004 536.7256,-770.454"/>
<text text-anchor="middle" x="555.5" y="-782.7891" font-family="Arial" font-size="10.00" fill="#000000"> printing</text>
</g>
<!-- set speed to\ntraveling speed -->
<g id="node14" class="node">
<title>set speed to\ntraveling speed</title>
<polygon fill="#caff70" stroke="#000000" points="466.5,-761.7891 383.5,-761.7891 383.5,-725.7891 466.5,-725.7891 466.5,-761.7891"/>
<text text-anchor="middle" x="425" y="-746.7891" font-family="Arial" font-size="10.00" fill="#000000">set speed to</text>
<text text-anchor="middle" x="425" y="-735.7891" font-family="Arial" font-size="10.00" fill="#000000">traveling speed</text>
</g>
<!-- printing or\ntraveling mode?&#45;&gt;set speed to\ntraveling speed -->
<g id="edge24" class="edge">
<title>printing or\ntraveling mode?:s&#45;&gt;set speed to\ntraveling speed</title>
<path fill="none" stroke="#000000" d="M437,-808.7891C437,-796.4889 434.8963,-783.0937 432.4505,-771.6769"/>
<polygon fill="#d1eeee" stroke="#000000" points="435.8358,-770.7818 430.1587,-761.8363 429.0182,-772.3696 435.8358,-770.7818"/>
<text text-anchor="middle" x="455" y="-782.7891" font-family="Arial" font-size="10.00" fill="#000000"> traveling</text>
</g>
<!-- set speed to\nprinting speed&#45;&gt;using auto\nprinting mode? -->
<g id="edge27" class="edge">
<title>set speed to\nprinting speed&#45;&gt;using auto\nprinting mode?</title>
<path fill="none" stroke="#000000" d="M502.2167,-725.7628C489.1325,-714.4142 471.9765,-699.534 457.1594,-686.6824"/>
<polygon fill="#d1eeee" stroke="#000000" points="459.0567,-683.695 449.209,-679.7867 454.4701,-688.983 459.0567,-683.695"/>
</g>
<!-- set speed to\ntraveling speed&#45;&gt;using auto\nprinting mode? -->
<g id="edge28" class="edge">
<title>set speed to\ntraveling speed&#45;&gt;using auto\nprinting mode?</title>
<path fill="none" stroke="#000000" d="M425,-725.7628C425,-717.8895 425,-708.3163 425,-698.8999"/>
<polygon fill="#d1eeee" stroke="#000000" points="428.5001,-698.8316 425,-688.8317 421.5001,-698.8317 428.5001,-698.8316"/>
</g>
<!-- set speed&#45;&gt;using auto\nprinting mode? -->
<g id="edge26" class="edge">
<title>set speed&#45;&gt;using auto\nprinting mode?</title>
<path fill="none" stroke="#000000" d="M338.3282,-725.7628C353.5033,-714.0366 373.5581,-698.5397 390.5542,-685.4063"/>
<polygon fill="#d1eeee" stroke="#000000" points="392.8445,-688.0598 398.6173,-679.1757 388.5643,-682.5208 392.8445,-688.0598"/>
</g>
<!-- printing\nmode (auto) -->
<g id="node16" class="node">
<title>printing\nmode (auto)</title>
<polygon fill="#caff70" stroke="#000000" points="241,-1250.7891 173,-1250.7891 173,-1214.7891 241,-1214.7891 241,-1250.7891"/>
<text text-anchor="middle" x="207" y="-1235.7891" font-family="Arial" font-size="10.00" fill="#000000">printing</text>
<text text-anchor="middle" x="207" y="-1224.7891" font-family="Arial" font-size="10.00" fill="#000000">mode (auto)</text>
</g>
<!-- printing\nmode (auto)&#45;&gt;no retraction\nspecified, no\nextrusion position -->
<g id="edge7" class="edge">
<title>printing\nmode (auto)&#45;&gt;no retraction\nspecified, no\nextrusion position</title>
<path fill="none" stroke="#000000" d="M207,-1214.7322C207,-1206.9925 207,-1197.5233 207,-1187.887"/>
<polygon fill="#d1eeee" stroke="#000000" points="210.5001,-1187.8498 207,-1177.8499 203.5001,-1187.8499 210.5001,-1187.8498"/>
</g>
<!-- printing\nmode (manual) -->
<g id="node17" class="node">
<title>printing\nmode (manual)</title>
<polygon fill="#caff70" stroke="#000000" points="464.5,-1250.7891 383.5,-1250.7891 383.5,-1214.7891 464.5,-1214.7891 464.5,-1250.7891"/>
<text text-anchor="middle" x="424" y="-1235.7891" font-family="Arial" font-size="10.00" fill="#000000">printing</text>
<text text-anchor="middle" x="424" y="-1224.7891" font-family="Arial" font-size="10.00" fill="#000000">mode (manual)</text>
</g>
<!-- printing\nmode (manual)&#45;&gt;not using\nretraction -->
<g id="edge19" class="edge">
<title>printing\nmode (manual)&#45;&gt;not using\nretraction</title>
<path fill="none" stroke="#000000" d="M422.0061,-1214.5753C417.1259,-1173.3885 402.8191,-1070.3288 374,-988.7891 369.1644,-975.1075 368.2597,-970.9617 359,-959.7891 355.6876,-955.7924 351.8607,-951.9547 347.8575,-948.3722"/>
<polygon fill="#d1eeee" stroke="#000000" points="349.9461,-945.5561 340.0309,-941.8227 345.4538,-950.9245 349.9461,-945.5561"/>
</g>
<!-- traveling mode&#45;&gt;not using\nretraction -->
<g id="edge16" class="edge">
<title>traveling mode&#45;&gt;not using\nretraction</title>
<path fill="none" stroke="#000000" d="M332.3331,-1214.6102C347.8429,-1173.4948 380.603,-1070.5718 356,-988.7891 351.8067,-974.8503 343.5443,-961.148 335.3732,-949.9449"/>
<polygon fill="#d1eeee" stroke="#000000" points="338.0715,-947.7119 329.2113,-941.9025 332.5149,-951.9692 338.0715,-947.7119"/>
</g>
<!-- using\nretraction&#45;&gt;tool speed\nspecified? -->
<g id="edge21" class="edge">
<title>using\nretraction&#45;&gt;tool speed\nspecified?</title>
<path fill="none" stroke="#000000" d="M216.7554,-905.7628C222.1243,-895.8419 228.9539,-883.2221 235.2337,-871.6181"/>
<polygon fill="#d1eeee" stroke="#000000" points="238.4324,-873.0612 240.1138,-862.6006 232.2761,-869.7295 238.4324,-873.0612"/>
</g>
<!-- not using\nretraction&#45;&gt;tool speed\nspecified? -->
<g id="edge20" class="edge">
<title>not using\nretraction&#45;&gt;tool speed\nspecified?</title>
<path fill="none" stroke="#000000" d="M300.2755,-905.7628C292.9125,-895.3318 283.4433,-881.9171 274.9158,-869.8365"/>
<polygon fill="#d1eeee" stroke="#000000" points="277.5427,-867.4887 268.9165,-861.3374 271.8239,-871.5255 277.5427,-867.4887"/>
</g>
<!-- unretract\n(as needed)&#45;&gt;printing\nmode (auto) -->
<g id="edge6" class="edge">
<title>unretract\n(as needed)&#45;&gt;printing\nmode (auto)</title>
<path fill="none" stroke="#000000" d="M207,-1357.8788C207,-1329.8021 207,-1288.3839 207,-1261.0052"/>
<polygon fill="#d1eeee" stroke="#000000" points="210.5001,-1260.9083 207,-1250.9084 203.5001,-1260.9084 210.5001,-1260.9083"/>
</g>
<!-- send GCode to\nprinter&#45;&gt;using\nretraction? -->
<g id="edge39" class="edge">
<title>send GCode to\nprinter&#45;&gt;using\nretraction?</title>
<path fill="none" stroke="#000000" d="M579,-185.0903C579,-176.696 579,-167.4421 579,-158.5649"/>
<polygon fill="#d1eeee" stroke="#000000" points="582.5001,-158.391 579,-148.391 575.5001,-158.3911 582.5001,-158.391"/>
</g>
<!-- retract&#45;&gt;update internal\nposition -->
<g id="edge41" class="edge">
<title>retract&#45;&gt;update internal\nposition</title>
<path fill="none" stroke="#000000" d="M571.457,-20.625C582.1267,-20.625 592.7964,-20.625 603.4661,-20.625"/>
<polygon fill="#d1eeee" stroke="#000000" points="603.6959,-24.1251 613.6958,-20.625 603.6958,-17.1251 603.6959,-24.1251"/>
</g>
<!-- finished -->
<g id="node26" class="node">
<title>finished</title>
<polygon fill="#f08080" stroke="#000000" points="792.717,-13.1692 792.717,-28.0808 774.1376,-38.625 747.8624,-38.625 729.283,-28.0808 729.283,-13.1692 747.8624,-2.625 774.1376,-2.625 792.717,-13.1692"/>
<text text-anchor="middle" x="761" y="-18.125" font-family="Arial" font-size="10.00" fill="#000000">finished</text>
</g>
<!-- update internal\nposition&#45;&gt;finished -->
<g id="edge43" class="edge">
<title>update internal\nposition&#45;&gt;finished</title>
<path fill="none" stroke="#000000" d="M694.125,-20.625C702.4204,-20.625 710.7159,-20.625 719.0113,-20.625"/>
<polygon fill="#d1eeee" stroke="#000000" points="719.1299,-24.1251 729.1299,-20.625 719.1298,-17.1251 719.1299,-24.1251"/>
</g>
<!-- retraction\nargument is:&#45;&gt;using\nretraction -->
<g id="edge11" class="edge">
<title>retraction\nargument is:&#45;&gt;using\nretraction</title>
<path fill="none" stroke="#000000" d="M65.6087,-997.9607C74.1886,-985.3489 86.5812,-969.8157 101,-959.7891 121.1574,-945.7719 147.233,-936.8224 168.4773,-931.3525"/>
<polygon fill="#d1eeee" stroke="#000000" points="169.5717,-934.6889 178.4711,-928.9397 167.9289,-927.8843 169.5717,-934.6889"/>
<text text-anchor="middle" x="111" y="-962.7891" font-family="Arial" font-size="10.00" fill="#000000"> true</text>
</g>
<!-- retraction\nargument is:&#45;&gt;not using\nretraction -->
<g id="edge12" class="edge">
<title>retraction\nargument is:&#45;&gt;not using\nretraction</title>
<path fill="none" stroke="#000000" d="M84.6822,-1002.2659C93.479,-997.7913 103.0682,-993.0181 112,-988.7891 140.9582,-975.0782 147.7653,-970.3925 178,-959.7891 180.3507,-958.9647 235.3018,-944.3671 274.3606,-934.0169"/>
<polygon fill="#d1eeee" stroke="#000000" points="275.6318,-937.301 284.402,-931.3568 273.8392,-930.5344 275.6318,-937.301"/>
<text text-anchor="middle" x="190.5" y="-962.7891" font-family="Arial" font-size="10.00" fill="#000000"> false</text>
</g>
<!-- clear current\nretraction&#45;&gt;printing\nmode (manual) -->
<g id="edge18" class="edge">
<title>clear current\nretraction&#45;&gt;printing\nmode (manual)</title>
<path fill="none" stroke="#000000" d="M421.7416,-1297.6912C422.1242,-1286.6962 422.5961,-1273.1341 423.0095,-1261.2551"/>
<polygon fill="#d1eeee" stroke="#000000" points="426.5184,-1261.0568 423.3684,-1250.9411 419.5226,-1260.8133 426.5184,-1261.0568"/>
</g>
<!-- calculate\nnew filament\nposition, update\ninternally -->
<g id="node32" class="node">
<title>calculate\nnew filament\nposition, update\ninternally</title>
<ellipse fill="#d1eeee" stroke="#000000" cx="425" cy="-545.0196" rx="60.623" ry="36.5405"/>
<text text-anchor="middle" x="425" y="-559.0196" font-family="Arial" font-size="10.00" fill="#000000">calculate</text>
<text text-anchor="middle" x="425" y="-548.0196" font-family="Arial" font-size="10.00" fill="#000000">new filament</text>
<text text-anchor="middle" x="425" y="-537.0196" font-family="Arial" font-size="10.00" fill="#000000">position, update</text>
<text text-anchor="middle" x="425" y="-526.0196" font-family="Arial" font-size="10.00" fill="#000000">internally</text>
</g>
<!-- calculate new\ntool position\n(without filament\nlength)&#45;&gt;calculate\nnew filament\nposition, update\ninternally -->
<g id="edge32" class="edge">
<title>calculate new\ntool position\n(without filament\nlength)&#45;&gt;calculate\nnew filament\nposition, update\ninternally</title>
<path fill="none" stroke="#000000" d="M328.4199,-545.0196C336.8239,-545.0196 345.2279,-545.0196 353.6319,-545.0196"/>
<polygon fill="#d1eeee" stroke="#000000" points="353.883,-548.5197 363.8829,-545.0196 353.8829,-541.5197 353.883,-548.5197"/>
</g>
<!-- calculate new\ntool position\n(with filament\nlength)&#45;&gt;calculate\nper&#45;axis\ntool speed -->
<g id="edge31" class="edge">
<title>calculate new\ntool position\n(with filament\nlength)&#45;&gt;calculate\nper&#45;axis\ntool speed</title>
<path fill="none" stroke="#000000" d="M577.4876,-508.1421C578.0864,-499.2656 578.7285,-489.7478 579.335,-480.7567"/>
<polygon fill="#d1eeee" stroke="#000000" points="582.8449,-480.7268 580.0259,-470.5139 575.8607,-480.2556 582.8449,-480.7268"/>
</g>
<!-- calculate\nper&#45;axis\ntool speed&#45;&gt;is tool speed\nwithin printer\nlimits? -->
<g id="edge36" class="edge">
<title>calculate\nper&#45;axis\ntool speed&#45;&gt;is tool speed\nwithin printer\nlimits?</title>
<path fill="none" stroke="#000000" d="M581.1882,-412.0236C580.9486,-403.3989 580.6791,-393.6976 580.4133,-384.1276"/>
<polygon fill="#d1eeee" stroke="#000000" points="583.9042,-383.7507 580.1278,-373.8518 576.9069,-383.9451 583.9042,-383.7507"/>
</g>
<!-- calculate\nnew filament\nposition, update\ninternally&#45;&gt;too much or little\nfilament used? -->
<g id="edge33" class="edge">
<title>calculate\nnew filament\nposition, update\ninternally&#45;&gt;too much or little\nfilament used?</title>
<path fill="none" stroke="#000000" d="M421.0908,-508.1421C420.1397,-499.1691 419.119,-489.5408 418.1568,-480.4637"/>
<polygon fill="#d1eeee" stroke="#000000" points="421.6368,-480.0892 417.1021,-470.5139 414.6758,-480.8271 421.6368,-480.0892"/>
</g>
</g>
</svg>
