<?xml version="1.0" encoding="UTF-8" standalone="no"?>
<!DOCTYPE svg PUBLIC "-//W3C//DTD SVG 1.1//EN"
 "http://www.w3.org/Graphics/SVG/1.1/DTD/svg11.dtd">
<!-- Generated by graphviz version 2.40.1 (20161225.0304)
 -->
<!-- Title: movement Pages: 1 -->
<svg width="414pt" height="234pt"
 viewBox="0.00 0.00 414.00 234.00" xmlns="http://www.w3.org/2000/svg" xmlns:xlink="http://www.w3.org/1999/xlink">
<g id="graph0" class="graph" transform="scale(1 1) rotate(0) translate(4 230)">
<title>movement</title>
<polygon fill="#ffffff" stroke="transparent" points="-4,4 -4,-230 410,-230 410,4 -4,4"/>
<text text-anchor="middle" x="203" y="-206" font-family="Arial" font-size="20.00" fill="#000000">GCode Tool Operations</text>
<!-- operation -->
<g id="node1" class="node">
<title>operation</title>
<path fill="#add8e6" stroke="#444455" d="M63,-196C63,-196 12,-196 12,-196 6,-196 0,-190 0,-184 0,-184 0,-172 0,-172 0,-166 6,-160 12,-160 12,-160 63,-160 63,-160 69,-160 75,-166 75,-172 75,-172 75,-184 75,-184 75,-190 69,-196 63,-196"/>
<text text-anchor="middle" x="37.5" y="-181" font-family="Arial" font-size="10.00" fill="#000000">user&#45;initiated</text>
<text text-anchor="middle" x="37.5" y="-170" font-family="Arial" font-size="10.00" fill="#000000">tool operation</text>
</g>
<!-- interpreter -->
<g id="node2" class="node">
<title>interpreter</title>
<path fill="#add8e6" stroke="#444455" d="M238,-196C238,-196 172,-196 172,-196 166,-196 160,-190 160,-184 160,-184 160,-172 160,-172 160,-166 166,-160 172,-160 172,-160 238,-160 238,-160 244,-160 250,-166 250,-172 250,-172 250,-184 250,-184 250,-190 244,-196 238,-196"/>
<text text-anchor="middle" x="205" y="-175.5" font-family="Arial" font-size="10.00" fill="#000000">GCode generator</text>
</g>
<!-- operation&#45;&gt;interpreter -->
<g id="edge1" class="edge">
<title>operation&#45;&gt;interpreter</title>
<path fill="none" stroke="#444455" d="M75.0903,-178C97.0336,-178 125.1252,-178 149.5688,-178"/>
<polygon fill="#444455" stroke="#444455" points="149.7928,-181.5001 159.7928,-178 149.7928,-174.5001 149.7928,-181.5001"/>
<text text-anchor="middle" x="117.5" y="-181" font-family="Arial" font-size="10.00" fill="#000000">parameters</text>
</g>
<!-- firmware -->
<g id="node3" class="node">
<title>firmware</title>
<path fill="#add8e6" stroke="#444455" d="M391,-196C391,-196 332,-196 332,-196 326,-196 320,-190 320,-184 320,-184 320,-172 320,-172 320,-166 326,-160 332,-160 332,-160 391,-160 391,-160 397,-160 403,-166 403,-172 403,-172 403,-184 403,-184 403,-190 397,-196 391,-196"/>
<text text-anchor="middle" x="361.5" y="-175.5" font-family="Arial" font-size="10.00" fill="#000000">Marlin firmware</text>
</g>
<!-- interpreter&#45;&gt;firmware -->
<g id="edge2" class="edge">
<title>interpreter&#45;&gt;firmware</title>
<path fill="none" stroke="#444455" d="M250.2663,-178C268.861,-178 290.4974,-178 309.7185,-178"/>
<polygon fill="#444455" stroke="#444455" points="309.8162,-181.5001 319.8162,-178 309.8162,-174.5001 309.8162,-181.5001"/>
<text text-anchor="middle" x="283.5" y="-181" font-family="Arial" font-size="10.00" fill="#000000">GCode</text>
</g>
<!-- controllers -->
<g id="node4" class="node">
<title>controllers</title>
<path fill="#add8e6" stroke="#444455" d="M391,-124C391,-124 332,-124 332,-124 326,-124 320,-118 320,-112 320,-112 320,-100 320,-100 320,-94 326,-88 332,-88 332,-88 391,-88 391,-88 397,-88 403,-94 403,-100 403,-100 403,-112 403,-112 403,-118 397,-124 391,-124"/>
<text text-anchor="middle" x="361.5" y="-103.5" font-family="Arial" font-size="10.00" fill="#000000">controller chips</text>
</g>
<!-- firmware&#45;&gt;controllers -->
<g id="edge3" class="edge">
<title>firmware&#45;&gt;controllers</title>
<path fill="none" stroke="#444455" d="M361.5,-159.5867C361.5,-151.9407 361.5,-142.8916 361.5,-134.4274"/>
<polygon fill="#444455" stroke="#444455" points="365.0001,-134.1686 361.5,-124.1686 358.0001,-134.1687 365.0001,-134.1686"/>
<text text-anchor="middle" x="353" y="-139.5" font-family="Arial" font-size="10.00" fill="#000000">ttl, serial, etc.</text>
</g>
<!-- actuators -->
<g id="node5" class="node">
<title>actuators</title>
<path fill="#add8e6" stroke="#444455" d="M394,-52C394,-52 329,-52 329,-52 323,-52 317,-46 317,-40 317,-40 317,-12 317,-12 317,-6 323,0 329,0 329,0 394,0 394,0 400,0 406,-6 406,-12 406,-12 406,-40 406,-40 406,-46 400,-52 394,-52"/>
<text text-anchor="middle" x="361.5" y="-40" font-family="Arial" font-size="10.00" fill="#000000">actuators:</text>
<text text-anchor="middle" x="361.5" y="-29" font-family="Arial" font-size="10.00" fill="#000000">physical motors,</text>
<text text-anchor="middle" x="361.5" y="-18" font-family="Arial" font-size="10.00" fill="#000000">heaters,</text>
<text text-anchor="middle" x="361.5" y="-7" font-family="Arial" font-size="10.00" fill="#000000"> etc.</text>
</g>
<!-- controllers&#45;&gt;actuators -->
<g id="edge4" class="edge">
<title>controllers&#45;&gt;actuators</title>
<path fill="none" stroke="#444455" d="M361.5,-87.8468C361.5,-80.2749 361.5,-71.1963 361.5,-62.357"/>
<polygon fill="#444455" stroke="#444455" points="365.0001,-62.195 361.5,-52.195 358.0001,-62.195 365.0001,-62.195"/>
<text text-anchor="middle" x="353" y="-67.5" font-family="Arial" font-size="10.00" fill="#000000">electronic &#160;&#160;pulses</text>
</g>
</g>
</svg>
