<?xml version="1.0" encoding="UTF-8" standalone="no"?>
<!DOCTYPE svg PUBLIC "-//W3C//DTD SVG 1.1//EN"
 "http://www.w3.org/Graphics/SVG/1.1/DTD/svg11.dtd">
<!-- Generated by graphviz version 2.40.1 (20161225.0304)
 -->
<!-- Title: movement Pages: 1 -->
<svg width="486pt" height="667pt"
 viewBox="0.00 0.00 486.20 666.97" xmlns="http://www.w3.org/2000/svg" xmlns:xlink="http://www.w3.org/1999/xlink">
<g id="graph0" class="graph" transform="scale(1 1) rotate(0) translate(4 662.9697)">
<title>movement</title>
<polygon fill="#ffffff" stroke="transparent" points="-4,4 -4,-662.9697 482.2024,-662.9697 482.2024,4 -4,4"/>
<!-- startgo -->
<g id="node1" class="node">
<title>startgo</title>
<polygon fill="#d1eeee" stroke="#000000" points="254.2024,-632.386 281.2024,-619.9483 308.2024,-632.386 308.1772,-652.5106 254.2276,-652.5106 254.2024,-632.386"/>
<text text-anchor="start" x="271.2024" y="-635.4483" font-family="Arial" font-size="10.00" fill="#000000">go( )</text>
</g>
<!-- checkwait -->
<g id="node2" class="node">
<title>checkwait</title>
<polygon fill="#00eeee" stroke="#000000" points="281.2024,-561.9483 224.2024,-531.9483 281.2024,-501.9483 338.2024,-531.9483 281.2024,-561.9483"/>
<text text-anchor="middle" x="281.2024" y="-534.9483" font-family="Arial" font-size="10.00" fill="#000000">waiting</text>
<text text-anchor="middle" x="281.2024" y="-523.9483" font-family="Arial" font-size="10.00" fill="#000000">time set?</text>
</g>
<!-- startgo&#45;&gt;checkwait -->
<g id="edge11" class="edge">
<title>startgo:s&#45;&gt;checkwait:n</title>
<path fill="none" stroke="#000000" d="M281.2024,-619.9483C281.2024,-597.9969 281.2024,-590.0652 281.2024,-572.2759"/>
<polygon fill="#d1eeee" stroke="#000000" points="284.7025,-571.9482 281.2024,-561.9483 277.7025,-571.9483 284.7025,-571.9482"/>
</g>
<!-- printer\nwaits -->
<g id="node3" class="node">
<title>printer\nwaits</title>
<polygon fill="#f08080" stroke="#000000" points="316.0556,-405.4623 316.0556,-424.4515 296.2248,-437.879 268.1799,-437.879 248.3492,-424.4515 248.3492,-405.4623 268.1799,-392.0348 296.2248,-392.0348 316.0556,-405.4623"/>
<text text-anchor="middle" x="282.2024" y="-417.9569" font-family="Arial" font-size="10.00" fill="#000000">printer</text>
<text text-anchor="middle" x="282.2024" y="-406.9569" font-family="Arial" font-size="10.00" fill="#000000">waits</text>
</g>
<!-- checkwait&#45;&gt;printer\nwaits -->
<g id="edge14" class="edge">
<title>checkwait:s&#45;&gt;printer\nwaits:n</title>
<path fill="none" stroke="#000000" d="M281.2024,-501.9483C281.2024,-477.1708 281.9612,-468.5869 282.1568,-447.9843"/>
<polygon fill="#d1eeee" stroke="#000000" points="285.6568,-447.9727 282.2024,-437.9569 278.6569,-447.9408 285.6568,-447.9727"/>
<text text-anchor="middle" x="290.2024" y="-464.9483" font-family="Arial" font-size="10.00" fill="#000000">yes</text>
</g>
<!-- calculate\nrelative\nmove -->
<g id="node14" class="node">
<title>calculate\nrelative\nmove</title>
<ellipse fill="#d1eeee" stroke="#000000" cx="191.2024" cy="-414.9569" rx="39.6962" ry="28.9828"/>
<text text-anchor="middle" x="191.2024" y="-423.4569" font-family="Arial" font-size="10.00" fill="#000000">calculate</text>
<text text-anchor="middle" x="191.2024" y="-412.4569" font-family="Arial" font-size="10.00" fill="#000000">relative</text>
<text text-anchor="middle" x="191.2024" y="-401.4569" font-family="Arial" font-size="10.00" fill="#000000">move</text>
</g>
<!-- checkwait&#45;&gt;calculate\nrelative\nmove -->
<g id="edge12" class="edge">
<title>checkwait:w&#45;&gt;calculate\nrelative\nmove</title>
<path fill="none" stroke="#000000" d="M224.2024,-531.9483C214.8743,-531.9483 217.6094,-499.9604 215.2024,-490.9483 211.8833,-478.5214 207.8097,-465.0983 203.9673,-453.0415"/>
<polygon fill="#d1eeee" stroke="#000000" points="207.2207,-451.7266 200.8158,-443.2869 200.5597,-453.8787 207.2207,-451.7266"/>
<text text-anchor="middle" x="215.7024" y="-464.9483" font-family="Arial" font-size="10.00" fill="#000000">no</text>
</g>
<!-- calcmovedist -->
<g id="node4" class="node">
<title>calcmovedist</title>
<ellipse fill="#d1eeee" stroke="#000000" cx="97.2024" cy="-338.9741" rx="39.6962" ry="28.9828"/>
<text text-anchor="middle" x="97.2024" y="-347.4741" font-family="Arial" font-size="10.00" fill="#000000">calculate</text>
<text text-anchor="middle" x="97.2024" y="-336.4741" font-family="Arial" font-size="10.00" fill="#000000">relative</text>
<text text-anchor="middle" x="97.2024" y="-325.4741" font-family="Arial" font-size="10.00" fill="#000000">move</text>
</g>
<!-- set\nextrusion\nto 0 -->
<g id="node12" class="node">
<title>set\nextrusion\nto 0</title>
<polygon fill="#caff70" stroke="#000000" points="140.2024,-138 84.2024,-138 84.2024,-97 140.2024,-97 140.2024,-138"/>
<text text-anchor="middle" x="112.2024" y="-126" font-family="Arial" font-size="10.00" fill="#000000">set</text>
<text text-anchor="middle" x="112.2024" y="-115" font-family="Arial" font-size="10.00" fill="#000000">extrusion</text>
<text text-anchor="middle" x="112.2024" y="-104" font-family="Arial" font-size="10.00" fill="#000000">to 0</text>
</g>
<!-- calcmovedist&#45;&gt;set\nextrusion\nto 0 -->
<g id="edge4" class="edge">
<title>calcmovedist&#45;&gt;set\nextrusion\nto 0</title>
<path fill="none" stroke="#000000" d="M99.1943,-309.5641C102.0375,-267.5847 107.2343,-190.8534 110.1242,-148.1837"/>
<polygon fill="#d1eeee" stroke="#000000" points="113.6226,-148.325 110.8064,-138.1113 106.6386,-147.8519 113.6226,-148.325"/>
</g>
<!-- startmoveto -->
<g id="node5" class="node">
<title>startmoveto</title>
<polygon fill="#d1eeee" stroke="#000000" points="-.2034,-632.386 42.2024,-619.9483 84.6081,-632.386 84.5686,-652.5106 -.1638,-652.5106 -.2034,-632.386"/>
<text text-anchor="start" x="21.2024" y="-635.4483" font-family="Arial" font-size="10.00" fill="#000000">moveto( )</text>
</g>
<!-- startmoveto&#45;&gt;set\nextrusion\nto 0 -->
<g id="edge6" class="edge">
<title>startmoveto:s&#45;&gt;set\nextrusion\nto 0</title>
<path fill="none" stroke="#000000" d="M42.2024,-619.9483C42.2024,-580.8372 42.2024,-571.0594 42.2024,-531.9483 42.2024,-531.9483 42.2024,-531.9483 42.2024,-261.9828 42.2024,-218.2836 68.457,-173.9188 88.8083,-146.0939"/>
<polygon fill="#d1eeee" stroke="#000000" points="91.6776,-148.1018 94.899,-138.0086 86.0865,-143.8899 91.6776,-148.1018"/>
</g>
<!-- startmove -->
<g id="node6" class="node">
<title>startmove</title>
<polygon fill="#d1eeee" stroke="#000000" points="108.9393,-632.386 145.2024,-619.9483 181.4655,-632.386 181.4317,-652.5106 108.9731,-652.5106 108.9393,-632.386"/>
<text text-anchor="start" x="128.2024" y="-635.4483" font-family="Arial" font-size="10.00" fill="#000000">move( )</text>
</g>
<!-- checkparamsmove -->
<g id="node7" class="node">
<title>checkparamsmove</title>
<polygon fill="#00eeee" stroke="#000000" points="145.2024,-572.9483 84.2024,-531.9483 145.2024,-490.9483 206.2024,-531.9483 145.2024,-572.9483"/>
<text text-anchor="start" x="127.7024" y="-540.4483" font-family="Arial" font-size="10.00" fill="#000000">angle or</text>
<text text-anchor="start" x="126.7024" y="-529.4483" font-family="Arial" font-size="10.00" fill="#000000">distance</text>
<text text-anchor="start" x="122.7024" y="-518.4483" font-family="Arial" font-size="10.00" fill="#000000">specified?</text>
</g>
<!-- startmove&#45;&gt;checkparamsmove -->
<g id="edge1" class="edge">
<title>startmove:s&#45;&gt;checkparamsmove:n</title>
<path fill="none" stroke="#000000" d="M145.2024,-619.9483C145.2024,-602.976 145.2024,-596.3463 145.2024,-583.2525"/>
<polygon fill="#d1eeee" stroke="#000000" points="148.7025,-582.9482 145.2024,-572.9483 141.7025,-582.9483 148.7025,-582.9482"/>
</g>
<!-- checkparamsmove&#45;&gt;startgo -->
<g id="edge2" class="edge">
<title>checkparamsmove:s&#45;&gt;startgo:n</title>
<path fill="none" stroke="#000000" d="M145.2024,-490.9483C145.2024,-477.3927 196.0536,-481.9619 206.2024,-490.9483 219.9461,-503.1178 206.4537,-557.3935 216.2024,-572.9483 228.8379,-593.1093 239.9793,-591.1916 261.2024,-601.9483 281.1544,-612.0607 295.5257,-601.5188 308.2024,-619.9483 308.2024,-619.9483 295.7291,-635.1934 287.7383,-644.9599"/>
<polygon fill="#d1eeee" stroke="#000000" points="284.8259,-642.9923 281.2024,-652.9483 290.2437,-647.425 284.8259,-642.9923"/>
<text text-anchor="middle" x="269.2024" y="-593.9483" font-family="Arial" font-size="10.00" fill="#000000">yes</text>
</g>
<!-- checkparamsmove&#45;&gt;calcmovedist -->
<g id="edge3" class="edge">
<title>checkparamsmove:w&#45;&gt;calcmovedist:n</title>
<path fill="none" stroke="#000000" d="M84.2024,-531.9483C65.9802,-531.9483 83.2433,-509.1452 84.2024,-490.9483 86.9088,-439.5986 95.9295,-424.7953 97.0811,-378.0943"/>
<polygon fill="#d1eeee" stroke="#000000" points="100.5823,-378.0067 97.2024,-367.9655 93.5828,-377.9228 100.5823,-378.0067"/>
<text text-anchor="middle" x="92.7024" y="-464.9483" font-family="Arial" font-size="10.00" fill="#000000">no</text>
</g>
<!-- startextrude -->
<g id="node8" class="node">
<title>startextrude</title>
<polygon fill="#d1eeee" stroke="#000000" points="374.7966,-632.386 417.2024,-619.9483 459.6081,-632.386 459.5686,-652.5106 374.8362,-652.5106 374.7966,-632.386"/>
<text text-anchor="start" x="396.2024" y="-635.4483" font-family="Arial" font-size="10.00" fill="#000000">extrude( )</text>
</g>
<!-- checkparams -->
<g id="node9" class="node">
<title>checkparams</title>
<polygon fill="#00eeee" stroke="#000000" points="417.2024,-572.9483 356.2024,-531.9483 417.2024,-490.9483 478.2024,-531.9483 417.2024,-572.9483"/>
<text text-anchor="start" x="399.7024" y="-540.4483" font-family="Arial" font-size="10.00" fill="#000000">angle or</text>
<text text-anchor="start" x="398.7024" y="-529.4483" font-family="Arial" font-size="10.00" fill="#000000">distance</text>
<text text-anchor="start" x="394.7024" y="-518.4483" font-family="Arial" font-size="10.00" fill="#000000">specified?</text>
</g>
<!-- startextrude&#45;&gt;checkparams -->
<g id="edge7" class="edge">
<title>startextrude:s&#45;&gt;checkparams</title>
<path fill="none" stroke="#000000" d="M417.2024,-619.9483C417.2024,-608.1319 417.2024,-595.423 417.2024,-583.4394"/>
<polygon fill="#d1eeee" stroke="#000000" points="420.7025,-583.1358 417.2024,-573.1358 413.7025,-583.1359 420.7025,-583.1358"/>
</g>
<!-- checkparams&#45;&gt;startgo -->
<g id="edge8" class="edge">
<title>checkparams:s&#45;&gt;startgo:n</title>
<path fill="none" stroke="#000000" d="M417.2024,-490.9483C417.2024,-490.9483 478.2024,-572.9483 478.2024,-572.9483 455.1267,-601.7148 430.9715,-576.1278 397.2024,-590.9483 353.0592,-610.3216 354.196,-638.5073 308.2024,-652.9483 302.1201,-654.858 294.8802,-658.1253 289.4291,-658.9697"/>
<polygon fill="#d1eeee" stroke="#000000" points="291.3391,-656.0303 281.2024,-652.9483 287.2046,-661.6789 291.3391,-656.0303"/>
<text text-anchor="middle" x="405.2024" y="-593.9483" font-family="Arial" font-size="10.00" fill="#000000">yes</text>
</g>
<!-- calculate\nrelative\nextrusion -->
<g id="node13" class="node">
<title>calculate\nrelative\nextrusion</title>
<ellipse fill="#d1eeee" stroke="#000000" cx="329.2024" cy="-184.9914" rx="39.6962" ry="28.9828"/>
<text text-anchor="middle" x="329.2024" y="-193.4914" font-family="Arial" font-size="10.00" fill="#000000">calculate</text>
<text text-anchor="middle" x="329.2024" y="-182.4914" font-family="Arial" font-size="10.00" fill="#000000">relative</text>
<text text-anchor="middle" x="329.2024" y="-171.4914" font-family="Arial" font-size="10.00" fill="#000000">extrusion</text>
</g>
<!-- checkparams&#45;&gt;calculate\nrelative\nextrusion -->
<g id="edge9" class="edge">
<title>checkparams:w&#45;&gt;calculate\nrelative\nextrusion:n</title>
<path fill="none" stroke="#000000" d="M356.2024,-531.9483C348.1866,-531.9483 332.5888,-279.1798 329.6767,-224.2433"/>
<polygon fill="#d1eeee" stroke="#000000" points="333.1605,-223.8104 329.2024,-213.9828 326.168,-224.1337 333.1605,-223.8104"/>
<text text-anchor="middle" x="350.7024" y="-412.4569" font-family="Arial" font-size="10.00" fill="#000000">no</text>
</g>
<!-- checkextruding -->
<g id="node10" class="node">
<title>checkextruding</title>
<polygon fill="#00eeee" stroke="#000000" points="191.2024,-291.9828 130.2024,-261.9828 191.2024,-231.9828 252.2024,-261.9828 191.2024,-291.9828"/>
<text text-anchor="start" x="171.2024" y="-264.9828" font-family="Arial" font-size="10.00" fill="#000000">extrusion</text>
<text text-anchor="start" x="168.7024" y="-253.9828" font-family="Arial" font-size="10.00" fill="#000000">specified?</text>
</g>
<!-- printer\nmovement -->
<g id="node11" class="node">
<title>printer\nmovement</title>
<polygon fill="#fffacd" stroke="#000000" points="259.5539,-60 150.822,-60 122.8509,0 231.5828,0 259.5539,-60"/>
<text text-anchor="middle" x="191.2024" y="-33" font-family="Arial" font-size="10.00" fill="#000000">call</text>
<text text-anchor="middle" x="191.2024" y="-22" font-family="Arial" font-size="10.00" fill="#000000">extrudeto( )</text>
</g>
<!-- checkextruding&#45;&gt;printer\nmovement -->
<g id="edge15" class="edge">
<title>checkextruding:s&#45;&gt;printer\nmovement:n</title>
<path fill="none" stroke="#000000" d="M191.2024,-231.9828C191.2024,-159.1289 191.2024,-138.3542 191.2024,-70.3828"/>
<polygon fill="#d1eeee" stroke="#000000" points="194.7025,-70 191.2024,-60 187.7025,-70 194.7025,-70"/>
<text text-anchor="start" x="202.2024" y="-120.5" font-family="Arial" font-size="10.00" fill="#000000">yes</text>
<text text-anchor="start" x="191.2024" y="-109.5" font-family="Arial" font-size="10.00" fill="#000000">(printing)</text>
</g>
<!-- checkextruding&#45;&gt;set\nextrusion\nto 0 -->
<g id="edge16" class="edge">
<title>checkextruding:w&#45;&gt;set\nextrusion\nto 0:n</title>
<path fill="none" stroke="#000000" d="M130.2024,-261.9828C105.1894,-261.9828 110.5922,-184.3778 111.9477,-148.424"/>
<polygon fill="#d1eeee" stroke="#000000" points="115.457,-148.0826 112.2024,-138 108.459,-147.9115 115.457,-148.0826"/>
<text text-anchor="start" x="128.2024" y="-187.9914" font-family="Arial" font-size="10.00" fill="#000000">no</text>
<text text-anchor="start" x="112.2024" y="-176.9914" font-family="Arial" font-size="10.00" fill="#000000">(traveling)</text>
</g>
<!-- set\nextrusion\nto 0&#45;&gt;printer\nmovement -->
<g id="edge5" class="edge">
<title>set\nextrusion\nto 0&#45;&gt;printer\nmovement</title>
<path fill="none" stroke="#000000" d="M130.9243,-96.7637C138.778,-88.065 148.1636,-77.6695 157.1636,-67.7012"/>
<polygon fill="#d1eeee" stroke="#000000" points="159.8355,-69.9647 163.939,-60.1968 154.6398,-65.2737 159.8355,-69.9647"/>
</g>
<!-- calculate\nrelative\nextrusion&#45;&gt;printer\nmovement -->
<g id="edge10" class="edge">
<title>calculate\nrelative\nextrusion&#45;&gt;printer\nmovement</title>
<path fill="none" stroke="#000000" d="M307.3359,-160.4325C285.0805,-135.4369 250.2938,-96.3671 224.59,-67.4985"/>
<polygon fill="#d1eeee" stroke="#000000" points="227.1961,-65.1621 217.9322,-60.021 221.9681,-69.817 227.1961,-65.1621"/>
</g>
<!-- calculate\nrelative\nmove&#45;&gt;checkextruding -->
<g id="edge13" class="edge">
<title>calculate\nrelative\nmove&#45;&gt;checkextruding</title>
<path fill="none" stroke="#000000" d="M191.2024,-385.8236C191.2024,-362.0996 191.2024,-328.3551 191.2024,-302.0805"/>
<polygon fill="#d1eeee" stroke="#000000" points="194.7025,-302.0529 191.2024,-292.0529 187.7025,-302.053 194.7025,-302.0529"/>
</g>
</g>
</svg>
