<?xml version="1.0" encoding="UTF-8" standalone="no"?>
<!DOCTYPE svg PUBLIC "-//W3C//DTD SVG 1.1//EN"
 "http://www.w3.org/Graphics/SVG/1.1/DTD/svg11.dtd">
<!-- Generated by graphviz version 2.40.1 (20161225.0304)
 -->
<!-- Title: retract Pages: 1 -->
<svg width="736pt" height="832pt"
 viewBox="0.00 0.00 736.49 832.00" xmlns="http://www.w3.org/2000/svg" xmlns:xlink="http://www.w3.org/1999/xlink">
<g id="graph0" class="graph" transform="scale(1 1) rotate(0) translate(4 828)">
<title>retract</title>
<polygon fill="#ffffff" stroke="transparent" points="-4,4 -4,-828 732.4916,-828 732.4916,4 -4,4"/>
<!-- start -->
<g id="node1" class="node">
<title>start</title>
<polygon fill="#d1eeee" stroke="#000000" points="33.3714,-800.4377 72,-788 110.6286,-800.4377 110.5926,-820.5623 33.4074,-820.5623 33.3714,-800.4377"/>
<text text-anchor="start" x="53.5" y="-803.5" font-family="Arial" font-size="10.00" fill="#000000">retract( )</text>
</g>
<!-- check -->
<g id="node2" class="node">
<title>check</title>
<polygon fill="#00eeee" stroke="#000000" points="72,-730 0,-700 72,-670 144,-700 72,-730"/>
<text text-anchor="start" x="49" y="-703" font-family="Arial" font-size="10.00" fill="#000000">is filament</text>
<text text-anchor="start" x="44" y="-692" font-family="Arial" font-size="10.00" fill="#000000"> &#160;&#160;&#160;retracted?</text>
</g>
<!-- start&#45;&gt;check -->
<g id="edge1" class="edge">
<title>start&#45;&gt;check</title>
<path fill="none" stroke="#000000" d="M72,-787.5362C72,-774.5933 72,-756.7834 72,-740.6056"/>
<polygon fill="#d1eeee" stroke="#000000" points="75.5001,-740.2778 72,-730.2778 68.5001,-740.2778 75.5001,-740.2778"/>
<text text-anchor="start" x="81" y="-762" font-family="Arial" font-size="10.00" fill="#000000">check current</text>
<text text-anchor="start" x="72" y="-751" font-family="Arial" font-size="10.00" fill="#000000"> &#160;&#160;&#160;retraction state</text>
</g>
<!-- speedcheck -->
<g id="node3" class="node">
<title>speedcheck</title>
<polygon fill="#00eeee" stroke="#000000" points="172,-623 102,-582 172,-541 242,-582 172,-623"/>
<text text-anchor="start" x="153.5" y="-590.5" font-family="Arial" font-size="10.00" fill="#000000">is speed</text>
<text text-anchor="start" x="149.5" y="-579.5" font-family="Arial" font-size="10.00" fill="#000000">too fast or</text>
<text text-anchor="start" x="145" y="-568.5" font-family="Arial" font-size="10.00" fill="#000000"> &#160;&#160;&#160;too slow?</text>
</g>
<!-- check&#45;&gt;speedcheck -->
<g id="edge3" class="edge">
<title>check:e&#45;&gt;speedcheck:n</title>
<path fill="none" stroke="#000000" d="M144,-700C177.0008,-700 173.1837,-666.6677 172.178,-633.3147"/>
<polygon fill="#d1eeee" stroke="#000000" points="175.6721,-632.9381 172,-623 168.6732,-633.0589 175.6721,-632.9381"/>
<text text-anchor="middle" x="181.5" y="-644" font-family="Arial" font-size="10.00" fill="#000000"> &#160;no</text>
</g>
<!-- quit -->
<g id="node10" class="node">
<title>quit</title>
<polygon fill="#f08080" stroke="#000000" points="439,-10.5442 439,-25.4558 423.1838,-36 400.8162,-36 385,-25.4558 385,-10.5442 400.8162,0 423.1838,0 439,-10.5442"/>
<text text-anchor="middle" x="412" y="-15.5" font-family="Arial" font-size="10.00" fill="#000000">quit</text>
</g>
<!-- check&#45;&gt;quit -->
<g id="edge2" class="edge">
<title>check:s&#45;&gt;quit</title>
<path fill="none" stroke="#000000" d="M72,-670C72,-630.4644 59,-621.5356 59,-582 59,-582 59,-582 59,-125 59,-100.3945 59.052,-88.6973 78,-73 122.6806,-35.9848 297.1507,-23.3491 374.6041,-19.5059"/>
<polygon fill="#d1eeee" stroke="#000000" points="375.0422,-22.9892 384.8656,-19.0204 374.7113,-15.997 375.0422,-22.9892"/>
<text text-anchor="middle" x="70" y="-380.5" font-family="Arial" font-size="10.00" fill="#000000"> &#160;yes</text>
</g>
<!-- updatelength -->
<g id="node4" class="node">
<title>updatelength</title>
<ellipse fill="#d1eeee" stroke="#000000" cx="302" cy="-472" rx="72.6644" ry="21.4286"/>
<text text-anchor="start" x="262.5" y="-475" font-family="Arial" font-size="10.00" fill="#000000">subtract retraction</text>
<text text-anchor="start" x="258.5" y="-464" font-family="Arial" font-size="10.00" fill="#000000">length from filament</text>
</g>
<!-- speedcheck&#45;&gt;updatelength -->
<g id="edge5" class="edge">
<title>speedcheck:e&#45;&gt;updatelength:n</title>
<path fill="none" stroke="#000000" d="M242,-582C286.2574,-582 300.038,-546.4576 301.7986,-503.2287"/>
<polygon fill="#d1eeee" stroke="#000000" points="305.3024,-503.067 302,-493 298.3038,-502.9291 305.3024,-503.067"/>
</g>
<!-- error -->
<g id="node11" class="node">
<title>error</title>
<polygon fill="#ff3030" stroke="#000000" points="199,-464.5442 199,-479.4558 183.1838,-490 160.8162,-490 145,-479.4558 145,-464.5442 160.8162,-454 183.1838,-454 199,-464.5442"/>
<polygon fill="none" stroke="#000000" points="203,-462.4034 203,-481.5966 184.3949,-494 159.6051,-494 141,-481.5966 141,-462.4034 159.6051,-450 184.3949,-450 203,-462.4034"/>
<text text-anchor="middle" x="172" y="-469.5" font-family="Arial" font-size="10.00" fill="#000000">error</text>
</g>
<!-- speedcheck&#45;&gt;error -->
<g id="edge4" class="edge">
<title>speedcheck:s&#45;&gt;error:n</title>
<path fill="none" stroke="#000000" d="M172,-541C172,-524.0278 172,-517.398 172,-504.3042"/>
<polygon fill="#d1eeee" stroke="#000000" points="175.5001,-504 172,-494 168.5001,-504 175.5001,-504"/>
<text text-anchor="middle" x="183" y="-515" font-family="Arial" font-size="10.00" fill="#000000"> &#160;yes</text>
</g>
<!-- firmwarecheck -->
<g id="node5" class="node">
<title>firmwarecheck</title>
<polygon fill="#00eeee" stroke="#000000" points="308,-413 228,-383 308,-353 388,-383 308,-413"/>
<text text-anchor="start" x="276" y="-386" font-family="Arial" font-size="10.00" fill="#000000">using firmware</text>
<text text-anchor="start" x="285" y="-375" font-family="Arial" font-size="10.00" fill="#000000">retraction?</text>
</g>
<!-- updatelength&#45;&gt;firmwarecheck -->
<g id="edge6" class="edge">
<title>updatelength&#45;&gt;firmwarecheck</title>
<path fill="none" stroke="#000000" d="M303.4524,-450.4556C304.0179,-442.0685 304.6843,-432.1832 305.3301,-422.6042"/>
<polygon fill="#d1eeee" stroke="#000000" points="308.8363,-422.6284 306.0169,-412.4156 301.8521,-422.1575 308.8363,-422.6284"/>
</g>
<!-- speedchangecheck -->
<g id="node6" class="node">
<title>speedchangecheck</title>
<polygon fill="#00eeee" stroke="#000000" points="308,-306 210,-265 308,-224 406,-265 308,-306"/>
<text text-anchor="start" x="300" y="-273.5" font-family="Arial" font-size="10.00" fill="#000000">has</text>
<text text-anchor="start" x="267" y="-262.5" font-family="Arial" font-size="10.00" fill="#000000">retraction speed or</text>
<text text-anchor="start" x="272" y="-251.5" font-family="Arial" font-size="10.00" fill="#000000">length changed?</text>
</g>
<!-- firmwarecheck&#45;&gt;speedchangecheck -->
<g id="edge7" class="edge">
<title>firmwarecheck:s&#45;&gt;speedchangecheck:n</title>
<path fill="none" stroke="#000000" d="M308,-353C308,-336.0278 308,-329.398 308,-316.3042"/>
<polygon fill="#d1eeee" stroke="#000000" points="311.5001,-316 308,-306 304.5001,-316 311.5001,-316"/>
<text text-anchor="middle" x="319" y="-327" font-family="Arial" font-size="10.00" fill="#000000"> &#160;yes</text>
</g>
<!-- manualretraction -->
<g id="node7" class="node">
<title>manualretraction</title>
<polygon fill="#fffacd" stroke="#000000" points="728.4831,-177 571.8185,-177 531.5169,-73 688.1815,-73 728.4831,-177"/>
<text text-anchor="start" x="602.5" y="-139" font-family="Arial" font-size="10.00" fill="#000000">send GCode</text>
<text text-anchor="start" x="593.5" y="-128" font-family="Arial" font-size="10.00" fill="#000000">to move filament</text>
<text text-anchor="start" x="590.5" y="-117" font-family="Arial" font-size="10.00" fill="#000000">back by retraction</text>
<text text-anchor="start" x="616.5" y="-106" font-family="Arial" font-size="10.00" fill="#000000">length</text>
</g>
<!-- firmwarecheck&#45;&gt;manualretraction -->
<g id="edge8" class="edge">
<title>firmwarecheck:e&#45;&gt;manualretraction:n</title>
<path fill="none" stroke="#000000" d="M388,-383C525.7982,-383 625.0563,-321.3698 629.8207,-187.2086"/>
<polygon fill="#d1eeee" stroke="#000000" points="633.3238,-187.0599 630,-177 626.3248,-186.937 633.3238,-187.0599"/>
<text text-anchor="middle" x="632" y="-262.5" font-family="Arial" font-size="10.00" fill="#000000"> no</text>
</g>
<!-- sendfirmwareupdate -->
<g id="node8" class="node">
<title>sendfirmwareupdate</title>
<polygon fill="#fffacd" stroke="#000000" points="275.1893,-177 125.3552,-177 86.8107,-73 236.6448,-73 275.1893,-177"/>
<text text-anchor="start" x="153.5" y="-139" font-family="Arial" font-size="10.00" fill="#000000">send GCode</text>
<text text-anchor="start" x="160.5" y="-128" font-family="Arial" font-size="10.00" fill="#000000">to update</text>
<text text-anchor="start" x="143.5" y="-117" font-family="Arial" font-size="10.00" fill="#000000">firmware settings</text>
<text text-anchor="start" x="167.5" y="-106" font-family="Arial" font-size="10.00" fill="#000000">length</text>
</g>
<!-- speedchangecheck&#45;&gt;sendfirmwareupdate -->
<g id="edge10" class="edge">
<title>speedchangecheck:s&#45;&gt;sendfirmwareupdate:n</title>
<path fill="none" stroke="#000000" d="M308,-224C308,-167.6934 196.8435,-228.2825 182.5147,-187.0445"/>
<polygon fill="#d1eeee" stroke="#000000" points="185.9521,-186.3663 181,-177 179.0304,-187.4101 185.9521,-186.3663"/>
<text text-anchor="middle" x="312" y="-198" font-family="Arial" font-size="10.00" fill="#000000"> &#160;yes</text>
</g>
<!-- sendfirmware -->
<g id="node9" class="node">
<title>sendfirmware</title>
<polygon fill="#fffacd" stroke="#000000" points="513.7037,-166 351.9159,-166 310.2963,-84 472.0841,-84 513.7037,-166"/>
<text text-anchor="start" x="384.5" y="-133.5" font-family="Arial" font-size="10.00" fill="#000000">send GCode</text>
<text text-anchor="start" x="371" y="-122.5" font-family="Arial" font-size="10.00" fill="#000000">for firmware retract</text>
<text text-anchor="start" x="399.5" y="-111.5" font-family="Arial" font-size="10.00" fill="#000000">(G10)</text>
</g>
<!-- speedchangecheck&#45;&gt;sendfirmware -->
<g id="edge13" class="edge">
<title>speedchangecheck:e&#45;&gt;sendfirmware:n</title>
<path fill="none" stroke="#000000" d="M406,-265C410.5415,-265 411.6726,-201.4889 411.93,-176.0755"/>
<polygon fill="#d1eeee" stroke="#000000" points="415.4303,-176.0241 412,-166 408.4305,-175.9754 415.4303,-176.0241"/>
<text text-anchor="middle" x="419.5" y="-198" font-family="Arial" font-size="10.00" fill="#000000"> &#160;no</text>
</g>
<!-- manualretraction&#45;&gt;quit -->
<g id="edge9" class="edge">
<title>manualretraction:s&#45;&gt;quit</title>
<path fill="none" stroke="#000000" d="M630,-73C630,-36.1937 511.6923,-23.768 449.3865,-19.7761"/>
<polygon fill="#d1eeee" stroke="#000000" points="449.3603,-16.2684 439.1691,-19.1649 448.9422,-23.2559 449.3603,-16.2684"/>
</g>
<!-- sendfirmwareupdate&#45;&gt;sendfirmware -->
<g id="edge11" class="edge">
<title>sendfirmwareupdate&#45;&gt;sendfirmware</title>
<path fill="none" stroke="#000000" d="M256.3457,-125C277.779,-125 299.2122,-125 320.6455,-125"/>
<polygon fill="#d1eeee" stroke="#000000" points="320.8288,-128.5001 330.8287,-125 320.8287,-121.5001 320.8288,-128.5001"/>
</g>
<!-- sendfirmware&#45;&gt;quit -->
<g id="edge12" class="edge">
<title>sendfirmware:s&#45;&gt;quit</title>
<path fill="none" stroke="#000000" d="M412,-84C412,-71.6304 412,-57.9567 412,-46.2784"/>
<polygon fill="#d1eeee" stroke="#000000" points="415.5001,-46.209 412,-36.2091 408.5001,-46.2091 415.5001,-46.209"/>
</g>
</g>
</svg>
