<?xml version="1.0" encoding="UTF-8" standalone="no"?>
<!DOCTYPE svg PUBLIC "-//W3C//DTD SVG 1.1//EN"
 "http://www.w3.org/Graphics/SVG/1.1/DTD/svg11.dtd">
<!-- Generated by graphviz version 2.40.1 (20161225.0304)
 -->
<!-- Title: unretract Pages: 1 -->
<svg width="739pt" height="832pt"
 viewBox="0.00 0.00 739.34 832.00" xmlns="http://www.w3.org/2000/svg" xmlns:xlink="http://www.w3.org/1999/xlink">
<g id="graph0" class="graph" transform="scale(1 1) rotate(0) translate(4 828)">
<title>unretract</title>
<polygon fill="#ffffff" stroke="transparent" points="-4,4 -4,-828 735.3445,-828 735.3445,4 -4,4"/>
<!-- start -->
<g id="node1" class="node">
<title>start</title>
<polygon fill="#d1eeee" stroke="#000000" points="539.7081,-800.4377 586.3445,-788 632.9809,-800.4377 632.9374,-820.5623 539.7517,-820.5623 539.7081,-800.4377"/>
<text text-anchor="start" x="562.3445" y="-803.5" font-family="Arial" font-size="10.00" fill="#000000">unretract( )</text>
</g>
<!-- check -->
<g id="node2" class="node">
<title>check</title>
<polygon fill="#00eeee" stroke="#000000" points="586.3445,-730 511.3445,-700 586.3445,-670 661.3445,-700 586.3445,-730"/>
<text text-anchor="start" x="561.8445" y="-703" font-family="Arial" font-size="10.00" fill="#000000"> is filament</text>
<text text-anchor="start" x="556.8445" y="-692" font-family="Arial" font-size="10.00" fill="#000000"> &#160;&#160;&#160;retracted? </text>
</g>
<!-- start&#45;&gt;check -->
<g id="edge1" class="edge">
<title>start&#45;&gt;check:n</title>
<path fill="none" stroke="#000000" d="M586.3445,-787.8801C586.3445,-775.129 586.3445,-757.3762 586.3445,-740.4103"/>
<polygon fill="#d1eeee" stroke="#000000" points="589.8446,-740 586.3445,-730 582.8446,-740 589.8446,-740"/>
<text text-anchor="start" x="595.3445" y="-762" font-family="Arial" font-size="10.00" fill="#000000">check current</text>
<text text-anchor="start" x="586.3445" y="-751" font-family="Arial" font-size="10.00" fill="#000000"> &#160;&#160;&#160;retraction state</text>
</g>
<!-- speedcheck -->
<g id="node3" class="node">
<title>speedcheck</title>
<polygon fill="#00eeee" stroke="#000000" points="466.3445,-623 396.3445,-582 466.3445,-541 536.3445,-582 466.3445,-623"/>
<text text-anchor="start" x="447.8445" y="-590.5" font-family="Arial" font-size="10.00" fill="#000000">is speed</text>
<text text-anchor="start" x="443.8445" y="-579.5" font-family="Arial" font-size="10.00" fill="#000000">too fast or</text>
<text text-anchor="start" x="439.3445" y="-568.5" font-family="Arial" font-size="10.00" fill="#000000"> &#160;&#160;&#160;too slow?</text>
</g>
<!-- check&#45;&gt;speedcheck -->
<g id="edge3" class="edge">
<title>check:s&#45;&gt;speedcheck:n</title>
<path fill="none" stroke="#000000" d="M586.3445,-670C586.3445,-616.7492 482.6263,-671.3952 468.0409,-633.3174"/>
<polygon fill="#d1eeee" stroke="#000000" points="471.4206,-632.2997 466.3445,-623 464.5134,-633.4354 471.4206,-632.2997"/>
<text text-anchor="middle" x="589.3445" y="-644" font-family="Arial" font-size="10.00" fill="#000000"> &#160;yes</text>
</g>
<!-- quit -->
<g id="node10" class="node">
<title>quit</title>
<polygon fill="#f08080" stroke="#000000" points="604.3445,-10.5442 604.3445,-25.4558 588.5283,-36 566.1608,-36 550.3445,-25.4558 550.3445,-10.5442 566.1608,0 588.5283,0 604.3445,-10.5442"/>
<text text-anchor="middle" x="577.3445" y="-15.5" font-family="Arial" font-size="10.00" fill="#000000">quit</text>
</g>
<!-- check&#45;&gt;quit -->
<g id="edge2" class="edge">
<title>check:e&#45;&gt;quit</title>
<path fill="none" stroke="#000000" d="M661.3445,-700C718.8361,-700 714.3445,-639.4916 714.3445,-582 714.3445,-582 714.3445,-582 714.3445,-125 714.3445,-100.3945 711.9806,-91.1293 695.3445,-73 673.7593,-49.4773 640.0702,-35.1683 614.2053,-27.0666"/>
<polygon fill="#d1eeee" stroke="#000000" points="614.9472,-23.6364 604.3654,-24.1614 612.965,-30.3499 614.9472,-23.6364"/>
<text text-anchor="middle" x="722.8445" y="-380.5" font-family="Arial" font-size="10.00" fill="#000000"> &#160;no</text>
</g>
<!-- updatelength -->
<g id="node4" class="node">
<title>updatelength</title>
<ellipse fill="#d1eeee" stroke="#000000" cx="536.3445" cy="-472" rx="65.1077" ry="21.4286"/>
<text text-anchor="start" x="506.3445" y="-475" font-family="Arial" font-size="10.00" fill="#000000">add retraction</text>
<text text-anchor="start" x="498.3445" y="-464" font-family="Arial" font-size="10.00" fill="#000000">length to filament</text>
</g>
<!-- speedcheck&#45;&gt;updatelength -->
<g id="edge5" class="edge">
<title>speedcheck:e&#45;&gt;updatelength</title>
<path fill="none" stroke="#000000" d="M536.3445,-582C568.1892,-582 558.5487,-535.3293 547.9562,-502.7874"/>
<polygon fill="#d1eeee" stroke="#000000" points="551.2288,-501.5401 544.6832,-493.2091 544.6048,-503.8037 551.2288,-501.5401"/>
<text text-anchor="middle" x="561.8445" y="-515" font-family="Arial" font-size="10.00" fill="#000000"> &#160;no</text>
</g>
<!-- error -->
<g id="node11" class="node">
<title>error</title>
<polygon fill="#ff3030" stroke="#000000" points="449.3445,-464.5442 449.3445,-479.4558 433.5283,-490 411.1608,-490 395.3445,-479.4558 395.3445,-464.5442 411.1608,-454 433.5283,-454 449.3445,-464.5442"/>
<polygon fill="none" stroke="#000000" points="453.3445,-462.4034 453.3445,-481.5966 434.7394,-494 409.9497,-494 391.3445,-481.5966 391.3445,-462.4034 409.9497,-450 434.7394,-450 453.3445,-462.4034"/>
<text text-anchor="middle" x="422.3445" y="-469.5" font-family="Arial" font-size="10.00" fill="#000000">error</text>
</g>
<!-- speedcheck&#45;&gt;error -->
<g id="edge4" class="edge">
<title>speedcheck:s&#45;&gt;error:n</title>
<path fill="none" stroke="#000000" d="M466.3445,-541C466.3445,-516.4098 433.8494,-520.5055 424.7102,-503.9832"/>
<polygon fill="#d1eeee" stroke="#000000" points="428.0561,-502.9235 422.3445,-494 421.2447,-504.5376 428.0561,-502.9235"/>
<text text-anchor="middle" x="465.8445" y="-515" font-family="Arial" font-size="10.00" fill="#000000"> yes</text>
</g>
<!-- firmwarecheck -->
<g id="node5" class="node">
<title>firmwarecheck</title>
<polygon fill="#00eeee" stroke="#000000" points="497.3445,-413 417.3445,-383 497.3445,-353 577.3445,-383 497.3445,-413"/>
<text text-anchor="start" x="465.3445" y="-386" font-family="Arial" font-size="10.00" fill="#000000">using firmware</text>
<text text-anchor="start" x="474.3445" y="-375" font-family="Arial" font-size="10.00" fill="#000000">retraction?</text>
</g>
<!-- updatelength&#45;&gt;firmwarecheck -->
<g id="edge6" class="edge">
<title>updatelength&#45;&gt;firmwarecheck:n</title>
<path fill="none" stroke="#000000" d="M514.7913,-451.9477C507.8856,-443.8626 501.3273,-433.8924 498.6324,-423.1054"/>
<polygon fill="#d1eeee" stroke="#000000" points="502.0808,-422.4773 497.3445,-413 495.1369,-423.3623 502.0808,-422.4773"/>
</g>
<!-- speedchangecheck -->
<g id="node6" class="node">
<title>speedchangecheck</title>
<polygon fill="#00eeee" stroke="#000000" points="254.3445,-306 171.3445,-265 254.3445,-224 337.3445,-265 254.3445,-306"/>
<text text-anchor="start" x="224.3445" y="-273.5" font-family="Arial" font-size="10.00" fill="#000000">has retraction</text>
<text text-anchor="start" x="235.3445" y="-262.5" font-family="Arial" font-size="10.00" fill="#000000">speed or</text>
<text text-anchor="start" x="220.8445" y="-251.5" font-family="Arial" font-size="10.00" fill="#000000">length changed</text>
</g>
<!-- firmwarecheck&#45;&gt;speedchangecheck -->
<g id="edge7" class="edge">
<title>firmwarecheck:s&#45;&gt;speedchangecheck:n</title>
<path fill="none" stroke="#000000" d="M497.3445,-353C497.3445,-246.6508 270.2134,-404.8251 255.1304,-316.0419"/>
<polygon fill="#d1eeee" stroke="#000000" points="258.6142,-315.6964 254.3445,-306 251.6355,-316.2426 258.6142,-315.6964"/>
<text text-anchor="middle" x="504.3445" y="-327" font-family="Arial" font-size="10.00" fill="#000000"> &#160;yes</text>
</g>
<!-- manualretraction -->
<g id="node7" class="node">
<title>manualretraction</title>
<polygon fill="#fffacd" stroke="#000000" points="686.0629,-177 513.1163,-177 468.6262,-73 641.5727,-73 686.0629,-177"/>
<text text-anchor="start" x="549.8445" y="-139" font-family="Arial" font-size="10.00" fill="#000000">send GCode</text>
<text text-anchor="start" x="540.8445" y="-128" font-family="Arial" font-size="10.00" fill="#000000">to move filament</text>
<text text-anchor="start" x="532.8445" y="-117" font-family="Arial" font-size="10.00" fill="#000000">forward by retraction</text>
<text text-anchor="start" x="563.8445" y="-106" font-family="Arial" font-size="10.00" fill="#000000">length</text>
</g>
<!-- firmwarecheck&#45;&gt;manualretraction -->
<g id="edge8" class="edge">
<title>firmwarecheck:e&#45;&gt;manualretraction:n</title>
<path fill="none" stroke="#000000" d="M577.3445,-383C665.5919,-383 583.7218,-276.6765 577.6902,-187.0077"/>
<polygon fill="#d1eeee" stroke="#000000" points="581.1877,-186.8732 577.3445,-177 574.1919,-187.1149 581.1877,-186.8732"/>
<text text-anchor="middle" x="617.8445" y="-262.5" font-family="Arial" font-size="10.00" fill="#000000"> &#160;no</text>
</g>
<!-- sendfirmwareupdate -->
<g id="node8" class="node">
<title>sendfirmwareupdate</title>
<polygon fill="#fffacd" stroke="#000000" points="188.5339,-177 38.6997,-177 .1552,-73 149.9894,-73 188.5339,-177"/>
<text text-anchor="start" x="66.8445" y="-139" font-family="Arial" font-size="10.00" fill="#000000">send GCode</text>
<text text-anchor="start" x="73.8445" y="-128" font-family="Arial" font-size="10.00" fill="#000000">to update</text>
<text text-anchor="start" x="56.8445" y="-117" font-family="Arial" font-size="10.00" fill="#000000">firmware settings</text>
<text text-anchor="start" x="80.8445" y="-106" font-family="Arial" font-size="10.00" fill="#000000">length</text>
</g>
<!-- speedchangecheck&#45;&gt;sendfirmwareupdate -->
<g id="edge10" class="edge">
<title>speedchangecheck:s&#45;&gt;sendfirmwareupdate:n</title>
<path fill="none" stroke="#000000" d="M254.3445,-224C254.3445,-153.648 110.1819,-241.2866 95.5404,-186.9805"/>
<polygon fill="#d1eeee" stroke="#000000" points="99.0095,-186.5125 94.3445,-177 92.0592,-187.3454 99.0095,-186.5125"/>
<text text-anchor="middle" x="256.3445" y="-198" font-family="Arial" font-size="10.00" fill="#000000">yes</text>
</g>
<!-- sendfirmware -->
<g id="node9" class="node">
<title>sendfirmware</title>
<polygon fill="#fffacd" stroke="#000000" points="450.3567,-166 270.5796,-166 224.3323,-84 404.1094,-84 450.3567,-166"/>
<text text-anchor="start" x="309.8445" y="-133.5" font-family="Arial" font-size="10.00" fill="#000000">send GCode</text>
<text text-anchor="start" x="290.8445" y="-122.5" font-family="Arial" font-size="10.00" fill="#000000">for firmware unretract</text>
<text text-anchor="start" x="325.3445" y="-111.5" font-family="Arial" font-size="10.00" fill="#000000">(G11)</text>
</g>
<!-- speedchangecheck&#45;&gt;sendfirmware -->
<g id="edge13" class="edge">
<title>speedchangecheck:e&#45;&gt;sendfirmware:n</title>
<path fill="none" stroke="#000000" d="M337.3445,-265C377.993,-265 343.5371,-218.0598 338.0521,-176.217"/>
<polygon fill="#d1eeee" stroke="#000000" points="341.5271,-175.7343 337.3445,-166 334.5439,-176.2179 341.5271,-175.7343"/>
<text text-anchor="middle" x="353.8445" y="-198" font-family="Arial" font-size="10.00" fill="#000000"> &#160;no</text>
</g>
<!-- manualretraction&#45;&gt;quit -->
<g id="edge9" class="edge">
<title>manualretraction&#45;&gt;quit</title>
<path fill="none" stroke="#000000" d="M577.3445,-72.7538C577.3445,-63.6061 577.3445,-54.4095 577.3445,-46.2345"/>
<polygon fill="#d1eeee" stroke="#000000" points="580.8446,-46.1662 577.3445,-36.1662 573.8446,-46.1663 580.8446,-46.1662"/>
</g>
<!-- sendfirmwareupdate&#45;&gt;sendfirmware -->
<g id="edge11" class="edge">
<title>sendfirmwareupdate&#45;&gt;sendfirmware</title>
<path fill="none" stroke="#000000" d="M169.3328,-125C192.0101,-125 214.6873,-125 237.3645,-125"/>
<polygon fill="#d1eeee" stroke="#000000" points="237.4321,-128.5001 247.432,-125 237.432,-121.5001 237.4321,-128.5001"/>
</g>
<!-- sendfirmware&#45;&gt;quit -->
<g id="edge12" class="edge">
<title>sendfirmware:s&#45;&gt;quit</title>
<path fill="none" stroke="#000000" d="M337.3445,-84C337.3445,-42.4682 472.6496,-26.0956 540.0729,-20.5152"/>
<polygon fill="#d1eeee" stroke="#000000" points="540.5862,-23.9856 550.28,-19.71 540.0357,-17.0073 540.5862,-23.9856"/>
</g>
</g>
</svg>
