<?xml version="1.0" encoding="UTF-8" standalone="no"?>
<!DOCTYPE svg PUBLIC "-//W3C//DTD SVG 1.1//EN"
 "http://www.w3.org/Graphics/SVG/1.1/DTD/svg11.dtd">
<!-- Generated by graphviz version 2.40.1 (20161225.0304)
 -->
<!-- Title: movement Pages: 1 -->
<svg width="367pt" height="824pt"
 viewBox="0.00 0.00 367.00 824.00" xmlns="http://www.w3.org/2000/svg" xmlns:xlink="http://www.w3.org/1999/xlink">
<g id="graph0" class="graph" transform="scale(1 1) rotate(0) translate(4 820)">
<title>movement</title>
<polygon fill="#ffffff" stroke="transparent" points="-4,4 -4,-820 363,-820 363,4 -4,4"/>
<text text-anchor="middle" x="179.5" y="-800.8" font-family="Arial" font-size="14.00" fill="#000000">Retraction handling explained</text>
<text text-anchor="middle" x="179.5" y="-785.8" font-family="Arial" font-size="14.00" fill="#000000">for drawing a 2D square</text>
<!-- start -->
<g id="node1" class="node">
<title>start</title>
<polygon fill="#fefeea" stroke="#444455" points="200,-778 78,-778 78,-715 206,-715 206,-772 200,-778"/>
<polyline fill="none" stroke="#444455" points="200,-778 200,-772 "/>
<polyline fill="none" stroke="#444455" points="206,-772 200,-772 "/>
<text text-anchor="middle" x="142" y="-766" font-family="Arial" font-size="10.00" fill="#000000">begin with retraction</text>
<text text-anchor="middle" x="142" y="-755" font-family="Arial" font-size="10.00" fill="#000000">state uncertain; goal is to</text>
<text text-anchor="middle" x="142" y="-744" font-family="Arial" font-size="10.00" fill="#000000">draw a square with side</text>
<text text-anchor="middle" x="142" y="-733" font-family="Arial" font-size="10.00" fill="#000000">length 20mm starting</text>
<text text-anchor="middle" x="142" y="-722" font-family="Arial" font-size="10.00" fill="#000000"> at (x,y) of (20mm,30mm)</text>
</g>
<!-- unretract -->
<g id="node14" class="node">
<title>unretract</title>
<path fill="#add8e6" stroke="#444455" d="M157.5,-678C157.5,-678 126.5,-678 126.5,-678 120.5,-678 114.5,-672 114.5,-666 114.5,-666 114.5,-654 114.5,-654 114.5,-648 120.5,-642 126.5,-642 126.5,-642 157.5,-642 157.5,-642 163.5,-642 169.5,-648 169.5,-654 169.5,-654 169.5,-666 169.5,-666 169.5,-672 163.5,-678 157.5,-678"/>
<text text-anchor="middle" x="142" y="-657.5" font-family="Arial" font-size="10.00" fill="#000000">unretract</text>
</g>
<!-- start&#45;&gt;unretract -->
<g id="edge1" class="edge">
<title>start&#45;&gt;unretract</title>
<path fill="none" stroke="#444455" stroke-dasharray="1,5" d="M142,-714.7818C142,-702.4382 142,-688.7428 142,-678.1332"/>
</g>
<!-- prime filament -->
<g id="node2" class="node">
<title>prime filament</title>
<polygon fill="#fefeea" stroke="#444455" points="310,-605 218,-605 218,-520 316,-520 316,-599 310,-605"/>
<polyline fill="none" stroke="#444455" points="310,-605 310,-599 "/>
<polyline fill="none" stroke="#444455" points="316,-599 310,-599 "/>
<text text-anchor="middle" x="267" y="-593" font-family="Arial" font-size="10.00" fill="#000000">1. Manual extrude:</text>
<text text-anchor="middle" x="267" y="-582" font-family="Arial" font-size="10.00" fill="#000000">no retraction;</text>
<text text-anchor="middle" x="267" y="-571" font-family="Arial" font-size="10.00" fill="#000000">clear previous</text>
<text text-anchor="middle" x="267" y="-560" font-family="Arial" font-size="10.00" fill="#000000">retraction;</text>
<text text-anchor="middle" x="267" y="-549" font-family="Arial" font-size="10.00" fill="#000000">otherwise would</text>
<text text-anchor="middle" x="267" y="-538" font-family="Arial" font-size="10.00" fill="#000000">unretract before</text>
<text text-anchor="middle" x="267" y="-527" font-family="Arial" font-size="10.00" fill="#000000">and after</text>
</g>
<!-- extrude -->
<g id="node3" class="node">
<title>extrude</title>
<path fill="#add8e6" stroke="#444455" d="M170.5,-583C170.5,-583 113.5,-583 113.5,-583 107.5,-583 101.5,-577 101.5,-571 101.5,-571 101.5,-554 101.5,-554 101.5,-548 107.5,-542 113.5,-542 113.5,-542 170.5,-542 170.5,-542 176.5,-542 182.5,-548 182.5,-554 182.5,-554 182.5,-571 182.5,-571 182.5,-577 176.5,-583 170.5,-583"/>
<text text-anchor="middle" x="142" y="-571" font-family="Arial" font-size="10.00" fill="#000000">prime filament:</text>
<text text-anchor="middle" x="142" y="-560" font-family="Arial" font-size="10.00" fill="#000000">extrude 10mm</text>
<text text-anchor="middle" x="142" y="-549" font-family="Arial" font-size="10.00" fill="#000000">filament</text>
</g>
<!-- extrude&#45;&gt;prime filament -->
<g id="edge15" class="edge">
<title>extrude:e&#45;&gt;prime filament:w</title>
<path fill="none" stroke="#444455" stroke-dasharray="5,2" d="M182.5,-562.5C198.2778,-562.5 202.2222,-562.5 218,-562.5"/>
</g>
<!-- move -->
<g id="node6" class="node">
<title>move</title>
<path fill="#add8e6" stroke="#444455" d="M176,-483C176,-483 108,-483 108,-483 102,-483 96,-477 96,-471 96,-471 96,-459 96,-459 96,-453 102,-447 108,-447 108,-447 176,-447 176,-447 182,-447 188,-453 188,-459 188,-459 188,-471 188,-471 188,-477 182,-483 176,-483"/>
<text text-anchor="middle" x="142" y="-468" font-family="Arial" font-size="10.00" fill="#000000">move to print bed</text>
<text text-anchor="middle" x="142" y="-457" font-family="Arial" font-size="10.00" fill="#000000">start location</text>
</g>
<!-- extrude&#45;&gt;move -->
<g id="edge3" class="edge">
<title>extrude&#45;&gt;move</title>
<path fill="none" stroke="#444455" d="M142,-541.8228C142,-527.6524 142,-508.6816 142,-493.1377"/>
<polygon fill="#444455" stroke="#444455" points="145.5001,-493.025 142,-483.0251 138.5001,-493.0251 145.5001,-493.025"/>
</g>
<!-- printline -->
<g id="node4" class="node">
<title>printline</title>
<path fill="#add8e6" stroke="#444455" d="M183,-393.5C183,-393.5 101,-393.5 101,-393.5 95,-393.5 89,-387.5 89,-381.5 89,-381.5 89,-364.5 89,-364.5 89,-358.5 95,-352.5 101,-352.5 101,-352.5 183,-352.5 183,-352.5 189,-352.5 195,-358.5 195,-364.5 195,-364.5 195,-381.5 195,-381.5 195,-387.5 189,-393.5 183,-393.5"/>
<text text-anchor="middle" x="142" y="-381.5" font-family="Arial" font-size="10.00" fill="#000000">print 20mm line in</text>
<text text-anchor="middle" x="142" y="-370.5" font-family="Arial" font-size="10.00" fill="#000000">the current direction,</text>
<text text-anchor="middle" x="142" y="-359.5" font-family="Arial" font-size="10.00" fill="#000000">retraction disabled</text>
</g>
<!-- printlinenote -->
<g id="node5" class="node">
<title>printlinenote</title>
<polygon fill="#fefeea" stroke="#444455" points="339.5,-410 230.5,-410 230.5,-336 345.5,-336 345.5,-404 339.5,-410"/>
<polyline fill="none" stroke="#444455" points="339.5,-410 339.5,-404 "/>
<polyline fill="none" stroke="#444455" points="345.5,-404 339.5,-404 "/>
<text text-anchor="middle" x="288" y="-398" font-family="Arial" font-size="10.00" fill="#000000">3. don&#39;t want retraction</text>
<text text-anchor="middle" x="288" y="-387" font-family="Arial" font-size="10.00" fill="#000000">between successive</text>
<text text-anchor="middle" x="288" y="-376" font-family="Arial" font-size="10.00" fill="#000000">drawing operations</text>
<text text-anchor="middle" x="288" y="-365" font-family="Arial" font-size="10.00" fill="#000000">to speed up printing</text>
<text text-anchor="middle" x="288" y="-354" font-family="Arial" font-size="10.00" fill="#000000">and prevent</text>
<text text-anchor="middle" x="288" y="-343" font-family="Arial" font-size="10.00" fill="#000000">filament grinding</text>
</g>
<!-- printline&#45;&gt;printlinenote -->
<g id="edge6" class="edge">
<title>printline&#45;&gt;printlinenote</title>
<path fill="none" stroke="#444455" stroke-dasharray="5,2" d="M195.0391,-373C206.7802,-373 218.5214,-373 230.2625,-373"/>
</g>
<!-- turn -->
<g id="node11" class="node">
<title>turn</title>
<path fill="#add8e6" stroke="#444455" d="M72,-296.5C72,-296.5 12,-296.5 12,-296.5 6,-296.5 0,-290.5 0,-284.5 0,-284.5 0,-272.5 0,-272.5 0,-266.5 6,-260.5 12,-260.5 12,-260.5 72,-260.5 72,-260.5 78,-260.5 84,-266.5 84,-272.5 84,-272.5 84,-284.5 84,-284.5 84,-290.5 78,-296.5 72,-296.5"/>
<text text-anchor="middle" x="42" y="-276" font-family="Arial" font-size="10.00" fill="#000000">turn 90 degrees</text>
</g>
<!-- printline&#45;&gt;turn -->
<g id="edge7" class="edge">
<title>printline:s&#45;&gt;turn:n</title>
<path fill="none" stroke="#444455" d="M142,-352C142,-305.1405 57.0146,-340.7099 43.7357,-306.73"/>
<polygon fill="#444455" stroke="#444455" points="47.1235,-305.7736 42,-296.5 40.2222,-306.9446 47.1235,-305.7736"/>
</g>
<!-- move&#45;&gt;printline -->
<g id="edge4" class="edge">
<title>move&#45;&gt;printline</title>
<path fill="none" stroke="#444455" d="M142,-446.8238C142,-434.6387 142,-418.2815 142,-404.061"/>
<polygon fill="#444455" stroke="#444455" points="145.5001,-403.7075 142,-393.7075 138.5001,-403.7075 145.5001,-403.7075"/>
</g>
<!-- movenote -->
<g id="node7" class="node">
<title>movenote</title>
<polygon fill="#fefeea" stroke="#444455" points="344,-483 224,-483 224,-447 350,-447 350,-477 344,-483"/>
<polyline fill="none" stroke="#444455" points="344,-483 344,-477 "/>
<polyline fill="none" stroke="#444455" points="350,-477 344,-477 "/>
<text text-anchor="middle" x="287" y="-468" font-family="Arial" font-size="10.00" fill="#000000">2. does not retract before</text>
<text text-anchor="middle" x="287" y="-457" font-family="Arial" font-size="10.00" fill="#000000">or after travel moves</text>
</g>
<!-- move&#45;&gt;movenote -->
<g id="edge5" class="edge">
<title>move&#45;&gt;movenote</title>
<path fill="none" stroke="#444455" stroke-dasharray="5,2" d="M188.1621,-465C200.0021,-465 211.842,-465 223.682,-465"/>
</g>
<!-- turnnote -->
<g id="node8" class="node">
<title>turnnote</title>
<polygon fill="#fefeea" stroke="#444455" points="200,-299 120,-299 120,-258 206,-258 206,-293 200,-299"/>
<polyline fill="none" stroke="#444455" points="200,-299 200,-293 "/>
<polyline fill="none" stroke="#444455" points="206,-293 200,-293 "/>
<text text-anchor="middle" x="163" y="-287" font-family="Arial" font-size="10.00" fill="#000000">4. no retraction</text>
<text text-anchor="middle" x="163" y="-276" font-family="Arial" font-size="10.00" fill="#000000">for turns, purely</text>
<text text-anchor="middle" x="163" y="-265" font-family="Arial" font-size="10.00" fill="#000000">virtual operation</text>
</g>
<!-- retractnote -->
<g id="node9" class="node">
<title>retractnote</title>
<polygon fill="#fefeea" stroke="#444455" points="352,-114 214,-114 214,-73 358,-73 358,-108 352,-114"/>
<polyline fill="none" stroke="#444455" points="352,-114 352,-108 "/>
<polyline fill="none" stroke="#444455" points="358,-108 352,-108 "/>
<text text-anchor="middle" x="286" y="-102" font-family="Arial" font-size="10.00" fill="#000000">5. manually retract to prevent</text>
<text text-anchor="middle" x="286" y="-91" font-family="Arial" font-size="10.00" fill="#000000">leakage, because it was</text>
<text text-anchor="middle" x="286" y="-80" font-family="Arial" font-size="10.00" fill="#000000">disabled before</text>
</g>
<!-- endnote -->
<g id="node10" class="node">
<title>endnote</title>
<polygon fill="#fefeea" stroke="#444455" points="353,-36 231,-36 231,0 359,0 359,-30 353,-36"/>
<polyline fill="none" stroke="#444455" points="353,-36 353,-30 "/>
<polyline fill="none" stroke="#444455" points="359,-30 353,-30 "/>
<text text-anchor="middle" x="295" y="-15.5" font-family="Arial" font-size="10.00" fill="#000000">6. no retraction for moves</text>
</g>
<!-- turn&#45;&gt;turnnote -->
<g id="edge8" class="edge">
<title>turn&#45;&gt;turnnote</title>
<path fill="none" stroke="#444455" stroke-dasharray="5,2" d="M84.0664,-278.5C95.9887,-278.5 107.9109,-278.5 119.8332,-278.5"/>
</g>
<!-- repeat -->
<g id="node13" class="node">
<title>repeat</title>
<path fill="#ffee88" stroke="#444455" d="M140.5101,-215.1723C140.5101,-215.1723 107.4899,-196.8277 107.4899,-196.8277 102.2449,-193.9139 102.2449,-188.0861 107.4899,-185.1723 107.4899,-185.1723 140.5101,-166.8277 140.5101,-166.8277 145.7551,-163.9139 156.2449,-163.9139 161.4899,-166.8277 161.4899,-166.8277 194.5101,-185.1723 194.5101,-185.1723 199.7551,-188.0861 199.7551,-193.9139 194.5101,-196.8277 194.5101,-196.8277 161.4899,-215.1723 161.4899,-215.1723 156.2449,-218.0861 145.7551,-218.0861 140.5101,-215.1723"/>
<text text-anchor="middle" x="151" y="-194" font-family="Arial" font-size="10.00" fill="#000000">repeated</text>
<text text-anchor="middle" x="151" y="-183" font-family="Arial" font-size="10.00" fill="#000000">4 times?</text>
</g>
<!-- turn&#45;&gt;repeat -->
<g id="edge9" class="edge">
<title>turn:s&#45;&gt;repeat:n</title>
<path fill="none" stroke="#444455" d="M42,-260.5C42,-212.9983 134.634,-263.2993 149.1081,-231.0792"/>
<polygon fill="#444455" stroke="#444455" points="152.595,-231.4741 151,-221 145.7152,-230.1827 152.595,-231.4741"/>
</g>
<!-- up -->
<g id="node12" class="node">
<title>up</title>
<path fill="#add8e6" stroke="#444455" d="M183.5,-36C183.5,-36 118.5,-36 118.5,-36 112.5,-36 106.5,-30 106.5,-24 106.5,-24 106.5,-12 106.5,-12 106.5,-6 112.5,0 118.5,0 118.5,0 183.5,0 183.5,0 189.5,0 195.5,-6 195.5,-12 195.5,-12 195.5,-24 195.5,-24 195.5,-30 189.5,-36 183.5,-36"/>
<text text-anchor="middle" x="151" y="-15.5" font-family="Arial" font-size="10.00" fill="#000000">move up 100mm</text>
</g>
<!-- up&#45;&gt;endnote -->
<g id="edge14" class="edge">
<title>up&#45;&gt;endnote</title>
<path fill="none" stroke="#444455" d="M195.7188,-18C207.3533,-18 218.9878,-18 230.6223,-18"/>
</g>
<!-- repeat&#45;&gt;printline -->
<g id="edge10" class="edge">
<title>repeat:e&#45;&gt;printline:n</title>
<path fill="none" stroke="#444455" d="M205,-191C250.1658,-191 230.0728,-365.5421 195,-394 188.355,-399.3917 163.3877,-403.166 150.2305,-400.3096"/>
<polygon fill="#444455" stroke="#444455" points="152.0657,-397.3064 142,-394 147.8069,-402.8618 152.0657,-397.3064"/>
<text text-anchor="middle" x="239" y="-276" font-family="Arial" font-size="10.00" fill="#000000"> no</text>
</g>
<!-- retract -->
<g id="node15" class="node">
<title>retract</title>
<path fill="#add8e6" stroke="#444455" d="M166,-111.5C166,-111.5 136,-111.5 136,-111.5 130,-111.5 124,-105.5 124,-99.5 124,-99.5 124,-87.5 124,-87.5 124,-81.5 130,-75.5 136,-75.5 136,-75.5 166,-75.5 166,-75.5 172,-75.5 178,-81.5 178,-87.5 178,-87.5 178,-99.5 178,-99.5 178,-105.5 172,-111.5 166,-111.5"/>
<text text-anchor="middle" x="151" y="-91" font-family="Arial" font-size="10.00" fill="#000000">retract</text>
</g>
<!-- repeat&#45;&gt;retract -->
<g id="edge11" class="edge">
<title>repeat:s&#45;&gt;retract</title>
<path fill="none" stroke="#444455" d="M151,-161C151,-148.1698 151,-133.9678 151,-121.9141"/>
<polygon fill="#444455" stroke="#444455" points="154.5001,-121.5493 151,-111.5493 147.5001,-121.5493 154.5001,-121.5493"/>
<text text-anchor="middle" x="160.5" y="-135" font-family="Arial" font-size="10.00" fill="#000000"> yes</text>
</g>
<!-- unretract&#45;&gt;extrude -->
<g id="edge2" class="edge">
<title>unretract&#45;&gt;extrude</title>
<path fill="none" stroke="#444455" d="M142,-641.661C142,-628.1254 142,-609.382 142,-593.5314"/>
<polygon fill="#444455" stroke="#444455" points="145.5001,-593.1195 142,-583.1195 138.5001,-593.1195 145.5001,-593.1195"/>
</g>
<!-- retract&#45;&gt;retractnote -->
<g id="edge13" class="edge">
<title>retract&#45;&gt;retractnote:w</title>
<path fill="none" stroke="#444455" stroke-dasharray="5,2" d="M178.2887,-93.5C189.3709,-93.5 202.2969,-93.5 214,-93.5"/>
</g>
<!-- retract&#45;&gt;up -->
<g id="edge12" class="edge">
<title>retract&#45;&gt;up</title>
<path fill="none" stroke="#444455" d="M151,-75.2236C151,-66.5062 151,-55.8809 151,-46.1633"/>
<polygon fill="#444455" stroke="#444455" points="154.5001,-46.1081 151,-36.1081 147.5001,-46.1082 154.5001,-46.1081"/>
</g>
</g>
</svg>
